<svg width="1024" height="200" viewBox="0 0 1024 200" fill="none" xmlns="http://www.w3.org/2000/svg">
<rect width="1024" height="200" fill="white"/>
<path d="M112.957 153.854V156H102.416V153.854H112.957ZM102.949 136.094V156H100.311V136.094H102.949ZM111.562 144.652V146.799H102.416V144.652H111.562ZM112.82 136.094V138.254H102.416V136.094H112.82ZM124.564 153.471V145.855C124.564 145.272 124.446 144.766 124.209 144.338C123.981 143.9 123.635 143.563 123.17 143.326C122.705 143.089 122.131 142.971 121.447 142.971C120.809 142.971 120.249 143.08 119.766 143.299C119.292 143.518 118.918 143.805 118.645 144.16C118.38 144.516 118.248 144.898 118.248 145.309H115.719C115.719 144.78 115.855 144.256 116.129 143.736C116.402 143.217 116.794 142.747 117.305 142.328C117.824 141.9 118.444 141.562 119.164 141.316C119.893 141.061 120.704 140.934 121.598 140.934C122.673 140.934 123.621 141.116 124.441 141.48C125.271 141.845 125.918 142.396 126.383 143.135C126.857 143.864 127.094 144.78 127.094 145.883V152.773C127.094 153.266 127.135 153.79 127.217 154.346C127.308 154.902 127.44 155.38 127.613 155.781V156H124.975C124.847 155.708 124.747 155.321 124.674 154.838C124.601 154.346 124.564 153.89 124.564 153.471ZM125.002 147.031L125.029 148.809H122.473C121.753 148.809 121.11 148.868 120.545 148.986C119.98 149.096 119.506 149.264 119.123 149.492C118.74 149.72 118.449 150.007 118.248 150.354C118.048 150.691 117.947 151.087 117.947 151.543C117.947 152.008 118.052 152.432 118.262 152.814C118.471 153.197 118.786 153.503 119.205 153.73C119.633 153.949 120.158 154.059 120.777 154.059C121.552 154.059 122.236 153.895 122.828 153.566C123.421 153.238 123.89 152.837 124.236 152.363C124.592 151.889 124.783 151.429 124.811 150.982L125.891 152.199C125.827 152.582 125.654 153.006 125.371 153.471C125.089 153.936 124.71 154.382 124.236 154.811C123.771 155.23 123.215 155.581 122.568 155.863C121.93 156.137 121.21 156.273 120.408 156.273C119.406 156.273 118.526 156.077 117.77 155.686C117.022 155.294 116.439 154.77 116.02 154.113C115.609 153.448 115.404 152.705 115.404 151.885C115.404 151.092 115.559 150.395 115.869 149.793C116.179 149.182 116.626 148.676 117.209 148.275C117.792 147.865 118.494 147.555 119.314 147.346C120.135 147.136 121.051 147.031 122.062 147.031H125.002ZM139.686 152.076C139.686 151.712 139.604 151.374 139.439 151.064C139.285 150.745 138.961 150.458 138.469 150.203C137.986 149.939 137.257 149.711 136.281 149.52C135.461 149.346 134.718 149.141 134.053 148.904C133.396 148.667 132.836 148.38 132.371 148.043C131.915 147.706 131.564 147.309 131.318 146.854C131.072 146.398 130.949 145.865 130.949 145.254C130.949 144.671 131.077 144.119 131.332 143.6C131.596 143.08 131.965 142.62 132.439 142.219C132.923 141.818 133.501 141.503 134.176 141.275C134.85 141.048 135.602 140.934 136.432 140.934C137.617 140.934 138.628 141.143 139.467 141.562C140.305 141.982 140.948 142.542 141.395 143.244C141.841 143.937 142.064 144.707 142.064 145.555H139.535C139.535 145.145 139.412 144.748 139.166 144.365C138.929 143.973 138.578 143.65 138.113 143.395C137.658 143.139 137.097 143.012 136.432 143.012C135.73 143.012 135.16 143.121 134.723 143.34C134.294 143.549 133.98 143.818 133.779 144.146C133.588 144.475 133.492 144.821 133.492 145.186C133.492 145.459 133.538 145.705 133.629 145.924C133.729 146.133 133.902 146.329 134.148 146.512C134.395 146.685 134.741 146.849 135.188 147.004C135.634 147.159 136.204 147.314 136.896 147.469C138.109 147.742 139.107 148.07 139.891 148.453C140.674 148.836 141.258 149.305 141.641 149.861C142.023 150.417 142.215 151.092 142.215 151.885C142.215 152.532 142.078 153.124 141.805 153.662C141.54 154.2 141.153 154.665 140.643 155.057C140.141 155.439 139.54 155.74 138.838 155.959C138.145 156.169 137.366 156.273 136.5 156.273C135.197 156.273 134.094 156.041 133.191 155.576C132.289 155.111 131.605 154.51 131.141 153.771C130.676 153.033 130.443 152.254 130.443 151.434H132.986C133.023 152.126 133.223 152.678 133.588 153.088C133.952 153.489 134.399 153.776 134.928 153.949C135.456 154.113 135.98 154.195 136.5 154.195C137.193 154.195 137.771 154.104 138.236 153.922C138.71 153.74 139.07 153.489 139.316 153.17C139.562 152.851 139.686 152.486 139.686 152.076ZM149.693 154.469L153.809 141.207H156.516L150.582 158.283C150.445 158.648 150.263 159.04 150.035 159.459C149.816 159.887 149.534 160.293 149.188 160.676C148.841 161.059 148.422 161.368 147.93 161.605C147.447 161.852 146.868 161.975 146.193 161.975C145.993 161.975 145.738 161.947 145.428 161.893C145.118 161.838 144.899 161.792 144.771 161.756L144.758 159.705C144.831 159.714 144.945 159.723 145.1 159.732C145.264 159.751 145.378 159.76 145.441 159.76C146.016 159.76 146.503 159.682 146.904 159.527C147.305 159.382 147.643 159.131 147.916 158.775C148.199 158.429 148.44 157.951 148.641 157.34L149.693 154.469ZM146.672 141.207L150.514 152.691L151.17 155.357L149.352 156.287L143.91 141.207H146.672ZM171.938 141.207V143.148H163.939V141.207H171.938ZM166.646 137.611H169.176V152.336C169.176 152.837 169.253 153.215 169.408 153.471C169.563 153.726 169.764 153.895 170.01 153.977C170.256 154.059 170.52 154.1 170.803 154.1C171.012 154.1 171.231 154.081 171.459 154.045C171.696 153.999 171.874 153.963 171.992 153.936L172.006 156C171.805 156.064 171.541 156.123 171.213 156.178C170.894 156.242 170.507 156.273 170.051 156.273C169.431 156.273 168.861 156.15 168.342 155.904C167.822 155.658 167.408 155.248 167.098 154.674C166.797 154.09 166.646 153.307 166.646 152.322V137.611ZM173.961 148.768V148.453C173.961 147.387 174.116 146.398 174.426 145.486C174.736 144.566 175.182 143.768 175.766 143.094C176.349 142.41 177.055 141.882 177.885 141.508C178.714 141.125 179.644 140.934 180.674 140.934C181.713 140.934 182.647 141.125 183.477 141.508C184.315 141.882 185.026 142.41 185.609 143.094C186.202 143.768 186.653 144.566 186.963 145.486C187.273 146.398 187.428 147.387 187.428 148.453V148.768C187.428 149.834 187.273 150.823 186.963 151.734C186.653 152.646 186.202 153.443 185.609 154.127C185.026 154.801 184.32 155.33 183.49 155.713C182.67 156.087 181.74 156.273 180.701 156.273C179.662 156.273 178.728 156.087 177.898 155.713C177.069 155.33 176.358 154.801 175.766 154.127C175.182 153.443 174.736 152.646 174.426 151.734C174.116 150.823 173.961 149.834 173.961 148.768ZM176.49 148.453V148.768C176.49 149.506 176.577 150.203 176.75 150.859C176.923 151.507 177.183 152.081 177.529 152.582C177.885 153.083 178.327 153.48 178.855 153.771C179.384 154.054 179.999 154.195 180.701 154.195C181.394 154.195 182 154.054 182.52 153.771C183.048 153.48 183.486 153.083 183.832 152.582C184.178 152.081 184.438 151.507 184.611 150.859C184.794 150.203 184.885 149.506 184.885 148.768V148.453C184.885 147.724 184.794 147.036 184.611 146.389C184.438 145.732 184.174 145.154 183.818 144.652C183.472 144.142 183.035 143.741 182.506 143.449C181.986 143.158 181.376 143.012 180.674 143.012C179.981 143.012 179.37 143.158 178.842 143.449C178.322 143.741 177.885 144.142 177.529 144.652C177.183 145.154 176.923 145.732 176.75 146.389C176.577 147.036 176.49 147.724 176.49 148.453ZM200.061 144.146V156H197.518V141.207H199.924L200.061 144.146ZM199.541 148.043L198.365 148.002C198.374 146.99 198.507 146.056 198.762 145.199C199.017 144.333 199.395 143.581 199.896 142.943C200.398 142.305 201.022 141.813 201.77 141.467C202.517 141.111 203.383 140.934 204.367 140.934C205.06 140.934 205.698 141.034 206.281 141.234C206.865 141.426 207.37 141.731 207.799 142.15C208.227 142.57 208.56 143.107 208.797 143.764C209.034 144.42 209.152 145.213 209.152 146.143V156H206.623V146.266C206.623 145.491 206.491 144.871 206.227 144.406C205.971 143.941 205.607 143.604 205.133 143.395C204.659 143.176 204.103 143.066 203.465 143.066C202.717 143.066 202.093 143.199 201.592 143.463C201.09 143.727 200.689 144.092 200.389 144.557C200.088 145.021 199.869 145.555 199.732 146.156C199.605 146.749 199.541 147.378 199.541 148.043ZM209.125 146.648L207.43 147.168C207.439 146.357 207.571 145.577 207.826 144.83C208.09 144.083 208.469 143.417 208.961 142.834C209.462 142.251 210.077 141.79 210.807 141.453C211.536 141.107 212.37 140.934 213.309 140.934C214.102 140.934 214.803 141.038 215.414 141.248C216.034 141.458 216.553 141.781 216.973 142.219C217.401 142.647 217.725 143.199 217.943 143.873C218.162 144.548 218.271 145.35 218.271 146.279V156H215.729V146.252C215.729 145.423 215.596 144.78 215.332 144.324C215.077 143.859 214.712 143.536 214.238 143.354C213.773 143.162 213.217 143.066 212.57 143.066C212.014 143.066 211.522 143.162 211.094 143.354C210.665 143.545 210.305 143.809 210.014 144.146C209.722 144.475 209.499 144.853 209.344 145.281C209.198 145.71 209.125 146.165 209.125 146.648ZM230.822 153.471V145.855C230.822 145.272 230.704 144.766 230.467 144.338C230.239 143.9 229.893 143.563 229.428 143.326C228.963 143.089 228.389 142.971 227.705 142.971C227.067 142.971 226.507 143.08 226.023 143.299C225.549 143.518 225.176 143.805 224.902 144.16C224.638 144.516 224.506 144.898 224.506 145.309H221.977C221.977 144.78 222.113 144.256 222.387 143.736C222.66 143.217 223.052 142.747 223.562 142.328C224.082 141.9 224.702 141.562 225.422 141.316C226.151 141.061 226.962 140.934 227.855 140.934C228.931 140.934 229.879 141.116 230.699 141.48C231.529 141.845 232.176 142.396 232.641 143.135C233.115 143.864 233.352 144.78 233.352 145.883V152.773C233.352 153.266 233.393 153.79 233.475 154.346C233.566 154.902 233.698 155.38 233.871 155.781V156H231.232C231.105 155.708 231.005 155.321 230.932 154.838C230.859 154.346 230.822 153.89 230.822 153.471ZM231.26 147.031L231.287 148.809H228.73C228.01 148.809 227.368 148.868 226.803 148.986C226.238 149.096 225.764 149.264 225.381 149.492C224.998 149.72 224.706 150.007 224.506 150.354C224.305 150.691 224.205 151.087 224.205 151.543C224.205 152.008 224.31 152.432 224.52 152.814C224.729 153.197 225.044 153.503 225.463 153.73C225.891 153.949 226.415 154.059 227.035 154.059C227.81 154.059 228.493 153.895 229.086 153.566C229.678 153.238 230.148 152.837 230.494 152.363C230.85 151.889 231.041 151.429 231.068 150.982L232.148 152.199C232.085 152.582 231.911 153.006 231.629 153.471C231.346 153.936 230.968 154.382 230.494 154.811C230.029 155.23 229.473 155.581 228.826 155.863C228.188 156.137 227.468 156.273 226.666 156.273C225.663 156.273 224.784 156.077 224.027 155.686C223.28 155.294 222.697 154.77 222.277 154.113C221.867 153.448 221.662 152.705 221.662 151.885C221.662 151.092 221.817 150.395 222.127 149.793C222.437 149.182 222.883 148.676 223.467 148.275C224.05 147.865 224.752 147.555 225.572 147.346C226.393 147.136 227.309 147.031 228.32 147.031H231.26ZM239.859 144.365V156H237.33V141.207H239.723L239.859 144.365ZM239.258 148.043L238.205 148.002C238.214 146.99 238.365 146.056 238.656 145.199C238.948 144.333 239.358 143.581 239.887 142.943C240.415 142.305 241.044 141.813 241.773 141.467C242.512 141.111 243.327 140.934 244.221 140.934C244.95 140.934 245.606 141.034 246.189 141.234C246.773 141.426 247.27 141.736 247.68 142.164C248.099 142.592 248.418 143.148 248.637 143.832C248.855 144.507 248.965 145.331 248.965 146.307V156H246.422V146.279C246.422 145.505 246.308 144.885 246.08 144.42C245.852 143.946 245.52 143.604 245.082 143.395C244.645 143.176 244.107 143.066 243.469 143.066C242.84 143.066 242.266 143.199 241.746 143.463C241.236 143.727 240.794 144.092 240.42 144.557C240.055 145.021 239.768 145.555 239.559 146.156C239.358 146.749 239.258 147.378 239.258 148.043ZM261.529 153.471V145.855C261.529 145.272 261.411 144.766 261.174 144.338C260.946 143.9 260.6 143.563 260.135 143.326C259.67 143.089 259.096 142.971 258.412 142.971C257.774 142.971 257.214 143.08 256.73 143.299C256.257 143.518 255.883 143.805 255.609 144.16C255.345 144.516 255.213 144.898 255.213 145.309H252.684C252.684 144.78 252.82 144.256 253.094 143.736C253.367 143.217 253.759 142.747 254.27 142.328C254.789 141.9 255.409 141.562 256.129 141.316C256.858 141.061 257.669 140.934 258.562 140.934C259.638 140.934 260.586 141.116 261.406 141.48C262.236 141.845 262.883 142.396 263.348 143.135C263.822 143.864 264.059 144.78 264.059 145.883V152.773C264.059 153.266 264.1 153.79 264.182 154.346C264.273 154.902 264.405 155.38 264.578 155.781V156H261.939C261.812 155.708 261.712 155.321 261.639 154.838C261.566 154.346 261.529 153.89 261.529 153.471ZM261.967 147.031L261.994 148.809H259.438C258.717 148.809 258.075 148.868 257.51 148.986C256.945 149.096 256.471 149.264 256.088 149.492C255.705 149.72 255.413 150.007 255.213 150.354C255.012 150.691 254.912 151.087 254.912 151.543C254.912 152.008 255.017 152.432 255.227 152.814C255.436 153.197 255.751 153.503 256.17 153.73C256.598 153.949 257.122 154.059 257.742 154.059C258.517 154.059 259.201 153.895 259.793 153.566C260.385 153.238 260.855 152.837 261.201 152.363C261.557 151.889 261.748 151.429 261.775 150.982L262.855 152.199C262.792 152.582 262.618 153.006 262.336 153.471C262.053 153.936 261.675 154.382 261.201 154.811C260.736 155.23 260.18 155.581 259.533 155.863C258.895 156.137 258.175 156.273 257.373 156.273C256.37 156.273 255.491 156.077 254.734 155.686C253.987 155.294 253.404 154.77 252.984 154.113C252.574 153.448 252.369 152.705 252.369 151.885C252.369 151.092 252.524 150.395 252.834 149.793C253.144 149.182 253.59 148.676 254.174 148.275C254.757 147.865 255.459 147.555 256.279 147.346C257.1 147.136 258.016 147.031 259.027 147.031H261.967ZM277.621 141.207H279.918V155.686C279.918 156.989 279.654 158.101 279.125 159.021C278.596 159.942 277.858 160.639 276.91 161.113C275.971 161.596 274.887 161.838 273.656 161.838C273.146 161.838 272.544 161.756 271.852 161.592C271.168 161.437 270.493 161.168 269.828 160.785C269.172 160.411 268.62 159.906 268.174 159.268L269.5 157.764C270.12 158.511 270.767 159.031 271.441 159.322C272.125 159.614 272.799 159.76 273.465 159.76C274.267 159.76 274.96 159.609 275.543 159.309C276.126 159.008 276.577 158.561 276.896 157.969C277.225 157.385 277.389 156.665 277.389 155.809V144.461L277.621 141.207ZM267.436 148.768V148.48C267.436 147.35 267.568 146.325 267.832 145.404C268.105 144.475 268.493 143.677 268.994 143.012C269.505 142.346 270.12 141.836 270.84 141.48C271.56 141.116 272.371 140.934 273.273 140.934C274.203 140.934 275.014 141.098 275.707 141.426C276.409 141.745 277.001 142.214 277.484 142.834C277.977 143.445 278.364 144.183 278.646 145.049C278.929 145.915 279.125 146.895 279.234 147.988V149.246C279.134 150.331 278.938 151.306 278.646 152.172C278.364 153.038 277.977 153.776 277.484 154.387C277.001 154.997 276.409 155.467 275.707 155.795C275.005 156.114 274.185 156.273 273.246 156.273C272.362 156.273 271.56 156.087 270.84 155.713C270.129 155.339 269.518 154.815 269.008 154.141C268.497 153.466 268.105 152.673 267.832 151.762C267.568 150.841 267.436 149.843 267.436 148.768ZM269.965 148.48V148.768C269.965 149.506 270.038 150.199 270.184 150.846C270.339 151.493 270.571 152.062 270.881 152.555C271.2 153.047 271.605 153.434 272.098 153.717C272.59 153.99 273.178 154.127 273.861 154.127C274.7 154.127 275.393 153.949 275.939 153.594C276.486 153.238 276.919 152.769 277.238 152.186C277.566 151.602 277.822 150.969 278.004 150.285V146.99C277.904 146.489 277.749 146.006 277.539 145.541C277.339 145.067 277.074 144.648 276.746 144.283C276.427 143.91 276.031 143.613 275.557 143.395C275.083 143.176 274.527 143.066 273.889 143.066C273.196 143.066 272.599 143.212 272.098 143.504C271.605 143.786 271.2 144.178 270.881 144.68C270.571 145.172 270.339 145.746 270.184 146.402C270.038 147.049 269.965 147.742 269.965 148.48ZM289.898 156.273C288.868 156.273 287.934 156.1 287.096 155.754C286.266 155.398 285.551 154.902 284.949 154.264C284.357 153.626 283.901 152.869 283.582 151.994C283.263 151.119 283.104 150.162 283.104 149.123V148.549C283.104 147.346 283.281 146.275 283.637 145.336C283.992 144.388 284.475 143.586 285.086 142.93C285.697 142.273 286.389 141.777 287.164 141.439C287.939 141.102 288.741 140.934 289.57 140.934C290.628 140.934 291.539 141.116 292.305 141.48C293.079 141.845 293.713 142.355 294.205 143.012C294.697 143.659 295.062 144.424 295.299 145.309C295.536 146.184 295.654 147.141 295.654 148.18V149.314H284.607V147.25H293.125V147.059C293.089 146.402 292.952 145.764 292.715 145.145C292.487 144.525 292.122 144.014 291.621 143.613C291.12 143.212 290.436 143.012 289.57 143.012C288.996 143.012 288.467 143.135 287.984 143.381C287.501 143.618 287.087 143.973 286.74 144.447C286.394 144.921 286.125 145.5 285.934 146.184C285.742 146.867 285.646 147.656 285.646 148.549V149.123C285.646 149.825 285.742 150.486 285.934 151.105C286.134 151.716 286.421 152.254 286.795 152.719C287.178 153.184 287.638 153.548 288.176 153.812C288.723 154.077 289.342 154.209 290.035 154.209C290.928 154.209 291.685 154.027 292.305 153.662C292.924 153.298 293.467 152.81 293.932 152.199L295.463 153.416C295.144 153.899 294.738 154.359 294.246 154.797C293.754 155.234 293.148 155.59 292.428 155.863C291.717 156.137 290.874 156.273 289.898 156.273ZM309.709 154.469L313.824 141.207H316.531L310.598 158.283C310.461 158.648 310.279 159.04 310.051 159.459C309.832 159.887 309.549 160.293 309.203 160.676C308.857 161.059 308.438 161.368 307.945 161.605C307.462 161.852 306.883 161.975 306.209 161.975C306.008 161.975 305.753 161.947 305.443 161.893C305.133 161.838 304.915 161.792 304.787 161.756L304.773 159.705C304.846 159.714 304.96 159.723 305.115 159.732C305.279 159.751 305.393 159.76 305.457 159.76C306.031 159.76 306.519 159.682 306.92 159.527C307.321 159.382 307.658 159.131 307.932 158.775C308.214 158.429 308.456 157.951 308.656 157.34L309.709 154.469ZM306.688 141.207L310.529 152.691L311.186 155.357L309.367 156.287L303.926 141.207H306.688ZM317.926 148.768V148.453C317.926 147.387 318.081 146.398 318.391 145.486C318.701 144.566 319.147 143.768 319.73 143.094C320.314 142.41 321.02 141.882 321.85 141.508C322.679 141.125 323.609 140.934 324.639 140.934C325.678 140.934 326.612 141.125 327.441 141.508C328.28 141.882 328.991 142.41 329.574 143.094C330.167 143.768 330.618 144.566 330.928 145.486C331.238 146.398 331.393 147.387 331.393 148.453V148.768C331.393 149.834 331.238 150.823 330.928 151.734C330.618 152.646 330.167 153.443 329.574 154.127C328.991 154.801 328.285 155.33 327.455 155.713C326.635 156.087 325.705 156.273 324.666 156.273C323.627 156.273 322.693 156.087 321.863 155.713C321.034 155.33 320.323 154.801 319.73 154.127C319.147 153.443 318.701 152.646 318.391 151.734C318.081 150.823 317.926 149.834 317.926 148.768ZM320.455 148.453V148.768C320.455 149.506 320.542 150.203 320.715 150.859C320.888 151.507 321.148 152.081 321.494 152.582C321.85 153.083 322.292 153.48 322.82 153.771C323.349 154.054 323.964 154.195 324.666 154.195C325.359 154.195 325.965 154.054 326.484 153.771C327.013 153.48 327.451 153.083 327.797 152.582C328.143 152.081 328.403 151.507 328.576 150.859C328.758 150.203 328.85 149.506 328.85 148.768V148.453C328.85 147.724 328.758 147.036 328.576 146.389C328.403 145.732 328.139 145.154 327.783 144.652C327.437 144.142 326.999 143.741 326.471 143.449C325.951 143.158 325.34 143.012 324.639 143.012C323.946 143.012 323.335 143.158 322.807 143.449C322.287 143.741 321.85 144.142 321.494 144.652C321.148 145.154 320.888 145.732 320.715 146.389C320.542 147.036 320.455 147.724 320.455 148.453ZM343.615 152.582V141.207H346.158V156H343.738L343.615 152.582ZM344.094 149.465L345.146 149.438C345.146 150.422 345.042 151.333 344.832 152.172C344.632 153.001 344.303 153.721 343.848 154.332C343.392 154.943 342.795 155.421 342.057 155.768C341.318 156.105 340.421 156.273 339.363 156.273C338.643 156.273 337.982 156.169 337.381 155.959C336.788 155.749 336.278 155.426 335.85 154.988C335.421 154.551 335.089 153.981 334.852 153.279C334.624 152.577 334.51 151.734 334.51 150.75V141.207H337.039V150.777C337.039 151.443 337.112 151.994 337.258 152.432C337.413 152.86 337.618 153.202 337.873 153.457C338.137 153.703 338.429 153.876 338.748 153.977C339.076 154.077 339.413 154.127 339.76 154.127C340.835 154.127 341.688 153.922 342.316 153.512C342.945 153.092 343.396 152.532 343.67 151.83C343.952 151.119 344.094 150.331 344.094 149.465ZM352.543 143.531V156H350.014V141.207H352.475L352.543 143.531ZM357.164 141.125L357.15 143.477C356.941 143.431 356.74 143.404 356.549 143.395C356.367 143.376 356.157 143.367 355.92 143.367C355.337 143.367 354.822 143.458 354.375 143.641C353.928 143.823 353.55 144.078 353.24 144.406C352.93 144.734 352.684 145.126 352.502 145.582C352.329 146.029 352.215 146.521 352.16 147.059L351.449 147.469C351.449 146.576 351.536 145.737 351.709 144.953C351.891 144.169 352.169 143.477 352.543 142.875C352.917 142.264 353.391 141.79 353.965 141.453C354.548 141.107 355.241 140.934 356.043 140.934C356.225 140.934 356.435 140.956 356.672 141.002C356.909 141.038 357.073 141.079 357.164 141.125ZM376.031 141.207H378.328V155.686C378.328 156.989 378.064 158.101 377.535 159.021C377.007 159.942 376.268 160.639 375.32 161.113C374.382 161.596 373.297 161.838 372.066 161.838C371.556 161.838 370.954 161.756 370.262 161.592C369.578 161.437 368.904 161.168 368.238 160.785C367.582 160.411 367.031 159.906 366.584 159.268L367.91 157.764C368.53 158.511 369.177 159.031 369.852 159.322C370.535 159.614 371.21 159.76 371.875 159.76C372.677 159.76 373.37 159.609 373.953 159.309C374.536 159.008 374.988 158.561 375.307 157.969C375.635 157.385 375.799 156.665 375.799 155.809V144.461L376.031 141.207ZM365.846 148.768V148.48C365.846 147.35 365.978 146.325 366.242 145.404C366.516 144.475 366.903 143.677 367.404 143.012C367.915 142.346 368.53 141.836 369.25 141.48C369.97 141.116 370.781 140.934 371.684 140.934C372.613 140.934 373.424 141.098 374.117 141.426C374.819 141.745 375.411 142.214 375.895 142.834C376.387 143.445 376.774 144.183 377.057 145.049C377.339 145.915 377.535 146.895 377.645 147.988V149.246C377.544 150.331 377.348 151.306 377.057 152.172C376.774 153.038 376.387 153.776 375.895 154.387C375.411 154.997 374.819 155.467 374.117 155.795C373.415 156.114 372.595 156.273 371.656 156.273C370.772 156.273 369.97 156.087 369.25 155.713C368.539 155.339 367.928 154.815 367.418 154.141C366.908 153.466 366.516 152.673 366.242 151.762C365.978 150.841 365.846 149.843 365.846 148.768ZM368.375 148.48V148.768C368.375 149.506 368.448 150.199 368.594 150.846C368.749 151.493 368.981 152.062 369.291 152.555C369.61 153.047 370.016 153.434 370.508 153.717C371 153.99 371.588 154.127 372.271 154.127C373.11 154.127 373.803 153.949 374.35 153.594C374.896 153.238 375.329 152.769 375.648 152.186C375.977 151.602 376.232 150.969 376.414 150.285V146.99C376.314 146.489 376.159 146.006 375.949 145.541C375.749 145.067 375.484 144.648 375.156 144.283C374.837 143.91 374.441 143.613 373.967 143.395C373.493 143.176 372.937 143.066 372.299 143.066C371.606 143.066 371.009 143.212 370.508 143.504C370.016 143.786 369.61 144.178 369.291 144.68C368.981 145.172 368.749 145.746 368.594 146.402C368.448 147.049 368.375 147.742 368.375 148.48ZM384.918 135V156H382.375V135H384.918ZM388.309 148.768V148.453C388.309 147.387 388.464 146.398 388.773 145.486C389.083 144.566 389.53 143.768 390.113 143.094C390.697 142.41 391.403 141.882 392.232 141.508C393.062 141.125 393.992 140.934 395.021 140.934C396.061 140.934 396.995 141.125 397.824 141.508C398.663 141.882 399.374 142.41 399.957 143.094C400.549 143.768 401.001 144.566 401.311 145.486C401.62 146.398 401.775 147.387 401.775 148.453V148.768C401.775 149.834 401.62 150.823 401.311 151.734C401.001 152.646 400.549 153.443 399.957 154.127C399.374 154.801 398.667 155.33 397.838 155.713C397.018 156.087 396.088 156.273 395.049 156.273C394.01 156.273 393.076 156.087 392.246 155.713C391.417 155.33 390.706 154.801 390.113 154.127C389.53 153.443 389.083 152.646 388.773 151.734C388.464 150.823 388.309 149.834 388.309 148.768ZM390.838 148.453V148.768C390.838 149.506 390.924 150.203 391.098 150.859C391.271 151.507 391.531 152.081 391.877 152.582C392.232 153.083 392.674 153.48 393.203 153.771C393.732 154.054 394.347 154.195 395.049 154.195C395.742 154.195 396.348 154.054 396.867 153.771C397.396 153.48 397.833 153.083 398.18 152.582C398.526 152.081 398.786 151.507 398.959 150.859C399.141 150.203 399.232 149.506 399.232 148.768V148.453C399.232 147.724 399.141 147.036 398.959 146.389C398.786 145.732 398.521 145.154 398.166 144.652C397.82 144.142 397.382 143.741 396.854 143.449C396.334 143.158 395.723 143.012 395.021 143.012C394.329 143.012 393.718 143.158 393.189 143.449C392.67 143.741 392.232 144.142 391.877 144.652C391.531 145.154 391.271 145.732 391.098 146.389C390.924 147.036 390.838 147.724 390.838 148.453ZM404.934 135H407.477V153.129L407.258 156H404.934V135ZM417.471 148.48V148.768C417.471 149.843 417.343 150.841 417.088 151.762C416.833 152.673 416.459 153.466 415.967 154.141C415.475 154.815 414.873 155.339 414.162 155.713C413.451 156.087 412.635 156.273 411.715 156.273C410.776 156.273 409.951 156.114 409.24 155.795C408.538 155.467 407.946 154.997 407.463 154.387C406.98 153.776 406.592 153.038 406.301 152.172C406.018 151.306 405.822 150.331 405.713 149.246V147.988C405.822 146.895 406.018 145.915 406.301 145.049C406.592 144.183 406.98 143.445 407.463 142.834C407.946 142.214 408.538 141.745 409.24 141.426C409.942 141.098 410.758 140.934 411.688 140.934C412.617 140.934 413.442 141.116 414.162 141.48C414.882 141.836 415.484 142.346 415.967 143.012C416.459 143.677 416.833 144.475 417.088 145.404C417.343 146.325 417.471 147.35 417.471 148.48ZM414.928 148.768V148.48C414.928 147.742 414.859 147.049 414.723 146.402C414.586 145.746 414.367 145.172 414.066 144.68C413.766 144.178 413.369 143.786 412.877 143.504C412.385 143.212 411.779 143.066 411.059 143.066C410.421 143.066 409.865 143.176 409.391 143.395C408.926 143.613 408.529 143.91 408.201 144.283C407.873 144.648 407.604 145.067 407.395 145.541C407.194 146.006 407.044 146.489 406.943 146.99V150.285C407.089 150.923 407.326 151.538 407.654 152.131C407.992 152.714 408.438 153.193 408.994 153.566C409.559 153.94 410.257 154.127 411.086 154.127C411.77 154.127 412.353 153.99 412.836 153.717C413.328 153.434 413.725 153.047 414.025 152.555C414.335 152.062 414.563 151.493 414.709 150.846C414.855 150.199 414.928 149.506 414.928 148.768ZM429.393 153.471V145.855C429.393 145.272 429.274 144.766 429.037 144.338C428.809 143.9 428.463 143.563 427.998 143.326C427.533 143.089 426.959 142.971 426.275 142.971C425.637 142.971 425.077 143.08 424.594 143.299C424.12 143.518 423.746 143.805 423.473 144.16C423.208 144.516 423.076 144.898 423.076 145.309H420.547C420.547 144.78 420.684 144.256 420.957 143.736C421.23 143.217 421.622 142.747 422.133 142.328C422.652 141.9 423.272 141.562 423.992 141.316C424.721 141.061 425.533 140.934 426.426 140.934C427.501 140.934 428.449 141.116 429.27 141.48C430.099 141.845 430.746 142.396 431.211 143.135C431.685 143.864 431.922 144.78 431.922 145.883V152.773C431.922 153.266 431.963 153.79 432.045 154.346C432.136 154.902 432.268 155.38 432.441 155.781V156H429.803C429.675 155.708 429.575 155.321 429.502 154.838C429.429 154.346 429.393 153.89 429.393 153.471ZM429.83 147.031L429.857 148.809H427.301C426.581 148.809 425.938 148.868 425.373 148.986C424.808 149.096 424.334 149.264 423.951 149.492C423.568 149.72 423.277 150.007 423.076 150.354C422.876 150.691 422.775 151.087 422.775 151.543C422.775 152.008 422.88 152.432 423.09 152.814C423.299 153.197 423.614 153.503 424.033 153.73C424.462 153.949 424.986 154.059 425.605 154.059C426.38 154.059 427.064 153.895 427.656 153.566C428.249 153.238 428.718 152.837 429.064 152.363C429.42 151.889 429.611 151.429 429.639 150.982L430.719 152.199C430.655 152.582 430.482 153.006 430.199 153.471C429.917 153.936 429.538 154.382 429.064 154.811C428.6 155.23 428.044 155.581 427.396 155.863C426.758 156.137 426.038 156.273 425.236 156.273C424.234 156.273 423.354 156.077 422.598 155.686C421.85 155.294 421.267 154.77 420.848 154.113C420.438 153.448 420.232 152.705 420.232 151.885C420.232 151.092 420.387 150.395 420.697 149.793C421.007 149.182 421.454 148.676 422.037 148.275C422.62 147.865 423.322 147.555 424.143 147.346C424.963 147.136 425.879 147.031 426.891 147.031H429.83ZM438.648 135V156H436.105V135H438.648ZM458.268 152.076C458.268 151.712 458.186 151.374 458.021 151.064C457.867 150.745 457.543 150.458 457.051 150.203C456.568 149.939 455.839 149.711 454.863 149.52C454.043 149.346 453.3 149.141 452.635 148.904C451.979 148.667 451.418 148.38 450.953 148.043C450.497 147.706 450.146 147.309 449.9 146.854C449.654 146.398 449.531 145.865 449.531 145.254C449.531 144.671 449.659 144.119 449.914 143.6C450.178 143.08 450.548 142.62 451.021 142.219C451.505 141.818 452.083 141.503 452.758 141.275C453.432 141.048 454.184 140.934 455.014 140.934C456.199 140.934 457.21 141.143 458.049 141.562C458.887 141.982 459.53 142.542 459.977 143.244C460.423 143.937 460.646 144.707 460.646 145.555H458.117C458.117 145.145 457.994 144.748 457.748 144.365C457.511 143.973 457.16 143.65 456.695 143.395C456.24 143.139 455.679 143.012 455.014 143.012C454.312 143.012 453.742 143.121 453.305 143.34C452.876 143.549 452.562 143.818 452.361 144.146C452.17 144.475 452.074 144.821 452.074 145.186C452.074 145.459 452.12 145.705 452.211 145.924C452.311 146.133 452.484 146.329 452.73 146.512C452.977 146.685 453.323 146.849 453.77 147.004C454.216 147.159 454.786 147.314 455.479 147.469C456.691 147.742 457.689 148.07 458.473 148.453C459.257 148.836 459.84 149.305 460.223 149.861C460.605 150.417 460.797 151.092 460.797 151.885C460.797 152.532 460.66 153.124 460.387 153.662C460.122 154.2 459.735 154.665 459.225 155.057C458.723 155.439 458.122 155.74 457.42 155.959C456.727 156.169 455.948 156.273 455.082 156.273C453.779 156.273 452.676 156.041 451.773 155.576C450.871 155.111 450.188 154.51 449.723 153.771C449.258 153.033 449.025 152.254 449.025 151.434H451.568C451.605 152.126 451.805 152.678 452.17 153.088C452.535 153.489 452.981 153.776 453.51 153.949C454.038 154.113 454.562 154.195 455.082 154.195C455.775 154.195 456.354 154.104 456.818 153.922C457.292 153.74 457.652 153.489 457.898 153.17C458.145 152.851 458.268 152.486 458.268 152.076ZM470.312 141.207V143.148H462.314V141.207H470.312ZM465.021 137.611H467.551V152.336C467.551 152.837 467.628 153.215 467.783 153.471C467.938 153.726 468.139 153.895 468.385 153.977C468.631 154.059 468.895 154.1 469.178 154.1C469.387 154.1 469.606 154.081 469.834 154.045C470.071 153.999 470.249 153.963 470.367 153.936L470.381 156C470.18 156.064 469.916 156.123 469.588 156.178C469.269 156.242 468.882 156.273 468.426 156.273C467.806 156.273 467.236 156.15 466.717 155.904C466.197 155.658 465.783 155.248 465.473 154.674C465.172 154.09 465.021 153.307 465.021 152.322V137.611ZM482.002 153.471V145.855C482.002 145.272 481.883 144.766 481.646 144.338C481.419 143.9 481.072 143.563 480.607 143.326C480.143 143.089 479.568 142.971 478.885 142.971C478.247 142.971 477.686 143.08 477.203 143.299C476.729 143.518 476.355 143.805 476.082 144.16C475.818 144.516 475.686 144.898 475.686 145.309H473.156C473.156 144.78 473.293 144.256 473.566 143.736C473.84 143.217 474.232 142.747 474.742 142.328C475.262 141.9 475.882 141.562 476.602 141.316C477.331 141.061 478.142 140.934 479.035 140.934C480.111 140.934 481.059 141.116 481.879 141.48C482.708 141.845 483.355 142.396 483.82 143.135C484.294 143.864 484.531 144.78 484.531 145.883V152.773C484.531 153.266 484.572 153.79 484.654 154.346C484.745 154.902 484.878 155.38 485.051 155.781V156H482.412C482.285 155.708 482.184 155.321 482.111 154.838C482.038 154.346 482.002 153.89 482.002 153.471ZM482.439 147.031L482.467 148.809H479.91C479.19 148.809 478.548 148.868 477.982 148.986C477.417 149.096 476.943 149.264 476.561 149.492C476.178 149.72 475.886 150.007 475.686 150.354C475.485 150.691 475.385 151.087 475.385 151.543C475.385 152.008 475.49 152.432 475.699 152.814C475.909 153.197 476.223 153.503 476.643 153.73C477.071 153.949 477.595 154.059 478.215 154.059C478.99 154.059 479.673 153.895 480.266 153.566C480.858 153.238 481.327 152.837 481.674 152.363C482.029 151.889 482.221 151.429 482.248 150.982L483.328 152.199C483.264 152.582 483.091 153.006 482.809 153.471C482.526 153.936 482.148 154.382 481.674 154.811C481.209 155.23 480.653 155.581 480.006 155.863C479.368 156.137 478.648 156.273 477.846 156.273C476.843 156.273 475.964 156.077 475.207 155.686C474.46 155.294 473.876 154.77 473.457 154.113C473.047 153.448 472.842 152.705 472.842 151.885C472.842 151.092 472.997 150.395 473.307 149.793C473.617 149.182 474.063 148.676 474.646 148.275C475.23 147.865 475.932 147.555 476.752 147.346C477.572 147.136 478.488 147.031 479.5 147.031H482.439ZM494.703 141.207V143.148H486.705V141.207H494.703ZM489.412 137.611H491.941V152.336C491.941 152.837 492.019 153.215 492.174 153.471C492.329 153.726 492.529 153.895 492.775 153.977C493.021 154.059 493.286 154.1 493.568 154.1C493.778 154.1 493.997 154.081 494.225 154.045C494.462 153.999 494.639 153.963 494.758 153.936L494.771 156C494.571 156.064 494.307 156.123 493.979 156.178C493.66 156.242 493.272 156.273 492.816 156.273C492.197 156.273 491.627 156.15 491.107 155.904C490.588 155.658 490.173 155.248 489.863 154.674C489.562 154.09 489.412 153.307 489.412 152.322V137.611ZM503.809 156.273C502.779 156.273 501.844 156.1 501.006 155.754C500.176 155.398 499.461 154.902 498.859 154.264C498.267 153.626 497.811 152.869 497.492 151.994C497.173 151.119 497.014 150.162 497.014 149.123V148.549C497.014 147.346 497.191 146.275 497.547 145.336C497.902 144.388 498.385 143.586 498.996 142.93C499.607 142.273 500.299 141.777 501.074 141.439C501.849 141.102 502.651 140.934 503.48 140.934C504.538 140.934 505.449 141.116 506.215 141.48C506.99 141.845 507.623 142.355 508.115 143.012C508.607 143.659 508.972 144.424 509.209 145.309C509.446 146.184 509.564 147.141 509.564 148.18V149.314H498.518V147.25H507.035V147.059C506.999 146.402 506.862 145.764 506.625 145.145C506.397 144.525 506.033 144.014 505.531 143.613C505.03 143.212 504.346 143.012 503.48 143.012C502.906 143.012 502.378 143.135 501.895 143.381C501.411 143.618 500.997 143.973 500.65 144.447C500.304 144.921 500.035 145.5 499.844 146.184C499.652 146.867 499.557 147.656 499.557 148.549V149.123C499.557 149.825 499.652 150.486 499.844 151.105C500.044 151.716 500.331 152.254 500.705 152.719C501.088 153.184 501.548 153.548 502.086 153.812C502.633 154.077 503.253 154.209 503.945 154.209C504.839 154.209 505.595 154.027 506.215 153.662C506.835 153.298 507.377 152.81 507.842 152.199L509.373 153.416C509.054 153.899 508.648 154.359 508.156 154.797C507.664 155.234 507.058 155.59 506.338 155.863C505.627 156.137 504.784 156.273 503.809 156.273ZM514.814 152.992V155.029C514.814 155.859 514.605 156.734 514.186 157.654C513.766 158.584 513.178 159.359 512.422 159.979L510.986 158.98C511.278 158.579 511.524 158.169 511.725 157.75C511.925 157.34 512.076 156.911 512.176 156.465C512.285 156.027 512.34 155.562 512.34 155.07V152.992H514.814ZM525.055 141.207H527.598V157.764C527.598 158.666 527.452 159.432 527.16 160.061C526.878 160.689 526.449 161.163 525.875 161.482C525.31 161.811 524.594 161.975 523.729 161.975C523.501 161.975 523.236 161.952 522.936 161.906C522.626 161.861 522.366 161.806 522.156 161.742L522.17 159.705C522.343 159.742 522.539 159.769 522.758 159.787C522.977 159.814 523.168 159.828 523.332 159.828C523.706 159.828 524.02 159.76 524.275 159.623C524.531 159.486 524.722 159.268 524.85 158.967C524.986 158.666 525.055 158.265 525.055 157.764V141.207ZM524.795 137.283C524.795 136.873 524.923 136.527 525.178 136.244C525.433 135.962 525.802 135.82 526.285 135.82C526.777 135.82 527.151 135.962 527.406 136.244C527.661 136.527 527.789 136.873 527.789 137.283C527.789 137.675 527.661 138.012 527.406 138.295C527.151 138.568 526.777 138.705 526.285 138.705C525.802 138.705 525.433 138.568 525.178 138.295C524.923 138.012 524.795 137.675 524.795 137.283ZM540.736 152.582V141.207H543.279V156H540.859L540.736 152.582ZM541.215 149.465L542.268 149.438C542.268 150.422 542.163 151.333 541.953 152.172C541.753 153.001 541.424 153.721 540.969 154.332C540.513 154.943 539.916 155.421 539.178 155.768C538.439 156.105 537.542 156.273 536.484 156.273C535.764 156.273 535.104 156.169 534.502 155.959C533.91 155.749 533.399 155.426 532.971 154.988C532.542 154.551 532.21 153.981 531.973 153.279C531.745 152.577 531.631 151.734 531.631 150.75V141.207H534.16V150.777C534.16 151.443 534.233 151.994 534.379 152.432C534.534 152.86 534.739 153.202 534.994 153.457C535.258 153.703 535.55 153.876 535.869 153.977C536.197 154.077 536.535 154.127 536.881 154.127C537.956 154.127 538.809 153.922 539.438 153.512C540.066 153.092 540.518 152.532 540.791 151.83C541.074 151.119 541.215 150.331 541.215 149.465ZM555.748 152.076C555.748 151.712 555.666 151.374 555.502 151.064C555.347 150.745 555.023 150.458 554.531 150.203C554.048 149.939 553.319 149.711 552.344 149.52C551.523 149.346 550.781 149.141 550.115 148.904C549.459 148.667 548.898 148.38 548.434 148.043C547.978 147.706 547.627 147.309 547.381 146.854C547.135 146.398 547.012 145.865 547.012 145.254C547.012 144.671 547.139 144.119 547.395 143.6C547.659 143.08 548.028 142.62 548.502 142.219C548.985 141.818 549.564 141.503 550.238 141.275C550.913 141.048 551.665 140.934 552.494 140.934C553.679 140.934 554.691 141.143 555.529 141.562C556.368 141.982 557.01 142.542 557.457 143.244C557.904 143.937 558.127 144.707 558.127 145.555H555.598C555.598 145.145 555.475 144.748 555.229 144.365C554.992 143.973 554.641 143.65 554.176 143.395C553.72 143.139 553.16 143.012 552.494 143.012C551.792 143.012 551.223 143.121 550.785 143.34C550.357 143.549 550.042 143.818 549.842 144.146C549.65 144.475 549.555 144.821 549.555 145.186C549.555 145.459 549.6 145.705 549.691 145.924C549.792 146.133 549.965 146.329 550.211 146.512C550.457 146.685 550.803 146.849 551.25 147.004C551.697 147.159 552.266 147.314 552.959 147.469C554.171 147.742 555.169 148.07 555.953 148.453C556.737 148.836 557.32 149.305 557.703 149.861C558.086 150.417 558.277 151.092 558.277 151.885C558.277 152.532 558.141 153.124 557.867 153.662C557.603 154.2 557.215 154.665 556.705 155.057C556.204 155.439 555.602 155.74 554.9 155.959C554.208 156.169 553.428 156.273 552.562 156.273C551.259 156.273 550.156 156.041 549.254 155.576C548.352 155.111 547.668 154.51 547.203 153.771C546.738 153.033 546.506 152.254 546.506 151.434H549.049C549.085 152.126 549.286 152.678 549.65 153.088C550.015 153.489 550.462 153.776 550.99 153.949C551.519 154.113 552.043 154.195 552.562 154.195C553.255 154.195 553.834 154.104 554.299 153.922C554.773 153.74 555.133 153.489 555.379 153.17C555.625 152.851 555.748 152.486 555.748 152.076ZM567.793 141.207V143.148H559.795V141.207H567.793ZM562.502 137.611H565.031V152.336C565.031 152.837 565.109 153.215 565.264 153.471C565.419 153.726 565.619 153.895 565.865 153.977C566.111 154.059 566.376 154.1 566.658 154.1C566.868 154.1 567.087 154.081 567.314 154.045C567.551 153.999 567.729 153.963 567.848 153.936L567.861 156C567.661 156.064 567.396 156.123 567.068 156.178C566.749 156.242 566.362 156.273 565.906 156.273C565.286 156.273 564.717 156.15 564.197 155.904C563.678 155.658 563.263 155.248 562.953 154.674C562.652 154.09 562.502 153.307 562.502 152.322V137.611ZM580.453 135V156H577.91V135H580.453ZM587.262 141.207V156H584.719V141.207H587.262ZM584.527 137.283C584.527 136.873 584.65 136.527 584.896 136.244C585.152 135.962 585.525 135.82 586.018 135.82C586.501 135.82 586.87 135.962 587.125 136.244C587.389 136.527 587.521 136.873 587.521 137.283C587.521 137.675 587.389 138.012 587.125 138.295C586.87 138.568 586.501 138.705 586.018 138.705C585.525 138.705 585.152 138.568 584.896 138.295C584.65 138.012 584.527 137.675 584.527 137.283ZM593.865 135V156H591.322V135H593.865ZM602.902 141.207L596.449 148.111L592.84 151.857L592.635 149.164L595.219 146.074L599.812 141.207H602.902ZM600.592 156L595.314 148.945L596.627 146.689L603.572 156H600.592ZM611.379 156.273C610.349 156.273 609.415 156.1 608.576 155.754C607.747 155.398 607.031 154.902 606.43 154.264C605.837 153.626 605.382 152.869 605.062 151.994C604.743 151.119 604.584 150.162 604.584 149.123V148.549C604.584 147.346 604.762 146.275 605.117 145.336C605.473 144.388 605.956 143.586 606.566 142.93C607.177 142.273 607.87 141.777 608.645 141.439C609.419 141.102 610.221 140.934 611.051 140.934C612.108 140.934 613.02 141.116 613.785 141.48C614.56 141.845 615.193 142.355 615.686 143.012C616.178 143.659 616.542 144.424 616.779 145.309C617.016 146.184 617.135 147.141 617.135 148.18V149.314H606.088V147.25H614.605V147.059C614.569 146.402 614.432 145.764 614.195 145.145C613.967 144.525 613.603 144.014 613.102 143.613C612.6 143.212 611.917 143.012 611.051 143.012C610.477 143.012 609.948 143.135 609.465 143.381C608.982 143.618 608.567 143.973 608.221 144.447C607.874 144.921 607.605 145.5 607.414 146.184C607.223 146.867 607.127 147.656 607.127 148.549V149.123C607.127 149.825 607.223 150.486 607.414 151.105C607.615 151.716 607.902 152.254 608.275 152.719C608.658 153.184 609.118 153.548 609.656 153.812C610.203 154.077 610.823 154.209 611.516 154.209C612.409 154.209 613.165 154.027 613.785 153.662C614.405 153.298 614.947 152.81 615.412 152.199L616.943 153.416C616.624 153.899 616.219 154.359 615.727 154.797C615.234 155.234 614.628 155.59 613.908 155.863C613.197 156.137 612.354 156.273 611.379 156.273ZM636.084 152.582V141.207H638.627V156H636.207L636.084 152.582ZM636.562 149.465L637.615 149.438C637.615 150.422 637.51 151.333 637.301 152.172C637.1 153.001 636.772 153.721 636.316 154.332C635.861 154.943 635.264 155.421 634.525 155.768C633.787 156.105 632.889 156.273 631.832 156.273C631.112 156.273 630.451 156.169 629.85 155.959C629.257 155.749 628.747 155.426 628.318 154.988C627.89 154.551 627.557 153.981 627.32 153.279C627.092 152.577 626.979 151.734 626.979 150.75V141.207H629.508V150.777C629.508 151.443 629.581 151.994 629.727 152.432C629.882 152.86 630.087 153.202 630.342 153.457C630.606 153.703 630.898 153.876 631.217 153.977C631.545 154.077 631.882 154.127 632.229 154.127C633.304 154.127 634.156 153.922 634.785 153.512C635.414 153.092 635.865 152.532 636.139 151.83C636.421 151.119 636.562 150.331 636.562 149.465ZM651.096 152.076C651.096 151.712 651.014 151.374 650.85 151.064C650.695 150.745 650.371 150.458 649.879 150.203C649.396 149.939 648.667 149.711 647.691 149.52C646.871 149.346 646.128 149.141 645.463 148.904C644.807 148.667 644.246 148.38 643.781 148.043C643.326 147.706 642.975 147.309 642.729 146.854C642.482 146.398 642.359 145.865 642.359 145.254C642.359 144.671 642.487 144.119 642.742 143.6C643.007 143.08 643.376 142.62 643.85 142.219C644.333 141.818 644.911 141.503 645.586 141.275C646.26 141.048 647.012 140.934 647.842 140.934C649.027 140.934 650.038 141.143 650.877 141.562C651.715 141.982 652.358 142.542 652.805 143.244C653.251 143.937 653.475 144.707 653.475 145.555H650.945C650.945 145.145 650.822 144.748 650.576 144.365C650.339 143.973 649.988 143.65 649.523 143.395C649.068 143.139 648.507 143.012 647.842 143.012C647.14 143.012 646.57 143.121 646.133 143.34C645.704 143.549 645.39 143.818 645.189 144.146C644.998 144.475 644.902 144.821 644.902 145.186C644.902 145.459 644.948 145.705 645.039 145.924C645.139 146.133 645.312 146.329 645.559 146.512C645.805 146.685 646.151 146.849 646.598 147.004C647.044 147.159 647.614 147.314 648.307 147.469C649.519 147.742 650.517 148.07 651.301 148.453C652.085 148.836 652.668 149.305 653.051 149.861C653.434 150.417 653.625 151.092 653.625 151.885C653.625 152.532 653.488 153.124 653.215 153.662C652.951 154.2 652.563 154.665 652.053 155.057C651.551 155.439 650.95 155.74 650.248 155.959C649.555 156.169 648.776 156.273 647.91 156.273C646.607 156.273 645.504 156.041 644.602 155.576C643.699 155.111 643.016 154.51 642.551 153.771C642.086 153.033 641.854 152.254 641.854 151.434H644.396C644.433 152.126 644.633 152.678 644.998 153.088C645.363 153.489 645.809 153.776 646.338 153.949C646.867 154.113 647.391 154.195 647.91 154.195C648.603 154.195 649.182 154.104 649.646 153.922C650.12 153.74 650.48 153.489 650.727 153.17C650.973 152.851 651.096 152.486 651.096 152.076ZM659.695 141.207V156H657.152V141.207H659.695ZM656.961 137.283C656.961 136.873 657.084 136.527 657.33 136.244C657.585 135.962 657.959 135.82 658.451 135.82C658.934 135.82 659.303 135.962 659.559 136.244C659.823 136.527 659.955 136.873 659.955 137.283C659.955 137.675 659.823 138.012 659.559 138.295C659.303 138.568 658.934 138.705 658.451 138.705C657.959 138.705 657.585 138.568 657.33 138.295C657.084 138.012 656.961 137.675 656.961 137.283ZM666.285 144.365V156H663.756V141.207H666.148L666.285 144.365ZM665.684 148.043L664.631 148.002C664.64 146.99 664.79 146.056 665.082 145.199C665.374 144.333 665.784 143.581 666.312 142.943C666.841 142.305 667.47 141.813 668.199 141.467C668.938 141.111 669.753 140.934 670.646 140.934C671.376 140.934 672.032 141.034 672.615 141.234C673.199 141.426 673.695 141.736 674.105 142.164C674.525 142.592 674.844 143.148 675.062 143.832C675.281 144.507 675.391 145.331 675.391 146.307V156H672.848V146.279C672.848 145.505 672.734 144.885 672.506 144.42C672.278 143.946 671.945 143.604 671.508 143.395C671.07 143.176 670.533 143.066 669.895 143.066C669.266 143.066 668.691 143.199 668.172 143.463C667.661 143.727 667.219 144.092 666.846 144.557C666.481 145.021 666.194 145.555 665.984 146.156C665.784 146.749 665.684 147.378 665.684 148.043ZM688.816 141.207H691.113V155.686C691.113 156.989 690.849 158.101 690.32 159.021C689.792 159.942 689.053 160.639 688.105 161.113C687.167 161.596 686.082 161.838 684.852 161.838C684.341 161.838 683.74 161.756 683.047 161.592C682.363 161.437 681.689 161.168 681.023 160.785C680.367 160.411 679.816 159.906 679.369 159.268L680.695 157.764C681.315 158.511 681.962 159.031 682.637 159.322C683.32 159.614 683.995 159.76 684.66 159.76C685.462 159.76 686.155 159.609 686.738 159.309C687.322 159.008 687.773 158.561 688.092 157.969C688.42 157.385 688.584 156.665 688.584 155.809V144.461L688.816 141.207ZM678.631 148.768V148.48C678.631 147.35 678.763 146.325 679.027 145.404C679.301 144.475 679.688 143.677 680.189 143.012C680.7 142.346 681.315 141.836 682.035 141.48C682.755 141.116 683.566 140.934 684.469 140.934C685.398 140.934 686.21 141.098 686.902 141.426C687.604 141.745 688.197 142.214 688.68 142.834C689.172 143.445 689.559 144.183 689.842 145.049C690.124 145.915 690.32 146.895 690.43 147.988V149.246C690.329 150.331 690.133 151.306 689.842 152.172C689.559 153.038 689.172 153.776 688.68 154.387C688.197 154.997 687.604 155.467 686.902 155.795C686.201 156.114 685.38 156.273 684.441 156.273C683.557 156.273 682.755 156.087 682.035 155.713C681.324 155.339 680.714 154.815 680.203 154.141C679.693 153.466 679.301 152.673 679.027 151.762C678.763 150.841 678.631 149.843 678.631 148.768ZM681.16 148.48V148.768C681.16 149.506 681.233 150.199 681.379 150.846C681.534 151.493 681.766 152.062 682.076 152.555C682.395 153.047 682.801 153.434 683.293 153.717C683.785 153.99 684.373 154.127 685.057 154.127C685.895 154.127 686.588 153.949 687.135 153.594C687.682 153.238 688.115 152.769 688.434 152.186C688.762 151.602 689.017 150.969 689.199 150.285V146.99C689.099 146.489 688.944 146.006 688.734 145.541C688.534 145.067 688.27 144.648 687.941 144.283C687.622 143.91 687.226 143.613 686.752 143.395C686.278 143.176 685.722 143.066 685.084 143.066C684.391 143.066 683.794 143.212 683.293 143.504C682.801 143.786 682.395 144.178 682.076 144.68C681.766 145.172 681.534 145.746 681.379 146.402C681.233 147.049 681.16 147.742 681.16 148.48ZM708.094 141.207V143.148H700.096V141.207H708.094ZM702.803 137.611H705.332V152.336C705.332 152.837 705.41 153.215 705.564 153.471C705.719 153.726 705.92 153.895 706.166 153.977C706.412 154.059 706.676 154.1 706.959 154.1C707.169 154.1 707.387 154.081 707.615 154.045C707.852 153.999 708.03 153.963 708.148 153.936L708.162 156C707.962 156.064 707.697 156.123 707.369 156.178C707.05 156.242 706.663 156.273 706.207 156.273C705.587 156.273 705.018 156.15 704.498 155.904C703.979 155.658 703.564 155.248 703.254 154.674C702.953 154.09 702.803 153.307 702.803 152.322V137.611ZM713.59 135V156H711.061V135H713.59ZM712.988 148.043L711.936 148.002C711.945 146.99 712.095 146.056 712.387 145.199C712.678 144.333 713.089 143.581 713.617 142.943C714.146 142.305 714.775 141.813 715.504 141.467C716.242 141.111 717.058 140.934 717.951 140.934C718.68 140.934 719.337 141.034 719.92 141.234C720.503 141.426 721 141.736 721.41 142.164C721.829 142.592 722.148 143.148 722.367 143.832C722.586 144.507 722.695 145.331 722.695 146.307V156H720.152V146.279C720.152 145.505 720.038 144.885 719.811 144.42C719.583 143.946 719.25 143.604 718.812 143.395C718.375 143.176 717.837 143.066 717.199 143.066C716.57 143.066 715.996 143.199 715.477 143.463C714.966 143.727 714.524 144.092 714.15 144.557C713.786 145.021 713.499 145.555 713.289 146.156C713.089 146.749 712.988 147.378 712.988 148.043ZM732.621 156.273C731.591 156.273 730.657 156.1 729.818 155.754C728.989 155.398 728.273 154.902 727.672 154.264C727.079 153.626 726.624 152.869 726.305 151.994C725.986 151.119 725.826 150.162 725.826 149.123V148.549C725.826 147.346 726.004 146.275 726.359 145.336C726.715 144.388 727.198 143.586 727.809 142.93C728.419 142.273 729.112 141.777 729.887 141.439C730.661 141.102 731.464 140.934 732.293 140.934C733.35 140.934 734.262 141.116 735.027 141.48C735.802 141.845 736.436 142.355 736.928 143.012C737.42 143.659 737.785 144.424 738.021 145.309C738.258 146.184 738.377 147.141 738.377 148.18V149.314H727.33V147.25H735.848V147.059C735.811 146.402 735.674 145.764 735.438 145.145C735.21 144.525 734.845 144.014 734.344 143.613C733.842 143.212 733.159 143.012 732.293 143.012C731.719 143.012 731.19 143.135 730.707 143.381C730.224 143.618 729.809 143.973 729.463 144.447C729.117 144.921 728.848 145.5 728.656 146.184C728.465 146.867 728.369 147.656 728.369 148.549V149.123C728.369 149.825 728.465 150.486 728.656 151.105C728.857 151.716 729.144 152.254 729.518 152.719C729.9 153.184 730.361 153.548 730.898 153.812C731.445 154.077 732.065 154.209 732.758 154.209C733.651 154.209 734.408 154.027 735.027 153.662C735.647 153.298 736.189 152.81 736.654 152.199L738.186 153.416C737.867 153.899 737.461 154.359 736.969 154.797C736.477 155.234 735.87 155.59 735.15 155.863C734.439 156.137 733.596 156.273 732.621 156.273ZM757.326 152.582V141.207H759.869V156H757.449L757.326 152.582ZM757.805 149.465L758.857 149.438C758.857 150.422 758.753 151.333 758.543 152.172C758.342 153.001 758.014 153.721 757.559 154.332C757.103 154.943 756.506 155.421 755.768 155.768C755.029 156.105 754.132 156.273 753.074 156.273C752.354 156.273 751.693 156.169 751.092 155.959C750.499 155.749 749.989 155.426 749.561 154.988C749.132 154.551 748.799 153.981 748.562 153.279C748.335 152.577 748.221 151.734 748.221 150.75V141.207H750.75V150.777C750.75 151.443 750.823 151.994 750.969 152.432C751.124 152.86 751.329 153.202 751.584 153.457C751.848 153.703 752.14 153.876 752.459 153.977C752.787 154.077 753.124 154.127 753.471 154.127C754.546 154.127 755.398 153.922 756.027 153.512C756.656 153.092 757.107 152.532 757.381 151.83C757.663 151.119 757.805 150.331 757.805 149.465ZM772.338 152.076C772.338 151.712 772.256 151.374 772.092 151.064C771.937 150.745 771.613 150.458 771.121 150.203C770.638 149.939 769.909 149.711 768.934 149.52C768.113 149.346 767.37 149.141 766.705 148.904C766.049 148.667 765.488 148.38 765.023 148.043C764.568 147.706 764.217 147.309 763.971 146.854C763.725 146.398 763.602 145.865 763.602 145.254C763.602 144.671 763.729 144.119 763.984 143.6C764.249 143.08 764.618 142.62 765.092 142.219C765.575 141.818 766.154 141.503 766.828 141.275C767.503 141.048 768.255 140.934 769.084 140.934C770.269 140.934 771.281 141.143 772.119 141.562C772.958 141.982 773.6 142.542 774.047 143.244C774.493 143.937 774.717 144.707 774.717 145.555H772.188C772.188 145.145 772.064 144.748 771.818 144.365C771.581 143.973 771.23 143.65 770.766 143.395C770.31 143.139 769.749 143.012 769.084 143.012C768.382 143.012 767.812 143.121 767.375 143.34C766.947 143.549 766.632 143.818 766.432 144.146C766.24 144.475 766.145 144.821 766.145 145.186C766.145 145.459 766.19 145.705 766.281 145.924C766.382 146.133 766.555 146.329 766.801 146.512C767.047 146.685 767.393 146.849 767.84 147.004C768.286 147.159 768.856 147.314 769.549 147.469C770.761 147.742 771.759 148.07 772.543 148.453C773.327 148.836 773.91 149.305 774.293 149.861C774.676 150.417 774.867 151.092 774.867 151.885C774.867 152.532 774.73 153.124 774.457 153.662C774.193 154.2 773.805 154.665 773.295 155.057C772.794 155.439 772.192 155.74 771.49 155.959C770.798 156.169 770.018 156.273 769.152 156.273C767.849 156.273 766.746 156.041 765.844 155.576C764.941 155.111 764.258 154.51 763.793 153.771C763.328 153.033 763.096 152.254 763.096 151.434H765.639C765.675 152.126 765.876 152.678 766.24 153.088C766.605 153.489 767.051 153.776 767.58 153.949C768.109 154.113 768.633 154.195 769.152 154.195C769.845 154.195 770.424 154.104 770.889 153.922C771.363 153.74 771.723 153.489 771.969 153.17C772.215 152.851 772.338 152.486 772.338 152.076ZM784.328 156.273C783.298 156.273 782.364 156.1 781.525 155.754C780.696 155.398 779.98 154.902 779.379 154.264C778.786 153.626 778.331 152.869 778.012 151.994C777.693 151.119 777.533 150.162 777.533 149.123V148.549C777.533 147.346 777.711 146.275 778.066 145.336C778.422 144.388 778.905 143.586 779.516 142.93C780.126 142.273 780.819 141.777 781.594 141.439C782.368 141.102 783.171 140.934 784 140.934C785.057 140.934 785.969 141.116 786.734 141.48C787.509 141.845 788.143 142.355 788.635 143.012C789.127 143.659 789.492 144.424 789.729 145.309C789.965 146.184 790.084 147.141 790.084 148.18V149.314H779.037V147.25H787.555V147.059C787.518 146.402 787.382 145.764 787.145 145.145C786.917 144.525 786.552 144.014 786.051 143.613C785.549 143.212 784.866 143.012 784 143.012C783.426 143.012 782.897 143.135 782.414 143.381C781.931 143.618 781.516 143.973 781.17 144.447C780.824 144.921 780.555 145.5 780.363 146.184C780.172 146.867 780.076 147.656 780.076 148.549V149.123C780.076 149.825 780.172 150.486 780.363 151.105C780.564 151.716 780.851 152.254 781.225 152.719C781.607 153.184 782.068 153.548 782.605 153.812C783.152 154.077 783.772 154.209 784.465 154.209C785.358 154.209 786.115 154.027 786.734 153.662C787.354 153.298 787.896 152.81 788.361 152.199L789.893 153.416C789.574 153.899 789.168 154.359 788.676 154.797C788.184 155.234 787.577 155.59 786.857 155.863C786.146 156.137 785.303 156.273 784.328 156.273ZM804.029 150.969C804.029 150.504 803.956 150.094 803.811 149.738C803.674 149.374 803.428 149.046 803.072 148.754C802.726 148.462 802.243 148.184 801.623 147.92C801.012 147.656 800.238 147.387 799.299 147.113C798.314 146.822 797.426 146.498 796.633 146.143C795.84 145.778 795.161 145.363 794.596 144.898C794.031 144.434 793.598 143.9 793.297 143.299C792.996 142.697 792.846 142.009 792.846 141.234C792.846 140.46 793.005 139.744 793.324 139.088C793.643 138.432 794.099 137.862 794.691 137.379C795.293 136.887 796.008 136.504 796.838 136.23C797.667 135.957 798.592 135.82 799.613 135.82C801.108 135.82 802.375 136.107 803.414 136.682C804.462 137.247 805.26 137.99 805.807 138.91C806.354 139.822 806.627 140.797 806.627 141.836H804.002C804.002 141.089 803.842 140.428 803.523 139.854C803.204 139.27 802.721 138.814 802.074 138.486C801.427 138.149 800.607 137.98 799.613 137.98C798.674 137.98 797.9 138.122 797.289 138.404C796.678 138.687 796.223 139.07 795.922 139.553C795.63 140.036 795.484 140.587 795.484 141.207C795.484 141.626 795.571 142.009 795.744 142.355C795.926 142.693 796.204 143.007 796.578 143.299C796.961 143.59 797.444 143.859 798.027 144.105C798.62 144.352 799.326 144.589 800.146 144.816C801.277 145.135 802.252 145.491 803.072 145.883C803.893 146.275 804.567 146.717 805.096 147.209C805.633 147.692 806.03 148.243 806.285 148.863C806.549 149.474 806.682 150.167 806.682 150.941C806.682 151.753 806.518 152.486 806.189 153.143C805.861 153.799 805.392 154.359 804.781 154.824C804.171 155.289 803.437 155.649 802.58 155.904C801.732 156.15 800.785 156.273 799.736 156.273C798.816 156.273 797.909 156.146 797.016 155.891C796.132 155.635 795.325 155.253 794.596 154.742C793.876 154.232 793.297 153.603 792.859 152.855C792.431 152.099 792.217 151.224 792.217 150.23H794.842C794.842 150.914 794.974 151.502 795.238 151.994C795.503 152.477 795.863 152.878 796.318 153.197C796.783 153.516 797.307 153.753 797.891 153.908C798.483 154.054 799.098 154.127 799.736 154.127C800.657 154.127 801.436 153.999 802.074 153.744C802.712 153.489 803.195 153.124 803.523 152.65C803.861 152.176 804.029 151.616 804.029 150.969ZM815.855 141.207V143.148H807.857V141.207H815.855ZM810.564 137.611H813.094V152.336C813.094 152.837 813.171 153.215 813.326 153.471C813.481 153.726 813.682 153.895 813.928 153.977C814.174 154.059 814.438 154.1 814.721 154.1C814.93 154.1 815.149 154.081 815.377 154.045C815.614 153.999 815.792 153.963 815.91 153.936L815.924 156C815.723 156.064 815.459 156.123 815.131 156.178C814.812 156.242 814.424 156.273 813.969 156.273C813.349 156.273 812.779 156.15 812.26 155.904C811.74 155.658 811.326 155.248 811.016 154.674C810.715 154.09 810.564 153.307 810.564 152.322V137.611ZM827.545 153.471V145.855C827.545 145.272 827.426 144.766 827.189 144.338C826.962 143.9 826.615 143.563 826.15 143.326C825.686 143.089 825.111 142.971 824.428 142.971C823.79 142.971 823.229 143.08 822.746 143.299C822.272 143.518 821.898 143.805 821.625 144.16C821.361 144.516 821.229 144.898 821.229 145.309H818.699C818.699 144.78 818.836 144.256 819.109 143.736C819.383 143.217 819.775 142.747 820.285 142.328C820.805 141.9 821.424 141.562 822.145 141.316C822.874 141.061 823.685 140.934 824.578 140.934C825.654 140.934 826.602 141.116 827.422 141.48C828.251 141.845 828.898 142.396 829.363 143.135C829.837 143.864 830.074 144.78 830.074 145.883V152.773C830.074 153.266 830.115 153.79 830.197 154.346C830.288 154.902 830.421 155.38 830.594 155.781V156H827.955C827.827 155.708 827.727 155.321 827.654 154.838C827.581 154.346 827.545 153.89 827.545 153.471ZM827.982 147.031L828.01 148.809H825.453C824.733 148.809 824.09 148.868 823.525 148.986C822.96 149.096 822.486 149.264 822.104 149.492C821.721 149.72 821.429 150.007 821.229 150.354C821.028 150.691 820.928 151.087 820.928 151.543C820.928 152.008 821.033 152.432 821.242 152.814C821.452 153.197 821.766 153.503 822.186 153.73C822.614 153.949 823.138 154.059 823.758 154.059C824.533 154.059 825.216 153.895 825.809 153.566C826.401 153.238 826.87 152.837 827.217 152.363C827.572 151.889 827.764 151.429 827.791 150.982L828.871 152.199C828.807 152.582 828.634 153.006 828.352 153.471C828.069 153.936 827.691 154.382 827.217 154.811C826.752 155.23 826.196 155.581 825.549 155.863C824.911 156.137 824.191 156.273 823.389 156.273C822.386 156.273 821.507 156.077 820.75 155.686C820.003 155.294 819.419 154.77 819 154.113C818.59 153.448 818.385 152.705 818.385 151.885C818.385 151.092 818.54 150.395 818.85 149.793C819.16 149.182 819.606 148.676 820.189 148.275C820.773 147.865 821.475 147.555 822.295 147.346C823.115 147.136 824.031 147.031 825.043 147.031H827.982ZM840.246 141.207V143.148H832.248V141.207H840.246ZM834.955 137.611H837.484V152.336C837.484 152.837 837.562 153.215 837.717 153.471C837.872 153.726 838.072 153.895 838.318 153.977C838.564 154.059 838.829 154.1 839.111 154.1C839.321 154.1 839.54 154.081 839.768 154.045C840.005 153.999 840.182 153.963 840.301 153.936L840.314 156C840.114 156.064 839.85 156.123 839.521 156.178C839.202 156.242 838.815 156.273 838.359 156.273C837.74 156.273 837.17 156.15 836.65 155.904C836.131 155.658 835.716 155.248 835.406 154.674C835.105 154.09 834.955 153.307 834.955 152.322V137.611ZM849.352 156.273C848.322 156.273 847.387 156.1 846.549 155.754C845.719 155.398 845.004 154.902 844.402 154.264C843.81 153.626 843.354 152.869 843.035 151.994C842.716 151.119 842.557 150.162 842.557 149.123V148.549C842.557 147.346 842.734 146.275 843.09 145.336C843.445 144.388 843.928 143.586 844.539 142.93C845.15 142.273 845.842 141.777 846.617 141.439C847.392 141.102 848.194 140.934 849.023 140.934C850.081 140.934 850.992 141.116 851.758 141.48C852.533 141.845 853.166 142.355 853.658 143.012C854.15 143.659 854.515 144.424 854.752 145.309C854.989 146.184 855.107 147.141 855.107 148.18V149.314H844.061V147.25H852.578V147.059C852.542 146.402 852.405 145.764 852.168 145.145C851.94 144.525 851.576 144.014 851.074 143.613C850.573 143.212 849.889 143.012 849.023 143.012C848.449 143.012 847.921 143.135 847.438 143.381C846.954 143.618 846.54 143.973 846.193 144.447C845.847 144.921 845.578 145.5 845.387 146.184C845.195 146.867 845.1 147.656 845.1 148.549V149.123C845.1 149.825 845.195 150.486 845.387 151.105C845.587 151.716 845.874 152.254 846.248 152.719C846.631 153.184 847.091 153.548 847.629 153.812C848.176 154.077 848.796 154.209 849.488 154.209C850.382 154.209 851.138 154.027 851.758 153.662C852.378 153.298 852.92 152.81 853.385 152.199L854.916 153.416C854.597 153.899 854.191 154.359 853.699 154.797C853.207 155.234 852.601 155.59 851.881 155.863C851.17 156.137 850.327 156.273 849.352 156.273ZM867.535 135V156H865.006V135H867.535ZM866.934 148.043L865.881 148.002C865.89 146.99 866.04 146.056 866.332 145.199C866.624 144.333 867.034 143.581 867.562 142.943C868.091 142.305 868.72 141.813 869.449 141.467C870.188 141.111 871.003 140.934 871.896 140.934C872.626 140.934 873.282 141.034 873.865 141.234C874.449 141.426 874.945 141.736 875.355 142.164C875.775 142.592 876.094 143.148 876.312 143.832C876.531 144.507 876.641 145.331 876.641 146.307V156H874.098V146.279C874.098 145.505 873.984 144.885 873.756 144.42C873.528 143.946 873.195 143.604 872.758 143.395C872.32 143.176 871.783 143.066 871.145 143.066C870.516 143.066 869.941 143.199 869.422 143.463C868.911 143.727 868.469 144.092 868.096 144.557C867.731 145.021 867.444 145.555 867.234 146.156C867.034 146.749 866.934 147.378 866.934 148.043ZM879.758 148.768V148.453C879.758 147.387 879.913 146.398 880.223 145.486C880.533 144.566 880.979 143.768 881.562 143.094C882.146 142.41 882.852 141.882 883.682 141.508C884.511 141.125 885.441 140.934 886.471 140.934C887.51 140.934 888.444 141.125 889.273 141.508C890.112 141.882 890.823 142.41 891.406 143.094C891.999 143.768 892.45 144.566 892.76 145.486C893.07 146.398 893.225 147.387 893.225 148.453V148.768C893.225 149.834 893.07 150.823 892.76 151.734C892.45 152.646 891.999 153.443 891.406 154.127C890.823 154.801 890.117 155.33 889.287 155.713C888.467 156.087 887.537 156.273 886.498 156.273C885.459 156.273 884.525 156.087 883.695 155.713C882.866 155.33 882.155 154.801 881.562 154.127C880.979 153.443 880.533 152.646 880.223 151.734C879.913 150.823 879.758 149.834 879.758 148.768ZM882.287 148.453V148.768C882.287 149.506 882.374 150.203 882.547 150.859C882.72 151.507 882.98 152.081 883.326 152.582C883.682 153.083 884.124 153.48 884.652 153.771C885.181 154.054 885.796 154.195 886.498 154.195C887.191 154.195 887.797 154.054 888.316 153.771C888.845 153.48 889.283 153.083 889.629 152.582C889.975 152.081 890.235 151.507 890.408 150.859C890.59 150.203 890.682 149.506 890.682 148.768V148.453C890.682 147.724 890.59 147.036 890.408 146.389C890.235 145.732 889.971 145.154 889.615 144.652C889.269 144.142 888.831 143.741 888.303 143.449C887.783 143.158 887.173 143.012 886.471 143.012C885.778 143.012 885.167 143.158 884.639 143.449C884.119 143.741 883.682 144.142 883.326 144.652C882.98 145.154 882.72 145.732 882.547 146.389C882.374 147.036 882.287 147.724 882.287 148.453ZM895.727 148.768V148.453C895.727 147.387 895.882 146.398 896.191 145.486C896.501 144.566 896.948 143.768 897.531 143.094C898.115 142.41 898.821 141.882 899.65 141.508C900.48 141.125 901.41 140.934 902.439 140.934C903.479 140.934 904.413 141.125 905.242 141.508C906.081 141.882 906.792 142.41 907.375 143.094C907.967 143.768 908.419 144.566 908.729 145.486C909.038 146.398 909.193 147.387 909.193 148.453V148.768C909.193 149.834 909.038 150.823 908.729 151.734C908.419 152.646 907.967 153.443 907.375 154.127C906.792 154.801 906.085 155.33 905.256 155.713C904.436 156.087 903.506 156.273 902.467 156.273C901.428 156.273 900.493 156.087 899.664 155.713C898.835 155.33 898.124 154.801 897.531 154.127C896.948 153.443 896.501 152.646 896.191 151.734C895.882 150.823 895.727 149.834 895.727 148.768ZM898.256 148.453V148.768C898.256 149.506 898.342 150.203 898.516 150.859C898.689 151.507 898.949 152.081 899.295 152.582C899.65 153.083 900.092 153.48 900.621 153.771C901.15 154.054 901.765 154.195 902.467 154.195C903.16 154.195 903.766 154.054 904.285 153.771C904.814 153.48 905.251 153.083 905.598 152.582C905.944 152.081 906.204 151.507 906.377 150.859C906.559 150.203 906.65 149.506 906.65 148.768V148.453C906.65 147.724 906.559 147.036 906.377 146.389C906.204 145.732 905.939 145.154 905.584 144.652C905.238 144.142 904.8 143.741 904.271 143.449C903.752 143.158 903.141 143.012 902.439 143.012C901.747 143.012 901.136 143.158 900.607 143.449C900.088 143.741 899.65 144.142 899.295 144.652C898.949 145.154 898.689 145.732 898.516 146.389C898.342 147.036 898.256 147.724 898.256 148.453ZM914.908 135V156H912.365V135H914.908ZM923.945 141.207L917.492 148.111L913.883 151.857L913.678 149.164L916.262 146.074L920.855 141.207H923.945ZM921.635 156L916.357 148.945L917.67 146.689L924.615 156H921.635Z" fill="#171717"/>
<path d="M205.164 51.6094H219.903C222.839 51.6094 225.379 52.0488 227.523 52.9277C229.686 53.8066 231.347 55.1074 232.507 56.8301C233.667 58.5527 234.247 60.6797 234.247 63.2109C234.247 65.3203 233.904 67.1133 233.219 68.5898C232.533 70.0664 231.566 71.2881 230.318 72.2549C229.088 73.2217 227.646 74.0039 225.994 74.6016L223.199 76.1309H210.648L210.596 69.46H219.93C221.213 69.46 222.276 69.2314 223.12 68.7744C223.964 68.3174 224.597 67.6758 225.019 66.8496C225.458 66.0059 225.678 65.0215 225.678 63.8965C225.678 62.7363 225.458 61.7344 225.019 60.8906C224.579 60.0469 223.929 59.4053 223.067 58.9658C222.224 58.5088 221.169 58.2803 219.903 58.2803H213.76V90H205.164V51.6094ZM226.416 90L217.794 72.9404L226.864 72.9141L235.618 89.6045V90H226.416ZM253.1 90.5273C250.832 90.5273 248.802 90.167 247.009 89.4463C245.216 88.7256 243.695 87.7324 242.447 86.4668C241.217 85.1836 240.276 83.707 239.626 82.0371C238.976 80.3672 238.65 78.583 238.65 76.6846V75.6826C238.65 73.5557 238.949 71.5957 239.547 69.8027C240.145 68.0098 241.015 66.4541 242.157 65.1357C243.317 63.7998 244.741 62.7715 246.429 62.0508C248.116 61.3125 250.041 60.9434 252.203 60.9434C254.225 60.9434 256.026 61.2773 257.608 61.9453C259.19 62.5957 260.526 63.5361 261.616 64.7666C262.706 65.9795 263.532 67.4473 264.095 69.1699C264.675 70.875 264.965 72.791 264.965 74.918V78.293H241.973V72.9932H256.896V72.3604C256.896 71.3584 256.712 70.4795 256.343 69.7236C255.991 68.9678 255.464 68.3877 254.761 67.9834C254.075 67.5615 253.205 67.3506 252.15 67.3506C251.148 67.3506 250.313 67.5615 249.646 67.9834C248.978 68.4053 248.441 69.0029 248.037 69.7764C247.65 70.5322 247.369 71.4199 247.193 72.4395C247.018 73.4414 246.93 74.5225 246.93 75.6826V76.6846C246.93 77.792 247.079 78.8027 247.378 79.7168C247.677 80.6309 248.116 81.4131 248.696 82.0635C249.276 82.7139 249.979 83.2236 250.806 83.5928C251.632 83.9619 252.572 84.1465 253.627 84.1465C254.928 84.1465 256.167 83.9004 257.345 83.4082C258.522 82.8984 259.542 82.1074 260.403 81.0352L264.253 85.4385C263.673 86.2822 262.855 87.0996 261.801 87.8906C260.764 88.6641 259.516 89.2969 258.057 89.7891C256.598 90.2812 254.945 90.5273 253.1 90.5273ZM284.081 83.1973V70.9629C284.081 70.1016 283.949 69.3633 283.686 68.748C283.422 68.1328 283.009 67.6494 282.446 67.2979C281.884 66.9463 281.154 66.7705 280.258 66.7705C279.502 66.7705 278.843 66.9023 278.28 67.166C277.735 67.4297 277.313 67.8076 277.015 68.2998C276.733 68.792 276.593 69.3984 276.593 70.1191H268.366C268.366 68.8359 268.656 67.6406 269.236 66.5332C269.816 65.4258 270.643 64.4502 271.715 63.6064C272.805 62.7627 274.105 62.1123 275.617 61.6553C277.129 61.1807 278.825 60.9434 280.706 60.9434C282.938 60.9434 284.925 61.3213 286.665 62.0771C288.423 62.8154 289.812 63.9316 290.831 65.4258C291.851 66.9023 292.36 68.7656 292.36 71.0156V82.96C292.36 84.6826 292.457 86.0361 292.65 87.0205C292.861 87.9873 293.16 88.8311 293.547 89.5518V90H285.241C284.854 89.1738 284.564 88.1543 284.371 86.9414C284.178 85.7109 284.081 84.4629 284.081 83.1973ZM285.109 72.5977L285.162 77.1328H281.075C280.161 77.1328 279.37 77.2471 278.702 77.4756C278.052 77.7041 277.524 78.0205 277.12 78.4248C276.716 78.8115 276.417 79.2686 276.224 79.7959C276.048 80.3057 275.96 80.8682 275.96 81.4834C275.96 82.0635 276.101 82.5908 276.382 83.0654C276.663 83.5225 277.05 83.8828 277.542 84.1465C278.034 84.4102 278.605 84.542 279.256 84.542C280.328 84.542 281.242 84.3311 281.998 83.9092C282.771 83.4873 283.369 82.9775 283.791 82.3799C284.213 81.7646 284.424 81.1934 284.424 80.666L286.401 84.0938C286.085 84.7969 285.698 85.5264 285.241 86.2822C284.784 87.0205 284.204 87.7148 283.501 88.3652C282.798 88.998 281.945 89.5166 280.943 89.9209C279.959 90.3252 278.772 90.5273 277.384 90.5273C275.591 90.5273 273.965 90.167 272.506 89.4463C271.047 88.708 269.878 87.6973 268.999 86.4141C268.138 85.1309 267.707 83.6543 267.707 81.9844C267.707 80.4902 267.979 79.1631 268.524 78.0029C269.069 76.8428 269.887 75.8584 270.977 75.0498C272.084 74.2412 273.473 73.6348 275.143 73.2305C276.812 72.8086 278.764 72.5977 280.996 72.5977H285.109ZM309.684 84.1201C310.562 84.1201 311.327 83.9531 311.978 83.6191C312.628 83.2852 313.129 82.8193 313.48 82.2217C313.85 81.6064 314.034 80.8682 314.034 80.0068H321.786C321.786 82.0811 321.25 83.9092 320.178 85.4912C319.123 87.0732 317.699 88.3125 315.906 89.209C314.113 90.0879 312.092 90.5273 309.842 90.5273C307.627 90.5273 305.693 90.167 304.041 89.4463C302.389 88.708 301.009 87.6797 299.901 86.3613C298.794 85.043 297.959 83.5137 297.396 81.7734C296.852 80.0156 296.579 78.1172 296.579 76.0781V75.3926C296.579 73.3711 296.852 71.4814 297.396 69.7236C297.959 67.9658 298.794 66.4277 299.901 65.1094C301.009 63.791 302.38 62.7715 304.015 62.0508C305.667 61.3125 307.601 60.9434 309.815 60.9434C312.153 60.9434 314.219 61.3916 316.012 62.2881C317.822 63.1846 319.237 64.4766 320.257 66.1641C321.276 67.834 321.786 69.8467 321.786 72.2021H314.034C314.034 71.2881 313.867 70.4707 313.533 69.75C313.217 69.0117 312.725 68.4316 312.057 68.0098C311.406 67.5703 310.598 67.3506 309.631 67.3506C308.629 67.3506 307.803 67.5703 307.152 68.0098C306.52 68.4316 306.036 69.0205 305.702 69.7764C305.368 70.5322 305.14 71.3936 305.017 72.3604C304.894 73.3096 304.832 74.3203 304.832 75.3926V76.0781C304.832 77.168 304.894 78.2051 305.017 79.1895C305.14 80.1562 305.368 81.0088 305.702 81.7471C306.054 82.4854 306.546 83.0654 307.179 83.4873C307.812 83.9092 308.646 84.1201 309.684 84.1201ZM340.375 61.4707V67.2451H323.447V61.4707H340.375ZM327.323 54.4043H335.576V81.0615C335.576 81.8525 335.673 82.459 335.866 82.8809C336.06 83.3027 336.376 83.6016 336.815 83.7773C337.255 83.9355 337.817 84.0146 338.503 84.0146C338.995 84.0146 339.417 83.9971 339.769 83.9619C340.12 83.9268 340.445 83.8828 340.744 83.8301V89.7891C340.041 90.0176 339.294 90.1934 338.503 90.3164C337.712 90.457 336.851 90.5273 335.919 90.5273C334.144 90.5273 332.605 90.2373 331.305 89.6572C330.021 89.0771 329.037 88.1631 328.352 86.915C327.666 85.6494 327.323 84.0059 327.323 81.9844V54.4043ZM383.96 67.0605V73.7051H364.079V67.0605H383.96ZM366.795 51.6094V90H358.199V51.6094H366.795ZM389.893 51.6094V90H381.323V51.6094H389.893ZM410.96 83.1973V70.9629C410.96 70.1016 410.828 69.3633 410.564 68.748C410.301 68.1328 409.888 67.6494 409.325 67.2979C408.763 66.9463 408.033 66.7705 407.137 66.7705C406.381 66.7705 405.722 66.9023 405.159 67.166C404.614 67.4297 404.192 67.8076 403.894 68.2998C403.612 68.792 403.472 69.3984 403.472 70.1191H395.245C395.245 68.8359 395.535 67.6406 396.115 66.5332C396.695 65.4258 397.521 64.4502 398.594 63.6064C399.684 62.7627 400.984 62.1123 402.496 61.6553C404.008 61.1807 405.704 60.9434 407.585 60.9434C409.817 60.9434 411.804 61.3213 413.544 62.0771C415.302 62.8154 416.69 63.9316 417.71 65.4258C418.729 66.9023 419.239 68.7656 419.239 71.0156V82.96C419.239 84.6826 419.336 86.0361 419.529 87.0205C419.74 87.9873 420.039 88.8311 420.426 89.5518V90H412.12C411.733 89.1738 411.443 88.1543 411.25 86.9414C411.057 85.7109 410.96 84.4629 410.96 83.1973ZM411.988 72.5977L412.041 77.1328H407.954C407.04 77.1328 406.249 77.2471 405.581 77.4756C404.931 77.7041 404.403 78.0205 403.999 78.4248C403.595 78.8115 403.296 79.2686 403.103 79.7959C402.927 80.3057 402.839 80.8682 402.839 81.4834C402.839 82.0635 402.979 82.5908 403.261 83.0654C403.542 83.5225 403.929 83.8828 404.421 84.1465C404.913 84.4102 405.484 84.542 406.135 84.542C407.207 84.542 408.121 84.3311 408.877 83.9092C409.65 83.4873 410.248 82.9775 410.67 82.3799C411.092 81.7646 411.303 81.1934 411.303 80.666L413.28 84.0938C412.964 84.7969 412.577 85.5264 412.12 86.2822C411.663 87.0205 411.083 87.7148 410.38 88.3652C409.677 88.998 408.824 89.5166 407.822 89.9209C406.838 90.3252 405.651 90.5273 404.263 90.5273C402.47 90.5273 400.844 90.167 399.385 89.4463C397.926 88.708 396.757 87.6973 395.878 86.4141C395.017 85.1309 394.586 83.6543 394.586 81.9844C394.586 80.4902 394.858 79.1631 395.403 78.0029C395.948 76.8428 396.766 75.8584 397.855 75.0498C398.963 74.2412 400.352 73.6348 402.021 73.2305C403.691 72.8086 405.643 72.5977 407.875 72.5977H411.988ZM432.897 66.9551V100.969H424.671V61.4707H432.344L432.897 66.9551ZM450.695 75.4189V75.9727C450.695 78.0469 450.458 79.9717 449.983 81.7471C449.509 83.5049 448.797 85.043 447.848 86.3613C446.916 87.6797 445.765 88.708 444.394 89.4463C443.022 90.167 441.432 90.5273 439.621 90.5273C437.898 90.5273 436.404 90.167 435.139 89.4463C433.891 88.708 432.836 87.6885 431.975 86.3877C431.131 85.0693 430.445 83.5664 429.918 81.8789C429.408 80.1738 429.013 78.3545 428.731 76.4209V75.3398C429.013 73.2832 429.417 71.376 429.944 69.6182C430.472 67.8604 431.157 66.3398 432.001 65.0566C432.845 63.7559 433.891 62.7451 435.139 62.0244C436.387 61.3037 437.872 60.9434 439.595 60.9434C441.388 60.9434 442.979 61.2861 444.367 61.9717C445.756 62.6572 446.916 63.6416 447.848 64.9248C448.797 66.1904 449.509 67.7109 449.983 69.4863C450.458 71.2617 450.695 73.2393 450.695 75.4189ZM442.442 75.9727V75.4189C442.442 74.2588 442.354 73.1953 442.179 72.2285C442.003 71.2441 441.722 70.3916 441.335 69.6709C440.948 68.9326 440.438 68.3613 439.806 67.957C439.173 67.5527 438.399 67.3506 437.485 67.3506C436.501 67.3506 435.666 67.5088 434.98 67.8252C434.295 68.1416 433.741 68.6074 433.319 69.2227C432.897 69.8203 432.59 70.5586 432.396 71.4375C432.221 72.3164 432.124 73.3184 432.106 74.4434V77.3438C432.124 78.6621 432.309 79.8398 432.66 80.877C433.029 81.8965 433.601 82.6963 434.374 83.2764C435.165 83.8389 436.22 84.1201 437.538 84.1201C438.47 84.1201 439.243 83.918 439.858 83.5137C440.491 83.0918 440.992 82.5029 441.361 81.7471C441.748 80.9912 442.021 80.1211 442.179 79.1367C442.354 78.1523 442.442 77.0977 442.442 75.9727ZM463.325 66.9551V100.969H455.099V61.4707H462.771L463.325 66.9551ZM481.123 75.4189V75.9727C481.123 78.0469 480.886 79.9717 480.411 81.7471C479.937 83.5049 479.225 85.043 478.275 86.3613C477.344 87.6797 476.192 88.708 474.821 89.4463C473.45 90.167 471.859 90.5273 470.049 90.5273C468.326 90.5273 466.832 90.167 465.566 89.4463C464.318 88.708 463.264 87.6885 462.402 86.3877C461.559 85.0693 460.873 83.5664 460.346 81.8789C459.836 80.1738 459.44 78.3545 459.159 76.4209V75.3398C459.44 73.2832 459.845 71.376 460.372 69.6182C460.899 67.8604 461.585 66.3398 462.429 65.0566C463.272 63.7559 464.318 62.7451 465.566 62.0244C466.814 61.3037 468.3 60.9434 470.022 60.9434C471.815 60.9434 473.406 61.2861 474.795 61.9717C476.184 62.6572 477.344 63.6416 478.275 64.9248C479.225 66.1904 479.937 67.7109 480.411 69.4863C480.886 71.2617 481.123 73.2393 481.123 75.4189ZM472.87 75.9727V75.4189C472.87 74.2588 472.782 73.1953 472.606 72.2285C472.431 71.2441 472.149 70.3916 471.763 69.6709C471.376 68.9326 470.866 68.3613 470.233 67.957C469.601 67.5527 468.827 67.3506 467.913 67.3506C466.929 67.3506 466.094 67.5088 465.408 67.8252C464.723 68.1416 464.169 68.6074 463.747 69.2227C463.325 69.8203 463.018 70.5586 462.824 71.4375C462.648 72.3164 462.552 73.3184 462.534 74.4434V77.3438C462.552 78.6621 462.736 79.8398 463.088 80.877C463.457 81.8965 464.028 82.6963 464.802 83.2764C465.593 83.8389 466.647 84.1201 467.966 84.1201C468.897 84.1201 469.671 83.918 470.286 83.5137C470.919 83.0918 471.42 82.5029 471.789 81.7471C472.176 80.9912 472.448 80.1211 472.606 79.1367C472.782 78.1523 472.87 77.0977 472.87 75.9727ZM493.779 86.7041L501.241 61.4707H510.101L498.631 94.2715C498.385 94.9922 498.051 95.7656 497.629 96.5918C497.225 97.418 496.671 98.209 495.968 98.9648C495.282 99.7207 494.403 100.336 493.331 100.811C492.259 101.285 490.94 101.522 489.376 101.522C488.585 101.522 487.97 101.479 487.53 101.391C487.108 101.32 486.546 101.197 485.843 101.021L485.816 95.0361C486.045 95.0361 486.247 95.0361 486.423 95.0361C486.616 95.0537 486.81 95.0625 487.003 95.0625C487.987 95.0625 488.778 94.957 489.376 94.7461C489.991 94.5352 490.466 94.2188 490.8 93.7969C491.151 93.3926 491.433 92.874 491.644 92.2412L493.779 86.7041ZM491.274 61.4707L497.181 81.7734L498.183 90.501L492.619 90.791L482.415 61.4707H491.274ZM557.562 69.7236V85.2012C556.929 85.9219 555.962 86.6953 554.661 87.5215C553.378 88.3477 551.734 89.0596 549.73 89.6572C547.727 90.2373 545.336 90.5273 542.559 90.5273C540.045 90.5273 537.76 90.123 535.703 89.3145C533.646 88.4883 531.88 87.2842 530.403 85.7021C528.927 84.1025 527.784 82.1514 526.976 79.8486C526.185 77.5459 525.789 74.9092 525.789 71.9385V69.6709C525.789 66.7002 526.185 64.0635 526.976 61.7607C527.767 59.458 528.883 57.5156 530.324 55.9336C531.766 54.334 533.479 53.1211 535.466 52.2949C537.452 51.4688 539.649 51.0557 542.058 51.0557C545.485 51.0557 548.289 51.6094 550.469 52.7168C552.648 53.8066 554.301 55.3184 555.426 57.252C556.568 59.1855 557.271 61.4092 557.535 63.9229H549.256C549.08 62.6396 548.729 61.5322 548.201 60.6006C547.691 59.6689 546.962 58.957 546.013 58.4648C545.063 57.9551 543.833 57.7002 542.321 57.7002C541.108 57.7002 540.01 57.9551 539.025 58.4648C538.059 58.957 537.241 59.7041 536.573 60.7061C535.905 61.708 535.396 62.9561 535.044 64.4502C534.692 65.9268 534.517 67.6494 534.517 69.6182V71.9385C534.517 73.9072 534.692 75.6387 535.044 77.1328C535.413 78.627 535.949 79.875 536.652 80.877C537.355 81.8613 538.243 82.6084 539.315 83.1182C540.405 83.6279 541.671 83.8828 543.112 83.8828C544.237 83.8828 545.187 83.7949 545.96 83.6191C546.733 83.4258 547.366 83.1885 547.858 82.9072C548.351 82.6084 548.72 82.3359 548.966 82.0898V75.709H542.137V69.7236H557.562ZM571.694 49.5V90H563.441V49.5H571.694ZM576.44 76.0254V75.4717C576.44 73.3799 576.739 71.4551 577.337 69.6973C577.935 67.9219 578.813 66.3838 579.974 65.083C581.134 63.7822 582.558 62.7715 584.245 62.0508C585.933 61.3125 587.866 60.9434 590.046 60.9434C592.261 60.9434 594.212 61.3125 595.899 62.0508C597.604 62.7715 599.037 63.7822 600.197 65.083C601.357 66.3838 602.236 67.9219 602.834 69.6973C603.432 71.4551 603.73 73.3799 603.73 75.4717V76.0254C603.73 78.0996 603.432 80.0244 602.834 81.7998C602.236 83.5576 601.357 85.0957 600.197 86.4141C599.037 87.7148 597.613 88.7256 595.926 89.4463C594.238 90.167 592.296 90.5273 590.099 90.5273C587.919 90.5273 585.977 90.167 584.271 89.4463C582.566 88.7256 581.134 87.7148 579.974 86.4141C578.813 85.0957 577.935 83.5576 577.337 81.7998C576.739 80.0244 576.44 78.0996 576.44 76.0254ZM584.693 75.4717V76.0254C584.693 77.1504 584.781 78.2051 584.957 79.1895C585.15 80.1738 585.458 81.0352 585.88 81.7734C586.302 82.5117 586.855 83.0918 587.541 83.5137C588.244 83.918 589.097 84.1201 590.099 84.1201C591.101 84.1201 591.944 83.918 592.63 83.5137C593.315 83.0918 593.869 82.5117 594.291 81.7734C594.713 81.0352 595.012 80.1738 595.188 79.1895C595.381 78.2051 595.478 77.1504 595.478 76.0254V75.4717C595.478 74.3643 595.381 73.3271 595.188 72.3604C595.012 71.376 594.713 70.5059 594.291 69.75C593.869 68.9941 593.307 68.4053 592.604 67.9834C591.918 67.5615 591.065 67.3506 590.046 67.3506C589.062 67.3506 588.227 67.5615 587.541 67.9834C586.855 68.4053 586.302 68.9941 585.88 69.75C585.458 70.5059 585.15 71.376 584.957 72.3604C584.781 73.3271 584.693 74.3643 584.693 75.4717ZM608.081 49.5H616.308V83.2236L615.464 90H608.081V49.5ZM634.105 75.4189V75.9727C634.105 78.1348 633.877 80.1035 633.42 81.8789C632.98 83.6543 632.304 85.1924 631.39 86.4932C630.476 87.7764 629.324 88.7695 627.936 89.4727C626.547 90.1758 624.912 90.5273 623.031 90.5273C621.291 90.5273 619.797 90.167 618.549 89.4463C617.301 88.708 616.255 87.6885 615.411 86.3877C614.567 85.0869 613.882 83.5664 613.354 81.8262C612.845 80.0859 612.449 78.2139 612.168 76.21V75.2607C612.449 73.2568 612.845 71.3848 613.354 69.6445C613.882 67.9043 614.567 66.3838 615.411 65.083C616.255 63.7822 617.292 62.7715 618.522 62.0508C619.771 61.3125 621.256 60.9434 622.979 60.9434C624.877 60.9434 626.521 61.3037 627.909 62.0244C629.315 62.7451 630.476 63.7559 631.39 65.0566C632.304 66.3398 632.98 67.8691 633.42 69.6445C633.877 71.4023 634.105 73.3271 634.105 75.4189ZM625.879 75.9727V75.4189C625.879 74.3291 625.8 73.3008 625.642 72.334C625.501 71.3672 625.246 70.5146 624.877 69.7764C624.525 69.0205 624.024 68.4316 623.374 68.0098C622.741 67.5703 621.924 67.3506 620.922 67.3506C619.938 67.3506 619.103 67.5176 618.417 67.8516C617.731 68.1855 617.178 68.6602 616.756 69.2754C616.334 69.873 616.026 70.6025 615.833 71.4639C615.64 72.3252 615.534 73.2832 615.517 74.3379V77.1328C615.534 78.5391 615.719 79.7695 616.07 80.8242C616.422 81.8789 616.993 82.6963 617.784 83.2764C618.575 83.8389 619.639 84.1201 620.975 84.1201C621.994 84.1201 622.82 83.9268 623.453 83.54C624.104 83.1357 624.596 82.5732 624.93 81.8525C625.281 81.1318 625.527 80.2705 625.668 79.2686C625.809 78.2666 625.879 77.168 625.879 75.9727ZM653.591 83.1973V70.9629C653.591 70.1016 653.459 69.3633 653.195 68.748C652.932 68.1328 652.519 67.6494 651.956 67.2979C651.394 66.9463 650.664 66.7705 649.768 66.7705C649.012 66.7705 648.353 66.9023 647.79 67.166C647.245 67.4297 646.823 67.8076 646.524 68.2998C646.243 68.792 646.103 69.3984 646.103 70.1191H637.876C637.876 68.8359 638.166 67.6406 638.746 66.5332C639.326 65.4258 640.152 64.4502 641.225 63.6064C642.314 62.7627 643.615 62.1123 645.127 61.6553C646.639 61.1807 648.335 60.9434 650.216 60.9434C652.448 60.9434 654.435 61.3213 656.175 62.0771C657.933 62.8154 659.321 63.9316 660.341 65.4258C661.36 66.9023 661.87 68.7656 661.87 71.0156V82.96C661.87 84.6826 661.967 86.0361 662.16 87.0205C662.371 87.9873 662.67 88.8311 663.057 89.5518V90H654.751C654.364 89.1738 654.074 88.1543 653.881 86.9414C653.688 85.7109 653.591 84.4629 653.591 83.1973ZM654.619 72.5977L654.672 77.1328H650.585C649.671 77.1328 648.88 77.2471 648.212 77.4756C647.562 77.7041 647.034 78.0205 646.63 78.4248C646.226 78.8115 645.927 79.2686 645.733 79.7959C645.558 80.3057 645.47 80.8682 645.47 81.4834C645.47 82.0635 645.61 82.5908 645.892 83.0654C646.173 83.5225 646.56 83.8828 647.052 84.1465C647.544 84.4102 648.115 84.542 648.766 84.542C649.838 84.542 650.752 84.3311 651.508 83.9092C652.281 83.4873 652.879 82.9775 653.301 82.3799C653.723 81.7646 653.934 81.1934 653.934 80.666L655.911 84.0938C655.595 84.7969 655.208 85.5264 654.751 86.2822C654.294 87.0205 653.714 87.7148 653.011 88.3652C652.308 88.998 651.455 89.5166 650.453 89.9209C649.469 90.3252 648.282 90.5273 646.894 90.5273C645.101 90.5273 643.475 90.167 642.016 89.4463C640.557 88.708 639.388 87.6973 638.509 86.4141C637.647 85.1309 637.217 83.6543 637.217 81.9844C637.217 80.4902 637.489 79.1631 638.034 78.0029C638.579 76.8428 639.396 75.8584 640.486 75.0498C641.594 74.2412 642.982 73.6348 644.652 73.2305C646.322 72.8086 648.273 72.5977 650.506 72.5977H654.619ZM675.95 49.5V90H667.697V49.5H675.95ZM715.659 79.875C715.659 79.2246 715.562 78.6445 715.369 78.1348C715.176 77.6074 714.824 77.124 714.314 76.6846C713.805 76.2451 713.084 75.8057 712.152 75.3662C711.221 74.9092 709.999 74.4434 708.487 73.9688C706.765 73.4062 705.121 72.7734 703.557 72.0703C702.01 71.3496 700.63 70.5146 699.417 69.5654C698.204 68.6162 697.246 67.5088 696.543 66.2432C695.857 64.9775 695.515 63.501 695.515 61.8135C695.515 60.1787 695.875 58.7021 696.596 57.3838C697.316 56.0654 698.327 54.9404 699.628 54.0088C700.929 53.0596 702.458 52.3389 704.216 51.8467C705.974 51.3369 707.907 51.082 710.017 51.082C712.829 51.082 715.299 51.583 717.426 52.585C719.57 53.5693 721.24 54.958 722.436 56.751C723.631 58.5264 724.229 60.5918 724.229 62.9473H715.686C715.686 61.9102 715.466 60.9961 715.026 60.2051C714.604 59.3965 713.954 58.7637 713.075 58.3066C712.214 57.8496 711.133 57.6211 709.832 57.6211C708.566 57.6211 707.503 57.8145 706.642 58.2012C705.798 58.5703 705.156 59.0801 704.717 59.7305C704.295 60.3809 704.084 61.0928 704.084 61.8662C704.084 62.4814 704.242 63.0439 704.559 63.5537C704.893 64.0459 705.367 64.5117 705.982 64.9512C706.615 65.373 707.389 65.7773 708.303 66.1641C709.217 66.5508 710.263 66.9199 711.44 67.2715C713.497 67.9219 715.316 68.6426 716.898 69.4336C718.498 70.2246 719.843 71.1211 720.933 72.123C722.022 73.125 722.84 74.2588 723.385 75.5244C723.947 76.79 724.229 78.2227 724.229 79.8223C724.229 81.5273 723.895 83.0391 723.227 84.3574C722.576 85.6758 721.627 86.8008 720.379 87.7324C719.148 88.6465 717.672 89.3408 715.949 89.8154C714.227 90.29 712.302 90.5273 710.175 90.5273C708.241 90.5273 706.334 90.2812 704.453 89.7891C702.572 89.2793 700.867 88.5059 699.338 87.4688C697.826 86.4316 696.613 85.1133 695.699 83.5137C694.803 81.8965 694.354 79.9805 694.354 77.7656H702.95C702.95 78.9258 703.117 79.9102 703.451 80.7188C703.785 81.5098 704.26 82.1514 704.875 82.6436C705.508 83.1357 706.272 83.4873 707.169 83.6982C708.065 83.9092 709.067 84.0146 710.175 84.0146C711.458 84.0146 712.495 83.8389 713.286 83.4873C714.095 83.1182 714.692 82.6172 715.079 81.9844C715.466 81.3516 715.659 80.6484 715.659 79.875ZM743.371 61.4707V67.2451H726.443V61.4707H743.371ZM730.319 54.4043H738.572V81.0615C738.572 81.8525 738.669 82.459 738.862 82.8809C739.056 83.3027 739.372 83.6016 739.812 83.7773C740.251 83.9355 740.813 84.0146 741.499 84.0146C741.991 84.0146 742.413 83.9971 742.765 83.9619C743.116 83.9268 743.441 83.8828 743.74 83.8301V89.7891C743.037 90.0176 742.29 90.1934 741.499 90.3164C740.708 90.457 739.847 90.5273 738.915 90.5273C737.14 90.5273 735.602 90.2373 734.301 89.6572C733.018 89.0771 732.033 88.1631 731.348 86.915C730.662 85.6494 730.319 84.0059 730.319 81.9844V54.4043ZM762.435 83.1973V70.9629C762.435 70.1016 762.303 69.3633 762.039 68.748C761.775 68.1328 761.362 67.6494 760.8 67.2979C760.237 66.9463 759.508 66.7705 758.611 66.7705C757.855 66.7705 757.196 66.9023 756.634 67.166C756.089 67.4297 755.667 67.8076 755.368 68.2998C755.087 68.792 754.946 69.3984 754.946 70.1191H746.72C746.72 68.8359 747.01 67.6406 747.59 66.5332C748.17 65.4258 748.996 64.4502 750.068 63.6064C751.158 62.7627 752.459 62.1123 753.971 61.6553C755.482 61.1807 757.179 60.9434 759.06 60.9434C761.292 60.9434 763.278 61.3213 765.019 62.0771C766.776 62.8154 768.165 63.9316 769.185 65.4258C770.204 66.9023 770.714 68.7656 770.714 71.0156V82.96C770.714 84.6826 770.811 86.0361 771.004 87.0205C771.215 87.9873 771.514 88.8311 771.9 89.5518V90H763.595C763.208 89.1738 762.918 88.1543 762.725 86.9414C762.531 85.7109 762.435 84.4629 762.435 83.1973ZM763.463 72.5977L763.516 77.1328H759.429C758.515 77.1328 757.724 77.2471 757.056 77.4756C756.405 77.7041 755.878 78.0205 755.474 78.4248C755.069 78.8115 754.771 79.2686 754.577 79.7959C754.401 80.3057 754.313 80.8682 754.313 81.4834C754.313 82.0635 754.454 82.5908 754.735 83.0654C755.017 83.5225 755.403 83.8828 755.896 84.1465C756.388 84.4102 756.959 84.542 757.609 84.542C758.682 84.542 759.596 84.3311 760.352 83.9092C761.125 83.4873 761.723 82.9775 762.145 82.3799C762.566 81.7646 762.777 81.1934 762.777 80.666L764.755 84.0938C764.438 84.7969 764.052 85.5264 763.595 86.2822C763.138 87.0205 762.558 87.7148 761.854 88.3652C761.151 88.998 760.299 89.5166 759.297 89.9209C758.312 90.3252 757.126 90.5273 755.737 90.5273C753.944 90.5273 752.318 90.167 750.859 89.4463C749.4 88.708 748.231 87.6973 747.353 86.4141C746.491 85.1309 746.061 83.6543 746.061 81.9844C746.061 80.4902 746.333 79.1631 746.878 78.0029C747.423 76.8428 748.24 75.8584 749.33 75.0498C750.438 74.2412 751.826 73.6348 753.496 73.2305C755.166 72.8086 757.117 72.5977 759.35 72.5977H763.463ZM790.621 61.4707V67.2451H773.693V61.4707H790.621ZM777.569 54.4043H785.822V81.0615C785.822 81.8525 785.919 82.459 786.112 82.8809C786.306 83.3027 786.622 83.6016 787.062 83.7773C787.501 83.9355 788.063 84.0146 788.749 84.0146C789.241 84.0146 789.663 83.9971 790.015 83.9619C790.366 83.9268 790.691 83.8828 790.99 83.8301V89.7891C790.287 90.0176 789.54 90.1934 788.749 90.3164C787.958 90.457 787.097 90.5273 786.165 90.5273C784.39 90.5273 782.852 90.2373 781.551 89.6572C780.268 89.0771 779.283 88.1631 778.598 86.915C777.912 85.6494 777.569 84.0059 777.569 81.9844V54.4043ZM808.023 90.5273C805.756 90.5273 803.726 90.167 801.933 89.4463C800.14 88.7256 798.619 87.7324 797.371 86.4668C796.141 85.1836 795.2 83.707 794.55 82.0371C793.899 80.3672 793.574 78.583 793.574 76.6846V75.6826C793.574 73.5557 793.873 71.5957 794.471 69.8027C795.068 68.0098 795.938 66.4541 797.081 65.1357C798.241 63.7998 799.665 62.7715 801.353 62.0508C803.04 61.3125 804.965 60.9434 807.127 60.9434C809.148 60.9434 810.95 61.2773 812.532 61.9453C814.114 62.5957 815.45 63.5361 816.54 64.7666C817.63 65.9795 818.456 67.4473 819.019 69.1699C819.599 70.875 819.889 72.791 819.889 74.918V78.293H796.896V72.9932H811.82V72.3604C811.82 71.3584 811.636 70.4795 811.267 69.7236C810.915 68.9678 810.388 68.3877 809.685 67.9834C808.999 67.5615 808.129 67.3506 807.074 67.3506C806.072 67.3506 805.237 67.5615 804.569 67.9834C803.901 68.4053 803.365 69.0029 802.961 69.7764C802.574 70.5322 802.293 71.4199 802.117 72.4395C801.941 73.4414 801.854 74.5225 801.854 75.6826V76.6846C801.854 77.792 802.003 78.8027 802.302 79.7168C802.601 80.6309 803.04 81.4131 803.62 82.0635C804.2 82.7139 804.903 83.2236 805.729 83.5928C806.556 83.9619 807.496 84.1465 808.551 84.1465C809.852 84.1465 811.091 83.9004 812.269 83.4082C813.446 82.8984 814.466 82.1074 815.327 81.0352L819.177 85.4385C818.597 86.2822 817.779 87.0996 816.725 87.8906C815.688 88.6641 814.439 89.2969 812.98 89.7891C811.521 90.2812 809.869 90.5273 808.023 90.5273Z" fill="#4CB074"/>
</svg>
