<svg width="1024" height="200" viewBox="0 0 1024 200" fill="none" xmlns="http://www.w3.org/2000/svg">
<rect width="1024" height="200" fill="white"/>
<path d="M151.145 136.094H153.701L160.223 152.322L166.73 136.094H169.301L161.207 156H159.211L151.145 136.094ZM150.311 136.094H152.566L152.936 148.234V156H150.311V136.094ZM167.865 136.094H170.121V156H167.496V148.234L167.865 136.094ZM183.096 153.471V145.855C183.096 145.272 182.977 144.766 182.74 144.338C182.512 143.9 182.166 143.563 181.701 143.326C181.236 143.089 180.662 142.971 179.979 142.971C179.34 142.971 178.78 143.08 178.297 143.299C177.823 143.518 177.449 143.805 177.176 144.16C176.911 144.516 176.779 144.898 176.779 145.309H174.25C174.25 144.78 174.387 144.256 174.66 143.736C174.934 143.217 175.326 142.747 175.836 142.328C176.355 141.9 176.975 141.562 177.695 141.316C178.424 141.061 179.236 140.934 180.129 140.934C181.204 140.934 182.152 141.116 182.973 141.48C183.802 141.845 184.449 142.396 184.914 143.135C185.388 143.864 185.625 144.78 185.625 145.883V152.773C185.625 153.266 185.666 153.79 185.748 154.346C185.839 154.902 185.971 155.38 186.145 155.781V156H183.506C183.378 155.708 183.278 155.321 183.205 154.838C183.132 154.346 183.096 153.89 183.096 153.471ZM183.533 147.031L183.561 148.809H181.004C180.284 148.809 179.641 148.868 179.076 148.986C178.511 149.096 178.037 149.264 177.654 149.492C177.271 149.72 176.98 150.007 176.779 150.354C176.579 150.691 176.479 151.087 176.479 151.543C176.479 152.008 176.583 152.432 176.793 152.814C177.003 153.197 177.317 153.503 177.736 153.73C178.165 153.949 178.689 154.059 179.309 154.059C180.083 154.059 180.767 153.895 181.359 153.566C181.952 153.238 182.421 152.837 182.768 152.363C183.123 151.889 183.314 151.429 183.342 150.982L184.422 152.199C184.358 152.582 184.185 153.006 183.902 153.471C183.62 153.936 183.242 154.382 182.768 154.811C182.303 155.23 181.747 155.581 181.1 155.863C180.462 156.137 179.742 156.273 178.939 156.273C177.937 156.273 177.057 156.077 176.301 155.686C175.553 155.294 174.97 154.77 174.551 154.113C174.141 153.448 173.936 152.705 173.936 151.885C173.936 151.092 174.09 150.395 174.4 149.793C174.71 149.182 175.157 148.676 175.74 148.275C176.324 147.865 177.025 147.555 177.846 147.346C178.666 147.136 179.582 147.031 180.594 147.031H183.533ZM192.133 144.365V156H189.604V141.207H191.996L192.133 144.365ZM191.531 148.043L190.479 148.002C190.488 146.99 190.638 146.056 190.93 145.199C191.221 144.333 191.632 143.581 192.16 142.943C192.689 142.305 193.318 141.813 194.047 141.467C194.785 141.111 195.601 140.934 196.494 140.934C197.223 140.934 197.88 141.034 198.463 141.234C199.046 141.426 199.543 141.736 199.953 142.164C200.372 142.592 200.691 143.148 200.91 143.832C201.129 144.507 201.238 145.331 201.238 146.307V156H198.695V146.279C198.695 145.505 198.581 144.885 198.354 144.42C198.126 143.946 197.793 143.604 197.355 143.395C196.918 143.176 196.38 143.066 195.742 143.066C195.113 143.066 194.539 143.199 194.02 143.463C193.509 143.727 193.067 144.092 192.693 144.557C192.329 145.021 192.042 145.555 191.832 146.156C191.632 146.749 191.531 147.378 191.531 148.043ZM213.803 153.471V145.855C213.803 145.272 213.684 144.766 213.447 144.338C213.219 143.9 212.873 143.563 212.408 143.326C211.943 143.089 211.369 142.971 210.686 142.971C210.048 142.971 209.487 143.08 209.004 143.299C208.53 143.518 208.156 143.805 207.883 144.16C207.618 144.516 207.486 144.898 207.486 145.309H204.957C204.957 144.78 205.094 144.256 205.367 143.736C205.641 143.217 206.033 142.747 206.543 142.328C207.062 141.9 207.682 141.562 208.402 141.316C209.132 141.061 209.943 140.934 210.836 140.934C211.911 140.934 212.859 141.116 213.68 141.48C214.509 141.845 215.156 142.396 215.621 143.135C216.095 143.864 216.332 144.78 216.332 145.883V152.773C216.332 153.266 216.373 153.79 216.455 154.346C216.546 154.902 216.678 155.38 216.852 155.781V156H214.213C214.085 155.708 213.985 155.321 213.912 154.838C213.839 154.346 213.803 153.89 213.803 153.471ZM214.24 147.031L214.268 148.809H211.711C210.991 148.809 210.348 148.868 209.783 148.986C209.218 149.096 208.744 149.264 208.361 149.492C207.979 149.72 207.687 150.007 207.486 150.354C207.286 150.691 207.186 151.087 207.186 151.543C207.186 152.008 207.29 152.432 207.5 152.814C207.71 153.197 208.024 153.503 208.443 153.73C208.872 153.949 209.396 154.059 210.016 154.059C210.79 154.059 211.474 153.895 212.066 153.566C212.659 153.238 213.128 152.837 213.475 152.363C213.83 151.889 214.021 151.429 214.049 150.982L215.129 152.199C215.065 152.582 214.892 153.006 214.609 153.471C214.327 153.936 213.949 154.382 213.475 154.811C213.01 155.23 212.454 155.581 211.807 155.863C211.169 156.137 210.449 156.273 209.646 156.273C208.644 156.273 207.764 156.077 207.008 155.686C206.26 155.294 205.677 154.77 205.258 154.113C204.848 153.448 204.643 152.705 204.643 151.885C204.643 151.092 204.798 150.395 205.107 149.793C205.417 149.182 205.864 148.676 206.447 148.275C207.031 147.865 207.732 147.555 208.553 147.346C209.373 147.136 210.289 147.031 211.301 147.031H214.24ZM229.895 141.207H232.191V155.686C232.191 156.989 231.927 158.101 231.398 159.021C230.87 159.942 230.132 160.639 229.184 161.113C228.245 161.596 227.16 161.838 225.93 161.838C225.419 161.838 224.818 161.756 224.125 161.592C223.441 161.437 222.767 161.168 222.102 160.785C221.445 160.411 220.894 159.906 220.447 159.268L221.773 157.764C222.393 158.511 223.04 159.031 223.715 159.322C224.398 159.614 225.073 159.76 225.738 159.76C226.54 159.76 227.233 159.609 227.816 159.309C228.4 159.008 228.851 158.561 229.17 157.969C229.498 157.385 229.662 156.665 229.662 155.809V144.461L229.895 141.207ZM219.709 148.768V148.48C219.709 147.35 219.841 146.325 220.105 145.404C220.379 144.475 220.766 143.677 221.268 143.012C221.778 142.346 222.393 141.836 223.113 141.48C223.833 141.116 224.645 140.934 225.547 140.934C226.477 140.934 227.288 141.098 227.98 141.426C228.682 141.745 229.275 142.214 229.758 142.834C230.25 143.445 230.637 144.183 230.92 145.049C231.202 145.915 231.398 146.895 231.508 147.988V149.246C231.408 150.331 231.212 151.306 230.92 152.172C230.637 153.038 230.25 153.776 229.758 154.387C229.275 154.997 228.682 155.467 227.98 155.795C227.279 156.114 226.458 156.273 225.52 156.273C224.635 156.273 223.833 156.087 223.113 155.713C222.402 155.339 221.792 154.815 221.281 154.141C220.771 153.466 220.379 152.673 220.105 151.762C219.841 150.841 219.709 149.843 219.709 148.768ZM222.238 148.48V148.768C222.238 149.506 222.311 150.199 222.457 150.846C222.612 151.493 222.844 152.062 223.154 152.555C223.473 153.047 223.879 153.434 224.371 153.717C224.863 153.99 225.451 154.127 226.135 154.127C226.973 154.127 227.666 153.949 228.213 153.594C228.76 153.238 229.193 152.769 229.512 152.186C229.84 151.602 230.095 150.969 230.277 150.285V146.99C230.177 146.489 230.022 146.006 229.812 145.541C229.612 145.067 229.348 144.648 229.02 144.283C228.701 143.91 228.304 143.613 227.83 143.395C227.356 143.176 226.8 143.066 226.162 143.066C225.469 143.066 224.872 143.212 224.371 143.504C223.879 143.786 223.473 144.178 223.154 144.68C222.844 145.172 222.612 145.746 222.457 146.402C222.311 147.049 222.238 147.742 222.238 148.48ZM242.172 156.273C241.142 156.273 240.208 156.1 239.369 155.754C238.54 155.398 237.824 154.902 237.223 154.264C236.63 153.626 236.174 152.869 235.855 151.994C235.536 151.119 235.377 150.162 235.377 149.123V148.549C235.377 147.346 235.555 146.275 235.91 145.336C236.266 144.388 236.749 143.586 237.359 142.93C237.97 142.273 238.663 141.777 239.438 141.439C240.212 141.102 241.014 140.934 241.844 140.934C242.901 140.934 243.812 141.116 244.578 141.48C245.353 141.845 245.986 142.355 246.479 143.012C246.971 143.659 247.335 144.424 247.572 145.309C247.809 146.184 247.928 147.141 247.928 148.18V149.314H236.881V147.25H245.398V147.059C245.362 146.402 245.225 145.764 244.988 145.145C244.76 144.525 244.396 144.014 243.895 143.613C243.393 143.212 242.71 143.012 241.844 143.012C241.27 143.012 240.741 143.135 240.258 143.381C239.775 143.618 239.36 143.973 239.014 144.447C238.667 144.921 238.398 145.5 238.207 146.184C238.016 146.867 237.92 147.656 237.92 148.549V149.123C237.92 149.825 238.016 150.486 238.207 151.105C238.408 151.716 238.695 152.254 239.068 152.719C239.451 153.184 239.911 153.548 240.449 153.812C240.996 154.077 241.616 154.209 242.309 154.209C243.202 154.209 243.958 154.027 244.578 153.662C245.198 153.298 245.74 152.81 246.205 152.199L247.736 153.416C247.417 153.899 247.012 154.359 246.52 154.797C246.027 155.234 245.421 155.59 244.701 155.863C243.99 156.137 243.147 156.273 242.172 156.273ZM261.982 154.469L266.098 141.207H268.805L262.871 158.283C262.734 158.648 262.552 159.04 262.324 159.459C262.105 159.887 261.823 160.293 261.477 160.676C261.13 161.059 260.711 161.368 260.219 161.605C259.736 161.852 259.157 161.975 258.482 161.975C258.282 161.975 258.027 161.947 257.717 161.893C257.407 161.838 257.188 161.792 257.061 161.756L257.047 159.705C257.12 159.714 257.234 159.723 257.389 159.732C257.553 159.751 257.667 159.76 257.73 159.76C258.305 159.76 258.792 159.682 259.193 159.527C259.594 159.382 259.932 159.131 260.205 158.775C260.488 158.429 260.729 157.951 260.93 157.34L261.982 154.469ZM258.961 141.207L262.803 152.691L263.459 155.357L261.641 156.287L256.199 141.207H258.961ZM270.199 148.768V148.453C270.199 147.387 270.354 146.398 270.664 145.486C270.974 144.566 271.421 143.768 272.004 143.094C272.587 142.41 273.294 141.882 274.123 141.508C274.952 141.125 275.882 140.934 276.912 140.934C277.951 140.934 278.885 141.125 279.715 141.508C280.553 141.882 281.264 142.41 281.848 143.094C282.44 143.768 282.891 144.566 283.201 145.486C283.511 146.398 283.666 147.387 283.666 148.453V148.768C283.666 149.834 283.511 150.823 283.201 151.734C282.891 152.646 282.44 153.443 281.848 154.127C281.264 154.801 280.558 155.33 279.729 155.713C278.908 156.087 277.979 156.273 276.939 156.273C275.9 156.273 274.966 156.087 274.137 155.713C273.307 155.33 272.596 154.801 272.004 154.127C271.421 153.443 270.974 152.646 270.664 151.734C270.354 150.823 270.199 149.834 270.199 148.768ZM272.729 148.453V148.768C272.729 149.506 272.815 150.203 272.988 150.859C273.161 151.507 273.421 152.081 273.768 152.582C274.123 153.083 274.565 153.48 275.094 153.771C275.622 154.054 276.238 154.195 276.939 154.195C277.632 154.195 278.238 154.054 278.758 153.771C279.286 153.48 279.724 153.083 280.07 152.582C280.417 152.081 280.676 151.507 280.85 150.859C281.032 150.203 281.123 149.506 281.123 148.768V148.453C281.123 147.724 281.032 147.036 280.85 146.389C280.676 145.732 280.412 145.154 280.057 144.652C279.71 144.142 279.273 143.741 278.744 143.449C278.225 143.158 277.614 143.012 276.912 143.012C276.219 143.012 275.609 143.158 275.08 143.449C274.561 143.741 274.123 144.142 273.768 144.652C273.421 145.154 273.161 145.732 272.988 146.389C272.815 147.036 272.729 147.724 272.729 148.453ZM295.889 152.582V141.207H298.432V156H296.012L295.889 152.582ZM296.367 149.465L297.42 149.438C297.42 150.422 297.315 151.333 297.105 152.172C296.905 153.001 296.577 153.721 296.121 154.332C295.665 154.943 295.068 155.421 294.33 155.768C293.592 156.105 292.694 156.273 291.637 156.273C290.917 156.273 290.256 156.169 289.654 155.959C289.062 155.749 288.551 155.426 288.123 154.988C287.695 154.551 287.362 153.981 287.125 153.279C286.897 152.577 286.783 151.734 286.783 150.75V141.207H289.312V150.777C289.312 151.443 289.385 151.994 289.531 152.432C289.686 152.86 289.891 153.202 290.146 153.457C290.411 153.703 290.702 153.876 291.021 153.977C291.35 154.077 291.687 154.127 292.033 154.127C293.109 154.127 293.961 153.922 294.59 153.512C295.219 153.092 295.67 152.532 295.943 151.83C296.226 151.119 296.367 150.331 296.367 149.465ZM304.816 143.531V156H302.287V141.207H304.748L304.816 143.531ZM309.438 141.125L309.424 143.477C309.214 143.431 309.014 143.404 308.822 143.395C308.64 143.376 308.43 143.367 308.193 143.367C307.61 143.367 307.095 143.458 306.648 143.641C306.202 143.823 305.824 144.078 305.514 144.406C305.204 144.734 304.958 145.126 304.775 145.582C304.602 146.029 304.488 146.521 304.434 147.059L303.723 147.469C303.723 146.576 303.809 145.737 303.982 144.953C304.165 144.169 304.443 143.477 304.816 142.875C305.19 142.264 305.664 141.79 306.238 141.453C306.822 141.107 307.514 140.934 308.316 140.934C308.499 140.934 308.708 140.956 308.945 141.002C309.182 141.038 309.346 141.079 309.438 141.125ZM328.305 141.207H330.602V155.686C330.602 156.989 330.337 158.101 329.809 159.021C329.28 159.942 328.542 160.639 327.594 161.113C326.655 161.596 325.57 161.838 324.34 161.838C323.829 161.838 323.228 161.756 322.535 161.592C321.852 161.437 321.177 161.168 320.512 160.785C319.855 160.411 319.304 159.906 318.857 159.268L320.184 157.764C320.803 158.511 321.451 159.031 322.125 159.322C322.809 159.614 323.483 159.76 324.148 159.76C324.951 159.76 325.643 159.609 326.227 159.309C326.81 159.008 327.261 158.561 327.58 157.969C327.908 157.385 328.072 156.665 328.072 155.809V144.461L328.305 141.207ZM318.119 148.768V148.48C318.119 147.35 318.251 146.325 318.516 145.404C318.789 144.475 319.176 143.677 319.678 143.012C320.188 142.346 320.803 141.836 321.523 141.48C322.243 141.116 323.055 140.934 323.957 140.934C324.887 140.934 325.698 141.098 326.391 141.426C327.092 141.745 327.685 142.214 328.168 142.834C328.66 143.445 329.048 144.183 329.33 145.049C329.613 145.915 329.809 146.895 329.918 147.988V149.246C329.818 150.331 329.622 151.306 329.33 152.172C329.048 153.038 328.66 153.776 328.168 154.387C327.685 154.997 327.092 155.467 326.391 155.795C325.689 156.114 324.868 156.273 323.93 156.273C323.046 156.273 322.243 156.087 321.523 155.713C320.812 155.339 320.202 154.815 319.691 154.141C319.181 153.466 318.789 152.673 318.516 151.762C318.251 150.841 318.119 149.843 318.119 148.768ZM320.648 148.48V148.768C320.648 149.506 320.721 150.199 320.867 150.846C321.022 151.493 321.255 152.062 321.564 152.555C321.883 153.047 322.289 153.434 322.781 153.717C323.273 153.99 323.861 154.127 324.545 154.127C325.383 154.127 326.076 153.949 326.623 153.594C327.17 153.238 327.603 152.769 327.922 152.186C328.25 151.602 328.505 150.969 328.688 150.285V146.99C328.587 146.489 328.432 146.006 328.223 145.541C328.022 145.067 327.758 144.648 327.43 144.283C327.111 143.91 326.714 143.613 326.24 143.395C325.766 143.176 325.21 143.066 324.572 143.066C323.88 143.066 323.283 143.212 322.781 143.504C322.289 143.786 321.883 144.178 321.564 144.68C321.255 145.172 321.022 145.746 320.867 146.402C320.721 147.049 320.648 147.742 320.648 148.48ZM337.191 135V156H334.648V135H337.191ZM340.582 148.768V148.453C340.582 147.387 340.737 146.398 341.047 145.486C341.357 144.566 341.803 143.768 342.387 143.094C342.97 142.41 343.676 141.882 344.506 141.508C345.335 141.125 346.265 140.934 347.295 140.934C348.334 140.934 349.268 141.125 350.098 141.508C350.936 141.882 351.647 142.41 352.23 143.094C352.823 143.768 353.274 144.566 353.584 145.486C353.894 146.398 354.049 147.387 354.049 148.453V148.768C354.049 149.834 353.894 150.823 353.584 151.734C353.274 152.646 352.823 153.443 352.23 154.127C351.647 154.801 350.941 155.33 350.111 155.713C349.291 156.087 348.361 156.273 347.322 156.273C346.283 156.273 345.349 156.087 344.52 155.713C343.69 155.33 342.979 154.801 342.387 154.127C341.803 153.443 341.357 152.646 341.047 151.734C340.737 150.823 340.582 149.834 340.582 148.768ZM343.111 148.453V148.768C343.111 149.506 343.198 150.203 343.371 150.859C343.544 151.507 343.804 152.081 344.15 152.582C344.506 153.083 344.948 153.48 345.477 153.771C346.005 154.054 346.62 154.195 347.322 154.195C348.015 154.195 348.621 154.054 349.141 153.771C349.669 153.48 350.107 153.083 350.453 152.582C350.799 152.081 351.059 151.507 351.232 150.859C351.415 150.203 351.506 149.506 351.506 148.768V148.453C351.506 147.724 351.415 147.036 351.232 146.389C351.059 145.732 350.795 145.154 350.439 144.652C350.093 144.142 349.656 143.741 349.127 143.449C348.607 143.158 347.997 143.012 347.295 143.012C346.602 143.012 345.992 143.158 345.463 143.449C344.943 143.741 344.506 144.142 344.15 144.652C343.804 145.154 343.544 145.732 343.371 146.389C343.198 147.036 343.111 147.724 343.111 148.453ZM357.207 135H359.75V153.129L359.531 156H357.207V135ZM369.744 148.48V148.768C369.744 149.843 369.617 150.841 369.361 151.762C369.106 152.673 368.732 153.466 368.24 154.141C367.748 154.815 367.146 155.339 366.436 155.713C365.725 156.087 364.909 156.273 363.988 156.273C363.049 156.273 362.225 156.114 361.514 155.795C360.812 155.467 360.219 154.997 359.736 154.387C359.253 153.776 358.866 153.038 358.574 152.172C358.292 151.306 358.096 150.331 357.986 149.246V147.988C358.096 146.895 358.292 145.915 358.574 145.049C358.866 144.183 359.253 143.445 359.736 142.834C360.219 142.214 360.812 141.745 361.514 141.426C362.215 141.098 363.031 140.934 363.961 140.934C364.891 140.934 365.715 141.116 366.436 141.48C367.156 141.836 367.757 142.346 368.24 143.012C368.732 143.677 369.106 144.475 369.361 145.404C369.617 146.325 369.744 147.35 369.744 148.48ZM367.201 148.768V148.48C367.201 147.742 367.133 147.049 366.996 146.402C366.859 145.746 366.641 145.172 366.34 144.68C366.039 144.178 365.643 143.786 365.15 143.504C364.658 143.212 364.052 143.066 363.332 143.066C362.694 143.066 362.138 143.176 361.664 143.395C361.199 143.613 360.803 143.91 360.475 144.283C360.146 144.648 359.878 145.067 359.668 145.541C359.467 146.006 359.317 146.489 359.217 146.99V150.285C359.363 150.923 359.6 151.538 359.928 152.131C360.265 152.714 360.712 153.193 361.268 153.566C361.833 153.94 362.53 154.127 363.359 154.127C364.043 154.127 364.626 153.99 365.109 153.717C365.602 153.434 365.998 153.047 366.299 152.555C366.609 152.062 366.837 151.493 366.982 150.846C367.128 150.199 367.201 149.506 367.201 148.768ZM381.666 153.471V145.855C381.666 145.272 381.548 144.766 381.311 144.338C381.083 143.9 380.736 143.563 380.271 143.326C379.807 143.089 379.232 142.971 378.549 142.971C377.911 142.971 377.35 143.08 376.867 143.299C376.393 143.518 376.02 143.805 375.746 144.16C375.482 144.516 375.35 144.898 375.35 145.309H372.82C372.82 144.78 372.957 144.256 373.23 143.736C373.504 143.217 373.896 142.747 374.406 142.328C374.926 141.9 375.546 141.562 376.266 141.316C376.995 141.061 377.806 140.934 378.699 140.934C379.775 140.934 380.723 141.116 381.543 141.48C382.372 141.845 383.02 142.396 383.484 143.135C383.958 143.864 384.195 144.78 384.195 145.883V152.773C384.195 153.266 384.236 153.79 384.318 154.346C384.41 154.902 384.542 155.38 384.715 155.781V156H382.076C381.949 155.708 381.848 155.321 381.775 154.838C381.702 154.346 381.666 153.89 381.666 153.471ZM382.104 147.031L382.131 148.809H379.574C378.854 148.809 378.212 148.868 377.646 148.986C377.081 149.096 376.607 149.264 376.225 149.492C375.842 149.72 375.55 150.007 375.35 150.354C375.149 150.691 375.049 151.087 375.049 151.543C375.049 152.008 375.154 152.432 375.363 152.814C375.573 153.197 375.887 153.503 376.307 153.73C376.735 153.949 377.259 154.059 377.879 154.059C378.654 154.059 379.337 153.895 379.93 153.566C380.522 153.238 380.992 152.837 381.338 152.363C381.693 151.889 381.885 151.429 381.912 150.982L382.992 152.199C382.928 152.582 382.755 153.006 382.473 153.471C382.19 153.936 381.812 154.382 381.338 154.811C380.873 155.23 380.317 155.581 379.67 155.863C379.032 156.137 378.312 156.273 377.51 156.273C376.507 156.273 375.628 156.077 374.871 155.686C374.124 155.294 373.54 154.77 373.121 154.113C372.711 153.448 372.506 152.705 372.506 151.885C372.506 151.092 372.661 150.395 372.971 149.793C373.281 149.182 373.727 148.676 374.311 148.275C374.894 147.865 375.596 147.555 376.416 147.346C377.236 147.136 378.152 147.031 379.164 147.031H382.104ZM390.922 135V156H388.379V135H390.922ZM410.541 152.076C410.541 151.712 410.459 151.374 410.295 151.064C410.14 150.745 409.816 150.458 409.324 150.203C408.841 149.939 408.112 149.711 407.137 149.52C406.316 149.346 405.574 149.141 404.908 148.904C404.252 148.667 403.691 148.38 403.227 148.043C402.771 147.706 402.42 147.309 402.174 146.854C401.928 146.398 401.805 145.865 401.805 145.254C401.805 144.671 401.932 144.119 402.188 143.6C402.452 143.08 402.821 142.62 403.295 142.219C403.778 141.818 404.357 141.503 405.031 141.275C405.706 141.048 406.458 140.934 407.287 140.934C408.472 140.934 409.484 141.143 410.322 141.562C411.161 141.982 411.803 142.542 412.25 143.244C412.697 143.937 412.92 144.707 412.92 145.555H410.391C410.391 145.145 410.268 144.748 410.021 144.365C409.785 143.973 409.434 143.65 408.969 143.395C408.513 143.139 407.952 143.012 407.287 143.012C406.585 143.012 406.016 143.121 405.578 143.34C405.15 143.549 404.835 143.818 404.635 144.146C404.443 144.475 404.348 144.821 404.348 145.186C404.348 145.459 404.393 145.705 404.484 145.924C404.585 146.133 404.758 146.329 405.004 146.512C405.25 146.685 405.596 146.849 406.043 147.004C406.49 147.159 407.059 147.314 407.752 147.469C408.964 147.742 409.962 148.07 410.746 148.453C411.53 148.836 412.113 149.305 412.496 149.861C412.879 150.417 413.07 151.092 413.07 151.885C413.07 152.532 412.934 153.124 412.66 153.662C412.396 154.2 412.008 154.665 411.498 155.057C410.997 155.439 410.395 155.74 409.693 155.959C409.001 156.169 408.221 156.273 407.355 156.273C406.052 156.273 404.949 156.041 404.047 155.576C403.145 155.111 402.461 154.51 401.996 153.771C401.531 153.033 401.299 152.254 401.299 151.434H403.842C403.878 152.126 404.079 152.678 404.443 153.088C404.808 153.489 405.255 153.776 405.783 153.949C406.312 154.113 406.836 154.195 407.355 154.195C408.048 154.195 408.627 154.104 409.092 153.922C409.566 153.74 409.926 153.489 410.172 153.17C410.418 152.851 410.541 152.486 410.541 152.076ZM422.586 141.207V143.148H414.588V141.207H422.586ZM417.295 137.611H419.824V152.336C419.824 152.837 419.902 153.215 420.057 153.471C420.212 153.726 420.412 153.895 420.658 153.977C420.904 154.059 421.169 154.1 421.451 154.1C421.661 154.1 421.88 154.081 422.107 154.045C422.344 153.999 422.522 153.963 422.641 153.936L422.654 156C422.454 156.064 422.189 156.123 421.861 156.178C421.542 156.242 421.155 156.273 420.699 156.273C420.079 156.273 419.51 156.15 418.99 155.904C418.471 155.658 418.056 155.248 417.746 154.674C417.445 154.09 417.295 153.307 417.295 152.322V137.611ZM434.275 153.471V145.855C434.275 145.272 434.157 144.766 433.92 144.338C433.692 143.9 433.346 143.563 432.881 143.326C432.416 143.089 431.842 142.971 431.158 142.971C430.52 142.971 429.96 143.08 429.477 143.299C429.003 143.518 428.629 143.805 428.355 144.16C428.091 144.516 427.959 144.898 427.959 145.309H425.43C425.43 144.78 425.566 144.256 425.84 143.736C426.113 143.217 426.505 142.747 427.016 142.328C427.535 141.9 428.155 141.562 428.875 141.316C429.604 141.061 430.415 140.934 431.309 140.934C432.384 140.934 433.332 141.116 434.152 141.48C434.982 141.845 435.629 142.396 436.094 143.135C436.568 143.864 436.805 144.78 436.805 145.883V152.773C436.805 153.266 436.846 153.79 436.928 154.346C437.019 154.902 437.151 155.38 437.324 155.781V156H434.686C434.558 155.708 434.458 155.321 434.385 154.838C434.312 154.346 434.275 153.89 434.275 153.471ZM434.713 147.031L434.74 148.809H432.184C431.464 148.809 430.821 148.868 430.256 148.986C429.691 149.096 429.217 149.264 428.834 149.492C428.451 149.72 428.16 150.007 427.959 150.354C427.758 150.691 427.658 151.087 427.658 151.543C427.658 152.008 427.763 152.432 427.973 152.814C428.182 153.197 428.497 153.503 428.916 153.73C429.344 153.949 429.868 154.059 430.488 154.059C431.263 154.059 431.947 153.895 432.539 153.566C433.132 153.238 433.601 152.837 433.947 152.363C434.303 151.889 434.494 151.429 434.521 150.982L435.602 152.199C435.538 152.582 435.365 153.006 435.082 153.471C434.799 153.936 434.421 154.382 433.947 154.811C433.482 155.23 432.926 155.581 432.279 155.863C431.641 156.137 430.921 156.273 430.119 156.273C429.117 156.273 428.237 156.077 427.48 155.686C426.733 155.294 426.15 154.77 425.73 154.113C425.32 153.448 425.115 152.705 425.115 151.885C425.115 151.092 425.27 150.395 425.58 149.793C425.89 149.182 426.337 148.676 426.92 148.275C427.503 147.865 428.205 147.555 429.025 147.346C429.846 147.136 430.762 147.031 431.773 147.031H434.713ZM446.977 141.207V143.148H438.979V141.207H446.977ZM441.686 137.611H444.215V152.336C444.215 152.837 444.292 153.215 444.447 153.471C444.602 153.726 444.803 153.895 445.049 153.977C445.295 154.059 445.559 154.1 445.842 154.1C446.051 154.1 446.27 154.081 446.498 154.045C446.735 153.999 446.913 153.963 447.031 153.936L447.045 156C446.844 156.064 446.58 156.123 446.252 156.178C445.933 156.242 445.546 156.273 445.09 156.273C444.47 156.273 443.9 156.15 443.381 155.904C442.861 155.658 442.447 155.248 442.137 154.674C441.836 154.09 441.686 153.307 441.686 152.322V137.611ZM456.082 156.273C455.052 156.273 454.118 156.1 453.279 155.754C452.45 155.398 451.734 154.902 451.133 154.264C450.54 153.626 450.085 152.869 449.766 151.994C449.447 151.119 449.287 150.162 449.287 149.123V148.549C449.287 147.346 449.465 146.275 449.82 145.336C450.176 144.388 450.659 143.586 451.27 142.93C451.88 142.273 452.573 141.777 453.348 141.439C454.122 141.102 454.924 140.934 455.754 140.934C456.811 140.934 457.723 141.116 458.488 141.48C459.263 141.845 459.896 142.355 460.389 143.012C460.881 143.659 461.245 144.424 461.482 145.309C461.719 146.184 461.838 147.141 461.838 148.18V149.314H450.791V147.25H459.309V147.059C459.272 146.402 459.135 145.764 458.898 145.145C458.671 144.525 458.306 144.014 457.805 143.613C457.303 143.212 456.62 143.012 455.754 143.012C455.18 143.012 454.651 143.135 454.168 143.381C453.685 143.618 453.27 143.973 452.924 144.447C452.577 144.921 452.309 145.5 452.117 146.184C451.926 146.867 451.83 147.656 451.83 148.549V149.123C451.83 149.825 451.926 150.486 452.117 151.105C452.318 151.716 452.605 152.254 452.979 152.719C453.361 153.184 453.822 153.548 454.359 153.812C454.906 154.077 455.526 154.209 456.219 154.209C457.112 154.209 457.868 154.027 458.488 153.662C459.108 153.298 459.65 152.81 460.115 152.199L461.646 153.416C461.327 153.899 460.922 154.359 460.43 154.797C459.938 155.234 459.331 155.59 458.611 155.863C457.9 156.137 457.057 156.273 456.082 156.273ZM467.088 152.992V155.029C467.088 155.859 466.878 156.734 466.459 157.654C466.04 158.584 465.452 159.359 464.695 159.979L463.26 158.98C463.551 158.579 463.798 158.169 463.998 157.75C464.199 157.34 464.349 156.911 464.449 156.465C464.559 156.027 464.613 155.562 464.613 155.07V152.992H467.088ZM477.328 141.207H479.871V157.764C479.871 158.666 479.725 159.432 479.434 160.061C479.151 160.689 478.723 161.163 478.148 161.482C477.583 161.811 476.868 161.975 476.002 161.975C475.774 161.975 475.51 161.952 475.209 161.906C474.899 161.861 474.639 161.806 474.43 161.742L474.443 159.705C474.617 159.742 474.812 159.769 475.031 159.787C475.25 159.814 475.441 159.828 475.605 159.828C475.979 159.828 476.294 159.76 476.549 159.623C476.804 159.486 476.995 159.268 477.123 158.967C477.26 158.666 477.328 158.265 477.328 157.764V141.207ZM477.068 137.283C477.068 136.873 477.196 136.527 477.451 136.244C477.706 135.962 478.076 135.82 478.559 135.82C479.051 135.82 479.424 135.962 479.68 136.244C479.935 136.527 480.062 136.873 480.062 137.283C480.062 137.675 479.935 138.012 479.68 138.295C479.424 138.568 479.051 138.705 478.559 138.705C478.076 138.705 477.706 138.568 477.451 138.295C477.196 138.012 477.068 137.675 477.068 137.283ZM493.01 152.582V141.207H495.553V156H493.133L493.01 152.582ZM493.488 149.465L494.541 149.438C494.541 150.422 494.436 151.333 494.227 152.172C494.026 153.001 493.698 153.721 493.242 154.332C492.786 154.943 492.189 155.421 491.451 155.768C490.713 156.105 489.815 156.273 488.758 156.273C488.038 156.273 487.377 156.169 486.775 155.959C486.183 155.749 485.673 155.426 485.244 154.988C484.816 154.551 484.483 153.981 484.246 153.279C484.018 152.577 483.904 151.734 483.904 150.75V141.207H486.434V150.777C486.434 151.443 486.507 151.994 486.652 152.432C486.807 152.86 487.012 153.202 487.268 153.457C487.532 153.703 487.824 153.876 488.143 153.977C488.471 154.077 488.808 154.127 489.154 154.127C490.23 154.127 491.082 153.922 491.711 153.512C492.34 153.092 492.791 152.532 493.064 151.83C493.347 151.119 493.488 150.331 493.488 149.465ZM508.021 152.076C508.021 151.712 507.939 151.374 507.775 151.064C507.62 150.745 507.297 150.458 506.805 150.203C506.322 149.939 505.592 149.711 504.617 149.52C503.797 149.346 503.054 149.141 502.389 148.904C501.732 148.667 501.172 148.38 500.707 148.043C500.251 147.706 499.9 147.309 499.654 146.854C499.408 146.398 499.285 145.865 499.285 145.254C499.285 144.671 499.413 144.119 499.668 143.6C499.932 143.08 500.301 142.62 500.775 142.219C501.258 141.818 501.837 141.503 502.512 141.275C503.186 141.048 503.938 140.934 504.768 140.934C505.952 140.934 506.964 141.143 507.803 141.562C508.641 141.982 509.284 142.542 509.73 143.244C510.177 143.937 510.4 144.707 510.4 145.555H507.871C507.871 145.145 507.748 144.748 507.502 144.365C507.265 143.973 506.914 143.65 506.449 143.395C505.993 143.139 505.433 143.012 504.768 143.012C504.066 143.012 503.496 143.121 503.059 143.34C502.63 143.549 502.316 143.818 502.115 144.146C501.924 144.475 501.828 144.821 501.828 145.186C501.828 145.459 501.874 145.705 501.965 145.924C502.065 146.133 502.238 146.329 502.484 146.512C502.73 146.685 503.077 146.849 503.523 147.004C503.97 147.159 504.54 147.314 505.232 147.469C506.445 147.742 507.443 148.07 508.227 148.453C509.01 148.836 509.594 149.305 509.977 149.861C510.359 150.417 510.551 151.092 510.551 151.885C510.551 152.532 510.414 153.124 510.141 153.662C509.876 154.2 509.489 154.665 508.979 155.057C508.477 155.439 507.876 155.74 507.174 155.959C506.481 156.169 505.702 156.273 504.836 156.273C503.533 156.273 502.43 156.041 501.527 155.576C500.625 155.111 499.941 154.51 499.477 153.771C499.012 153.033 498.779 152.254 498.779 151.434H501.322C501.359 152.126 501.559 152.678 501.924 153.088C502.288 153.489 502.735 153.776 503.264 153.949C503.792 154.113 504.316 154.195 504.836 154.195C505.529 154.195 506.107 154.104 506.572 153.922C507.046 153.74 507.406 153.489 507.652 153.17C507.898 152.851 508.021 152.486 508.021 152.076ZM520.066 141.207V143.148H512.068V141.207H520.066ZM514.775 137.611H517.305V152.336C517.305 152.837 517.382 153.215 517.537 153.471C517.692 153.726 517.893 153.895 518.139 153.977C518.385 154.059 518.649 154.1 518.932 154.1C519.141 154.1 519.36 154.081 519.588 154.045C519.825 153.999 520.003 153.963 520.121 153.936L520.135 156C519.934 156.064 519.67 156.123 519.342 156.178C519.023 156.242 518.635 156.273 518.18 156.273C517.56 156.273 516.99 156.15 516.471 155.904C515.951 155.658 515.536 155.248 515.227 154.674C514.926 154.09 514.775 153.307 514.775 152.322V137.611ZM532.727 135V156H530.184V135H532.727ZM539.535 141.207V156H536.992V141.207H539.535ZM536.801 137.283C536.801 136.873 536.924 136.527 537.17 136.244C537.425 135.962 537.799 135.82 538.291 135.82C538.774 135.82 539.143 135.962 539.398 136.244C539.663 136.527 539.795 136.873 539.795 137.283C539.795 137.675 539.663 138.012 539.398 138.295C539.143 138.568 538.774 138.705 538.291 138.705C537.799 138.705 537.425 138.568 537.17 138.295C536.924 138.012 536.801 137.675 536.801 137.283ZM546.139 135V156H543.596V135H546.139ZM555.176 141.207L548.723 148.111L545.113 151.857L544.908 149.164L547.492 146.074L552.086 141.207H555.176ZM552.865 156L547.588 148.945L548.9 146.689L555.846 156H552.865ZM563.652 156.273C562.622 156.273 561.688 156.1 560.85 155.754C560.02 155.398 559.305 154.902 558.703 154.264C558.111 153.626 557.655 152.869 557.336 151.994C557.017 151.119 556.857 150.162 556.857 149.123V148.549C556.857 147.346 557.035 146.275 557.391 145.336C557.746 144.388 558.229 143.586 558.84 142.93C559.451 142.273 560.143 141.777 560.918 141.439C561.693 141.102 562.495 140.934 563.324 140.934C564.382 140.934 565.293 141.116 566.059 141.48C566.833 141.845 567.467 142.355 567.959 143.012C568.451 143.659 568.816 144.424 569.053 145.309C569.29 146.184 569.408 147.141 569.408 148.18V149.314H558.361V147.25H566.879V147.059C566.842 146.402 566.706 145.764 566.469 145.145C566.241 144.525 565.876 144.014 565.375 143.613C564.874 143.212 564.19 143.012 563.324 143.012C562.75 143.012 562.221 143.135 561.738 143.381C561.255 143.618 560.84 143.973 560.494 144.447C560.148 144.921 559.879 145.5 559.688 146.184C559.496 146.867 559.4 147.656 559.4 148.549V149.123C559.4 149.825 559.496 150.486 559.688 151.105C559.888 151.716 560.175 152.254 560.549 152.719C560.932 153.184 561.392 153.548 561.93 153.812C562.477 154.077 563.096 154.209 563.789 154.209C564.682 154.209 565.439 154.027 566.059 153.662C566.678 153.298 567.221 152.81 567.686 152.199L569.217 153.416C568.898 153.899 568.492 154.359 568 154.797C567.508 155.234 566.902 155.59 566.182 155.863C565.471 156.137 564.628 156.273 563.652 156.273ZM588.357 152.582V141.207H590.9V156H588.48L588.357 152.582ZM588.836 149.465L589.889 149.438C589.889 150.422 589.784 151.333 589.574 152.172C589.374 153.001 589.046 153.721 588.59 154.332C588.134 154.943 587.537 155.421 586.799 155.768C586.061 156.105 585.163 156.273 584.105 156.273C583.385 156.273 582.725 156.169 582.123 155.959C581.531 155.749 581.02 155.426 580.592 154.988C580.163 154.551 579.831 153.981 579.594 153.279C579.366 152.577 579.252 151.734 579.252 150.75V141.207H581.781V150.777C581.781 151.443 581.854 151.994 582 152.432C582.155 152.86 582.36 153.202 582.615 153.457C582.88 153.703 583.171 153.876 583.49 153.977C583.818 154.077 584.156 154.127 584.502 154.127C585.577 154.127 586.43 153.922 587.059 153.512C587.688 153.092 588.139 152.532 588.412 151.83C588.695 151.119 588.836 150.331 588.836 149.465ZM603.369 152.076C603.369 151.712 603.287 151.374 603.123 151.064C602.968 150.745 602.645 150.458 602.152 150.203C601.669 149.939 600.94 149.711 599.965 149.52C599.145 149.346 598.402 149.141 597.736 148.904C597.08 148.667 596.52 148.38 596.055 148.043C595.599 147.706 595.248 147.309 595.002 146.854C594.756 146.398 594.633 145.865 594.633 145.254C594.633 144.671 594.76 144.119 595.016 143.6C595.28 143.08 595.649 142.62 596.123 142.219C596.606 141.818 597.185 141.503 597.859 141.275C598.534 141.048 599.286 140.934 600.115 140.934C601.3 140.934 602.312 141.143 603.15 141.562C603.989 141.982 604.632 142.542 605.078 143.244C605.525 143.937 605.748 144.707 605.748 145.555H603.219C603.219 145.145 603.096 144.748 602.85 144.365C602.613 143.973 602.262 143.65 601.797 143.395C601.341 143.139 600.781 143.012 600.115 143.012C599.413 143.012 598.844 143.121 598.406 143.34C597.978 143.549 597.663 143.818 597.463 144.146C597.271 144.475 597.176 144.821 597.176 145.186C597.176 145.459 597.221 145.705 597.312 145.924C597.413 146.133 597.586 146.329 597.832 146.512C598.078 146.685 598.424 146.849 598.871 147.004C599.318 147.159 599.887 147.314 600.58 147.469C601.792 147.742 602.79 148.07 603.574 148.453C604.358 148.836 604.941 149.305 605.324 149.861C605.707 150.417 605.898 151.092 605.898 151.885C605.898 152.532 605.762 153.124 605.488 153.662C605.224 154.2 604.837 154.665 604.326 155.057C603.825 155.439 603.223 155.74 602.521 155.959C601.829 156.169 601.049 156.273 600.184 156.273C598.88 156.273 597.777 156.041 596.875 155.576C595.973 155.111 595.289 154.51 594.824 153.771C594.359 153.033 594.127 152.254 594.127 151.434H596.67C596.706 152.126 596.907 152.678 597.271 153.088C597.636 153.489 598.083 153.776 598.611 153.949C599.14 154.113 599.664 154.195 600.184 154.195C600.876 154.195 601.455 154.104 601.92 153.922C602.394 153.74 602.754 153.489 603 153.17C603.246 152.851 603.369 152.486 603.369 152.076ZM611.969 141.207V156H609.426V141.207H611.969ZM609.234 137.283C609.234 136.873 609.357 136.527 609.604 136.244C609.859 135.962 610.232 135.82 610.725 135.82C611.208 135.82 611.577 135.962 611.832 136.244C612.096 136.527 612.229 136.873 612.229 137.283C612.229 137.675 612.096 138.012 611.832 138.295C611.577 138.568 611.208 138.705 610.725 138.705C610.232 138.705 609.859 138.568 609.604 138.295C609.357 138.012 609.234 137.675 609.234 137.283ZM618.559 144.365V156H616.029V141.207H618.422L618.559 144.365ZM617.957 148.043L616.904 148.002C616.913 146.99 617.064 146.056 617.355 145.199C617.647 144.333 618.057 143.581 618.586 142.943C619.115 142.305 619.743 141.813 620.473 141.467C621.211 141.111 622.027 140.934 622.92 140.934C623.649 140.934 624.305 141.034 624.889 141.234C625.472 141.426 625.969 141.736 626.379 142.164C626.798 142.592 627.117 143.148 627.336 143.832C627.555 144.507 627.664 145.331 627.664 146.307V156H625.121V146.279C625.121 145.505 625.007 144.885 624.779 144.42C624.551 143.946 624.219 143.604 623.781 143.395C623.344 143.176 622.806 143.066 622.168 143.066C621.539 143.066 620.965 143.199 620.445 143.463C619.935 143.727 619.493 144.092 619.119 144.557C618.755 145.021 618.467 145.555 618.258 146.156C618.057 146.749 617.957 147.378 617.957 148.043ZM641.09 141.207H643.387V155.686C643.387 156.989 643.122 158.101 642.594 159.021C642.065 159.942 641.327 160.639 640.379 161.113C639.44 161.596 638.355 161.838 637.125 161.838C636.615 161.838 636.013 161.756 635.32 161.592C634.637 161.437 633.962 161.168 633.297 160.785C632.641 160.411 632.089 159.906 631.643 159.268L632.969 157.764C633.589 158.511 634.236 159.031 634.91 159.322C635.594 159.614 636.268 159.76 636.934 159.76C637.736 159.76 638.428 159.609 639.012 159.309C639.595 159.008 640.046 158.561 640.365 157.969C640.693 157.385 640.857 156.665 640.857 155.809V144.461L641.09 141.207ZM630.904 148.768V148.48C630.904 147.35 631.036 146.325 631.301 145.404C631.574 144.475 631.962 143.677 632.463 143.012C632.973 142.346 633.589 141.836 634.309 141.48C635.029 141.116 635.84 140.934 636.742 140.934C637.672 140.934 638.483 141.098 639.176 141.426C639.878 141.745 640.47 142.214 640.953 142.834C641.445 143.445 641.833 144.183 642.115 145.049C642.398 145.915 642.594 146.895 642.703 147.988V149.246C642.603 150.331 642.407 151.306 642.115 152.172C641.833 153.038 641.445 153.776 640.953 154.387C640.47 154.997 639.878 155.467 639.176 155.795C638.474 156.114 637.654 156.273 636.715 156.273C635.831 156.273 635.029 156.087 634.309 155.713C633.598 155.339 632.987 154.815 632.477 154.141C631.966 153.466 631.574 152.673 631.301 151.762C631.036 150.841 630.904 149.843 630.904 148.768ZM633.434 148.48V148.768C633.434 149.506 633.507 150.199 633.652 150.846C633.807 151.493 634.04 152.062 634.35 152.555C634.669 153.047 635.074 153.434 635.566 153.717C636.059 153.99 636.646 154.127 637.33 154.127C638.169 154.127 638.861 153.949 639.408 153.594C639.955 153.238 640.388 152.769 640.707 152.186C641.035 151.602 641.29 150.969 641.473 150.285V146.99C641.372 146.489 641.217 146.006 641.008 145.541C640.807 145.067 640.543 144.648 640.215 144.283C639.896 143.91 639.499 143.613 639.025 143.395C638.551 143.176 637.995 143.066 637.357 143.066C636.665 143.066 636.068 143.212 635.566 143.504C635.074 143.786 634.669 144.178 634.35 144.68C634.04 145.172 633.807 145.746 633.652 146.402C633.507 147.049 633.434 147.742 633.434 148.48ZM660.367 141.207V143.148H652.369V141.207H660.367ZM655.076 137.611H657.605V152.336C657.605 152.837 657.683 153.215 657.838 153.471C657.993 153.726 658.193 153.895 658.439 153.977C658.686 154.059 658.95 154.1 659.232 154.1C659.442 154.1 659.661 154.081 659.889 154.045C660.126 153.999 660.303 153.963 660.422 153.936L660.436 156C660.235 156.064 659.971 156.123 659.643 156.178C659.324 156.242 658.936 156.273 658.48 156.273C657.861 156.273 657.291 156.15 656.771 155.904C656.252 155.658 655.837 155.248 655.527 154.674C655.227 154.09 655.076 153.307 655.076 152.322V137.611ZM665.863 135V156H663.334V135H665.863ZM665.262 148.043L664.209 148.002C664.218 146.99 664.368 146.056 664.66 145.199C664.952 144.333 665.362 143.581 665.891 142.943C666.419 142.305 667.048 141.813 667.777 141.467C668.516 141.111 669.331 140.934 670.225 140.934C670.954 140.934 671.61 141.034 672.193 141.234C672.777 141.426 673.273 141.736 673.684 142.164C674.103 142.592 674.422 143.148 674.641 143.832C674.859 144.507 674.969 145.331 674.969 146.307V156H672.426V146.279C672.426 145.505 672.312 144.885 672.084 144.42C671.856 143.946 671.523 143.604 671.086 143.395C670.648 143.176 670.111 143.066 669.473 143.066C668.844 143.066 668.27 143.199 667.75 143.463C667.24 143.727 666.798 144.092 666.424 144.557C666.059 145.021 665.772 145.555 665.562 146.156C665.362 146.749 665.262 147.378 665.262 148.043ZM684.895 156.273C683.865 156.273 682.93 156.1 682.092 155.754C681.262 155.398 680.547 154.902 679.945 154.264C679.353 153.626 678.897 152.869 678.578 151.994C678.259 151.119 678.1 150.162 678.1 149.123V148.549C678.1 147.346 678.277 146.275 678.633 145.336C678.988 144.388 679.471 143.586 680.082 142.93C680.693 142.273 681.385 141.777 682.16 141.439C682.935 141.102 683.737 140.934 684.566 140.934C685.624 140.934 686.535 141.116 687.301 141.48C688.076 141.845 688.709 142.355 689.201 143.012C689.693 143.659 690.058 144.424 690.295 145.309C690.532 146.184 690.65 147.141 690.65 148.18V149.314H679.604V147.25H688.121V147.059C688.085 146.402 687.948 145.764 687.711 145.145C687.483 144.525 687.118 144.014 686.617 143.613C686.116 143.212 685.432 143.012 684.566 143.012C683.992 143.012 683.464 143.135 682.98 143.381C682.497 143.618 682.083 143.973 681.736 144.447C681.39 144.921 681.121 145.5 680.93 146.184C680.738 146.867 680.643 147.656 680.643 148.549V149.123C680.643 149.825 680.738 150.486 680.93 151.105C681.13 151.716 681.417 152.254 681.791 152.719C682.174 153.184 682.634 153.548 683.172 153.812C683.719 154.077 684.339 154.209 685.031 154.209C685.924 154.209 686.681 154.027 687.301 153.662C687.921 153.298 688.463 152.81 688.928 152.199L690.459 153.416C690.14 153.899 689.734 154.359 689.242 154.797C688.75 155.234 688.144 155.59 687.424 155.863C686.713 156.137 685.87 156.273 684.895 156.273ZM709.6 152.582V141.207H712.143V156H709.723L709.6 152.582ZM710.078 149.465L711.131 149.438C711.131 150.422 711.026 151.333 710.816 152.172C710.616 153.001 710.288 153.721 709.832 154.332C709.376 154.943 708.779 155.421 708.041 155.768C707.303 156.105 706.405 156.273 705.348 156.273C704.628 156.273 703.967 156.169 703.365 155.959C702.773 155.749 702.262 155.426 701.834 154.988C701.406 154.551 701.073 153.981 700.836 153.279C700.608 152.577 700.494 151.734 700.494 150.75V141.207H703.023V150.777C703.023 151.443 703.096 151.994 703.242 152.432C703.397 152.86 703.602 153.202 703.857 153.457C704.122 153.703 704.413 153.876 704.732 153.977C705.061 154.077 705.398 154.127 705.744 154.127C706.82 154.127 707.672 153.922 708.301 153.512C708.93 153.092 709.381 152.532 709.654 151.83C709.937 151.119 710.078 150.331 710.078 149.465ZM724.611 152.076C724.611 151.712 724.529 151.374 724.365 151.064C724.21 150.745 723.887 150.458 723.395 150.203C722.911 149.939 722.182 149.711 721.207 149.52C720.387 149.346 719.644 149.141 718.979 148.904C718.322 148.667 717.762 148.38 717.297 148.043C716.841 147.706 716.49 147.309 716.244 146.854C715.998 146.398 715.875 145.865 715.875 145.254C715.875 144.671 716.003 144.119 716.258 143.6C716.522 143.08 716.891 142.62 717.365 142.219C717.848 141.818 718.427 141.503 719.102 141.275C719.776 141.048 720.528 140.934 721.357 140.934C722.542 140.934 723.554 141.143 724.393 141.562C725.231 141.982 725.874 142.542 726.32 143.244C726.767 143.937 726.99 144.707 726.99 145.555H724.461C724.461 145.145 724.338 144.748 724.092 144.365C723.855 143.973 723.504 143.65 723.039 143.395C722.583 143.139 722.023 143.012 721.357 143.012C720.656 143.012 720.086 143.121 719.648 143.34C719.22 143.549 718.906 143.818 718.705 144.146C718.514 144.475 718.418 144.821 718.418 145.186C718.418 145.459 718.464 145.705 718.555 145.924C718.655 146.133 718.828 146.329 719.074 146.512C719.32 146.685 719.667 146.849 720.113 147.004C720.56 147.159 721.13 147.314 721.822 147.469C723.035 147.742 724.033 148.07 724.816 148.453C725.6 148.836 726.184 149.305 726.566 149.861C726.949 150.417 727.141 151.092 727.141 151.885C727.141 152.532 727.004 153.124 726.73 153.662C726.466 154.2 726.079 154.665 725.568 155.057C725.067 155.439 724.465 155.74 723.764 155.959C723.071 156.169 722.292 156.273 721.426 156.273C720.122 156.273 719.02 156.041 718.117 155.576C717.215 155.111 716.531 154.51 716.066 153.771C715.602 153.033 715.369 152.254 715.369 151.434H717.912C717.949 152.126 718.149 152.678 718.514 153.088C718.878 153.489 719.325 153.776 719.854 153.949C720.382 154.113 720.906 154.195 721.426 154.195C722.118 154.195 722.697 154.104 723.162 153.922C723.636 153.74 723.996 153.489 724.242 153.17C724.488 152.851 724.611 152.486 724.611 152.076ZM736.602 156.273C735.572 156.273 734.637 156.1 733.799 155.754C732.969 155.398 732.254 154.902 731.652 154.264C731.06 153.626 730.604 152.869 730.285 151.994C729.966 151.119 729.807 150.162 729.807 149.123V148.549C729.807 147.346 729.984 146.275 730.34 145.336C730.695 144.388 731.178 143.586 731.789 142.93C732.4 142.273 733.092 141.777 733.867 141.439C734.642 141.102 735.444 140.934 736.273 140.934C737.331 140.934 738.242 141.116 739.008 141.48C739.783 141.845 740.416 142.355 740.908 143.012C741.4 143.659 741.765 144.424 742.002 145.309C742.239 146.184 742.357 147.141 742.357 148.18V149.314H731.311V147.25H739.828V147.059C739.792 146.402 739.655 145.764 739.418 145.145C739.19 144.525 738.826 144.014 738.324 143.613C737.823 143.212 737.139 143.012 736.273 143.012C735.699 143.012 735.171 143.135 734.688 143.381C734.204 143.618 733.79 143.973 733.443 144.447C733.097 144.921 732.828 145.5 732.637 146.184C732.445 146.867 732.35 147.656 732.35 148.549V149.123C732.35 149.825 732.445 150.486 732.637 151.105C732.837 151.716 733.124 152.254 733.498 152.719C733.881 153.184 734.341 153.548 734.879 153.812C735.426 154.077 736.046 154.209 736.738 154.209C737.632 154.209 738.388 154.027 739.008 153.662C739.628 153.298 740.17 152.81 740.635 152.199L742.166 153.416C741.847 153.899 741.441 154.359 740.949 154.797C740.457 155.234 739.851 155.59 739.131 155.863C738.42 156.137 737.577 156.273 736.602 156.273ZM756.303 150.969C756.303 150.504 756.23 150.094 756.084 149.738C755.947 149.374 755.701 149.046 755.346 148.754C754.999 148.462 754.516 148.184 753.896 147.92C753.286 147.656 752.511 147.387 751.572 147.113C750.588 146.822 749.699 146.498 748.906 146.143C748.113 145.778 747.434 145.363 746.869 144.898C746.304 144.434 745.871 143.9 745.57 143.299C745.27 142.697 745.119 142.009 745.119 141.234C745.119 140.46 745.279 139.744 745.598 139.088C745.917 138.432 746.372 137.862 746.965 137.379C747.566 136.887 748.282 136.504 749.111 136.23C749.941 135.957 750.866 135.82 751.887 135.82C753.382 135.82 754.648 136.107 755.688 136.682C756.736 137.247 757.533 137.99 758.08 138.91C758.627 139.822 758.9 140.797 758.9 141.836H756.275C756.275 141.089 756.116 140.428 755.797 139.854C755.478 139.27 754.995 138.814 754.348 138.486C753.701 138.149 752.88 137.98 751.887 137.98C750.948 137.98 750.173 138.122 749.562 138.404C748.952 138.687 748.496 139.07 748.195 139.553C747.904 140.036 747.758 140.587 747.758 141.207C747.758 141.626 747.844 142.009 748.018 142.355C748.2 142.693 748.478 143.007 748.852 143.299C749.234 143.59 749.717 143.859 750.301 144.105C750.893 144.352 751.6 144.589 752.42 144.816C753.55 145.135 754.525 145.491 755.346 145.883C756.166 146.275 756.84 146.717 757.369 147.209C757.907 147.692 758.303 148.243 758.559 148.863C758.823 149.474 758.955 150.167 758.955 150.941C758.955 151.753 758.791 152.486 758.463 153.143C758.135 153.799 757.665 154.359 757.055 154.824C756.444 155.289 755.71 155.649 754.854 155.904C754.006 156.15 753.058 156.273 752.01 156.273C751.089 156.273 750.182 156.146 749.289 155.891C748.405 155.635 747.598 155.253 746.869 154.742C746.149 154.232 745.57 153.603 745.133 152.855C744.704 152.099 744.49 151.224 744.49 150.23H747.115C747.115 150.914 747.247 151.502 747.512 151.994C747.776 152.477 748.136 152.878 748.592 153.197C749.057 153.516 749.581 153.753 750.164 153.908C750.757 154.054 751.372 154.127 752.01 154.127C752.93 154.127 753.71 153.999 754.348 153.744C754.986 153.489 755.469 153.124 755.797 152.65C756.134 152.176 756.303 151.616 756.303 150.969ZM768.129 141.207V143.148H760.131V141.207H768.129ZM762.838 137.611H765.367V152.336C765.367 152.837 765.445 153.215 765.6 153.471C765.755 153.726 765.955 153.895 766.201 153.977C766.447 154.059 766.712 154.1 766.994 154.1C767.204 154.1 767.423 154.081 767.65 154.045C767.887 153.999 768.065 153.963 768.184 153.936L768.197 156C767.997 156.064 767.732 156.123 767.404 156.178C767.085 156.242 766.698 156.273 766.242 156.273C765.622 156.273 765.053 156.15 764.533 155.904C764.014 155.658 763.599 155.248 763.289 154.674C762.988 154.09 762.838 153.307 762.838 152.322V137.611ZM779.818 153.471V145.855C779.818 145.272 779.7 144.766 779.463 144.338C779.235 143.9 778.889 143.563 778.424 143.326C777.959 143.089 777.385 142.971 776.701 142.971C776.063 142.971 775.503 143.08 775.02 143.299C774.546 143.518 774.172 143.805 773.898 144.16C773.634 144.516 773.502 144.898 773.502 145.309H770.973C770.973 144.78 771.109 144.256 771.383 143.736C771.656 143.217 772.048 142.747 772.559 142.328C773.078 141.9 773.698 141.562 774.418 141.316C775.147 141.061 775.958 140.934 776.852 140.934C777.927 140.934 778.875 141.116 779.695 141.48C780.525 141.845 781.172 142.396 781.637 143.135C782.111 143.864 782.348 144.78 782.348 145.883V152.773C782.348 153.266 782.389 153.79 782.471 154.346C782.562 154.902 782.694 155.38 782.867 155.781V156H780.229C780.101 155.708 780.001 155.321 779.928 154.838C779.855 154.346 779.818 153.89 779.818 153.471ZM780.256 147.031L780.283 148.809H777.727C777.007 148.809 776.364 148.868 775.799 148.986C775.234 149.096 774.76 149.264 774.377 149.492C773.994 149.72 773.702 150.007 773.502 150.354C773.301 150.691 773.201 151.087 773.201 151.543C773.201 152.008 773.306 152.432 773.516 152.814C773.725 153.197 774.04 153.503 774.459 153.73C774.887 153.949 775.411 154.059 776.031 154.059C776.806 154.059 777.49 153.895 778.082 153.566C778.674 153.238 779.144 152.837 779.49 152.363C779.846 151.889 780.037 151.429 780.064 150.982L781.145 152.199C781.081 152.582 780.908 153.006 780.625 153.471C780.342 153.936 779.964 154.382 779.49 154.811C779.025 155.23 778.469 155.581 777.822 155.863C777.184 156.137 776.464 156.273 775.662 156.273C774.66 156.273 773.78 156.077 773.023 155.686C772.276 155.294 771.693 154.77 771.273 154.113C770.863 153.448 770.658 152.705 770.658 151.885C770.658 151.092 770.813 150.395 771.123 149.793C771.433 149.182 771.88 148.676 772.463 148.275C773.046 147.865 773.748 147.555 774.568 147.346C775.389 147.136 776.305 147.031 777.316 147.031H780.256ZM792.52 141.207V143.148H784.521V141.207H792.52ZM787.229 137.611H789.758V152.336C789.758 152.837 789.835 153.215 789.99 153.471C790.145 153.726 790.346 153.895 790.592 153.977C790.838 154.059 791.102 154.1 791.385 154.1C791.594 154.1 791.813 154.081 792.041 154.045C792.278 153.999 792.456 153.963 792.574 153.936L792.588 156C792.387 156.064 792.123 156.123 791.795 156.178C791.476 156.242 791.089 156.273 790.633 156.273C790.013 156.273 789.443 156.15 788.924 155.904C788.404 155.658 787.99 155.248 787.68 154.674C787.379 154.09 787.229 153.307 787.229 152.322V137.611ZM801.625 156.273C800.595 156.273 799.661 156.1 798.822 155.754C797.993 155.398 797.277 154.902 796.676 154.264C796.083 153.626 795.628 152.869 795.309 151.994C794.99 151.119 794.83 150.162 794.83 149.123V148.549C794.83 147.346 795.008 146.275 795.363 145.336C795.719 144.388 796.202 143.586 796.812 142.93C797.423 142.273 798.116 141.777 798.891 141.439C799.665 141.102 800.467 140.934 801.297 140.934C802.354 140.934 803.266 141.116 804.031 141.48C804.806 141.845 805.439 142.355 805.932 143.012C806.424 143.659 806.788 144.424 807.025 145.309C807.262 146.184 807.381 147.141 807.381 148.18V149.314H796.334V147.25H804.852V147.059C804.815 146.402 804.678 145.764 804.441 145.145C804.214 144.525 803.849 144.014 803.348 143.613C802.846 143.212 802.163 143.012 801.297 143.012C800.723 143.012 800.194 143.135 799.711 143.381C799.228 143.618 798.813 143.973 798.467 144.447C798.12 144.921 797.852 145.5 797.66 146.184C797.469 146.867 797.373 147.656 797.373 148.549V149.123C797.373 149.825 797.469 150.486 797.66 151.105C797.861 151.716 798.148 152.254 798.521 152.719C798.904 153.184 799.365 153.548 799.902 153.812C800.449 154.077 801.069 154.209 801.762 154.209C802.655 154.209 803.411 154.027 804.031 153.662C804.651 153.298 805.193 152.81 805.658 152.199L807.189 153.416C806.87 153.899 806.465 154.359 805.973 154.797C805.48 155.234 804.874 155.59 804.154 155.863C803.443 156.137 802.6 156.273 801.625 156.273ZM819.809 135V156H817.279V135H819.809ZM819.207 148.043L818.154 148.002C818.163 146.99 818.314 146.056 818.605 145.199C818.897 144.333 819.307 143.581 819.836 142.943C820.365 142.305 820.993 141.813 821.723 141.467C822.461 141.111 823.277 140.934 824.17 140.934C824.899 140.934 825.555 141.034 826.139 141.234C826.722 141.426 827.219 141.736 827.629 142.164C828.048 142.592 828.367 143.148 828.586 143.832C828.805 144.507 828.914 145.331 828.914 146.307V156H826.371V146.279C826.371 145.505 826.257 144.885 826.029 144.42C825.801 143.946 825.469 143.604 825.031 143.395C824.594 143.176 824.056 143.066 823.418 143.066C822.789 143.066 822.215 143.199 821.695 143.463C821.185 143.727 820.743 144.092 820.369 144.557C820.005 145.021 819.717 145.555 819.508 146.156C819.307 146.749 819.207 147.378 819.207 148.043ZM832.031 148.768V148.453C832.031 147.387 832.186 146.398 832.496 145.486C832.806 144.566 833.253 143.768 833.836 143.094C834.419 142.41 835.126 141.882 835.955 141.508C836.785 141.125 837.714 140.934 838.744 140.934C839.783 140.934 840.717 141.125 841.547 141.508C842.385 141.882 843.096 142.41 843.68 143.094C844.272 143.768 844.723 144.566 845.033 145.486C845.343 146.398 845.498 147.387 845.498 148.453V148.768C845.498 149.834 845.343 150.823 845.033 151.734C844.723 152.646 844.272 153.443 843.68 154.127C843.096 154.801 842.39 155.33 841.561 155.713C840.74 156.087 839.811 156.273 838.771 156.273C837.732 156.273 836.798 156.087 835.969 155.713C835.139 155.33 834.428 154.801 833.836 154.127C833.253 153.443 832.806 152.646 832.496 151.734C832.186 150.823 832.031 149.834 832.031 148.768ZM834.561 148.453V148.768C834.561 149.506 834.647 150.203 834.82 150.859C834.993 151.507 835.253 152.081 835.6 152.582C835.955 153.083 836.397 153.48 836.926 153.771C837.454 154.054 838.07 154.195 838.771 154.195C839.464 154.195 840.07 154.054 840.59 153.771C841.118 153.48 841.556 153.083 841.902 152.582C842.249 152.081 842.508 151.507 842.682 150.859C842.864 150.203 842.955 149.506 842.955 148.768V148.453C842.955 147.724 842.864 147.036 842.682 146.389C842.508 145.732 842.244 145.154 841.889 144.652C841.542 144.142 841.105 143.741 840.576 143.449C840.057 143.158 839.446 143.012 838.744 143.012C838.051 143.012 837.441 143.158 836.912 143.449C836.393 143.741 835.955 144.142 835.6 144.652C835.253 145.154 834.993 145.732 834.82 146.389C834.647 147.036 834.561 147.724 834.561 148.453ZM848 148.768V148.453C848 147.387 848.155 146.398 848.465 145.486C848.775 144.566 849.221 143.768 849.805 143.094C850.388 142.41 851.094 141.882 851.924 141.508C852.753 141.125 853.683 140.934 854.713 140.934C855.752 140.934 856.686 141.125 857.516 141.508C858.354 141.882 859.065 142.41 859.648 143.094C860.241 143.768 860.692 144.566 861.002 145.486C861.312 146.398 861.467 147.387 861.467 148.453V148.768C861.467 149.834 861.312 150.823 861.002 151.734C860.692 152.646 860.241 153.443 859.648 154.127C859.065 154.801 858.359 155.33 857.529 155.713C856.709 156.087 855.779 156.273 854.74 156.273C853.701 156.273 852.767 156.087 851.938 155.713C851.108 155.33 850.397 154.801 849.805 154.127C849.221 153.443 848.775 152.646 848.465 151.734C848.155 150.823 848 149.834 848 148.768ZM850.529 148.453V148.768C850.529 149.506 850.616 150.203 850.789 150.859C850.962 151.507 851.222 152.081 851.568 152.582C851.924 153.083 852.366 153.48 852.895 153.771C853.423 154.054 854.038 154.195 854.74 154.195C855.433 154.195 856.039 154.054 856.559 153.771C857.087 153.48 857.525 153.083 857.871 152.582C858.217 152.081 858.477 151.507 858.65 150.859C858.833 150.203 858.924 149.506 858.924 148.768V148.453C858.924 147.724 858.833 147.036 858.65 146.389C858.477 145.732 858.213 145.154 857.857 144.652C857.511 144.142 857.074 143.741 856.545 143.449C856.025 143.158 855.415 143.012 854.713 143.012C854.02 143.012 853.41 143.158 852.881 143.449C852.361 143.741 851.924 144.142 851.568 144.652C851.222 145.154 850.962 145.732 850.789 146.389C850.616 147.036 850.529 147.724 850.529 148.453ZM867.182 135V156H864.639V135H867.182ZM876.219 141.207L869.766 148.111L866.156 151.857L865.951 149.164L868.535 146.074L873.129 141.207H876.219ZM873.908 156L868.631 148.945L869.943 146.689L876.889 156H873.908Z" fill="#171717"/>
<path d="M205.164 51.6094H219.903C222.839 51.6094 225.379 52.0488 227.523 52.9277C229.686 53.8066 231.347 55.1074 232.507 56.8301C233.667 58.5527 234.247 60.6797 234.247 63.2109C234.247 65.3203 233.904 67.1133 233.219 68.5898C232.533 70.0664 231.566 71.2881 230.318 72.2549C229.088 73.2217 227.646 74.0039 225.994 74.6016L223.199 76.1309H210.648L210.596 69.46H219.93C221.213 69.46 222.276 69.2314 223.12 68.7744C223.964 68.3174 224.597 67.6758 225.019 66.8496C225.458 66.0059 225.678 65.0215 225.678 63.8965C225.678 62.7363 225.458 61.7344 225.019 60.8906C224.579 60.0469 223.929 59.4053 223.067 58.9658C222.224 58.5088 221.169 58.2803 219.903 58.2803H213.76V90H205.164V51.6094ZM226.416 90L217.794 72.9404L226.864 72.9141L235.618 89.6045V90H226.416ZM253.1 90.5273C250.832 90.5273 248.802 90.167 247.009 89.4463C245.216 88.7256 243.695 87.7324 242.447 86.4668C241.217 85.1836 240.276 83.707 239.626 82.0371C238.976 80.3672 238.65 78.583 238.65 76.6846V75.6826C238.65 73.5557 238.949 71.5957 239.547 69.8027C240.145 68.0098 241.015 66.4541 242.157 65.1357C243.317 63.7998 244.741 62.7715 246.429 62.0508C248.116 61.3125 250.041 60.9434 252.203 60.9434C254.225 60.9434 256.026 61.2773 257.608 61.9453C259.19 62.5957 260.526 63.5361 261.616 64.7666C262.706 65.9795 263.532 67.4473 264.095 69.1699C264.675 70.875 264.965 72.791 264.965 74.918V78.293H241.973V72.9932H256.896V72.3604C256.896 71.3584 256.712 70.4795 256.343 69.7236C255.991 68.9678 255.464 68.3877 254.761 67.9834C254.075 67.5615 253.205 67.3506 252.15 67.3506C251.148 67.3506 250.313 67.5615 249.646 67.9834C248.978 68.4053 248.441 69.0029 248.037 69.7764C247.65 70.5322 247.369 71.4199 247.193 72.4395C247.018 73.4414 246.93 74.5225 246.93 75.6826V76.6846C246.93 77.792 247.079 78.8027 247.378 79.7168C247.677 80.6309 248.116 81.4131 248.696 82.0635C249.276 82.7139 249.979 83.2236 250.806 83.5928C251.632 83.9619 252.572 84.1465 253.627 84.1465C254.928 84.1465 256.167 83.9004 257.345 83.4082C258.522 82.8984 259.542 82.1074 260.403 81.0352L264.253 85.4385C263.673 86.2822 262.855 87.0996 261.801 87.8906C260.764 88.6641 259.516 89.2969 258.057 89.7891C256.598 90.2812 254.945 90.5273 253.1 90.5273ZM284.081 83.1973V70.9629C284.081 70.1016 283.949 69.3633 283.686 68.748C283.422 68.1328 283.009 67.6494 282.446 67.2979C281.884 66.9463 281.154 66.7705 280.258 66.7705C279.502 66.7705 278.843 66.9023 278.28 67.166C277.735 67.4297 277.313 67.8076 277.015 68.2998C276.733 68.792 276.593 69.3984 276.593 70.1191H268.366C268.366 68.8359 268.656 67.6406 269.236 66.5332C269.816 65.4258 270.643 64.4502 271.715 63.6064C272.805 62.7627 274.105 62.1123 275.617 61.6553C277.129 61.1807 278.825 60.9434 280.706 60.9434C282.938 60.9434 284.925 61.3213 286.665 62.0771C288.423 62.8154 289.812 63.9316 290.831 65.4258C291.851 66.9023 292.36 68.7656 292.36 71.0156V82.96C292.36 84.6826 292.457 86.0361 292.65 87.0205C292.861 87.9873 293.16 88.8311 293.547 89.5518V90H285.241C284.854 89.1738 284.564 88.1543 284.371 86.9414C284.178 85.7109 284.081 84.4629 284.081 83.1973ZM285.109 72.5977L285.162 77.1328H281.075C280.161 77.1328 279.37 77.2471 278.702 77.4756C278.052 77.7041 277.524 78.0205 277.12 78.4248C276.716 78.8115 276.417 79.2686 276.224 79.7959C276.048 80.3057 275.96 80.8682 275.96 81.4834C275.96 82.0635 276.101 82.5908 276.382 83.0654C276.663 83.5225 277.05 83.8828 277.542 84.1465C278.034 84.4102 278.605 84.542 279.256 84.542C280.328 84.542 281.242 84.3311 281.998 83.9092C282.771 83.4873 283.369 82.9775 283.791 82.3799C284.213 81.7646 284.424 81.1934 284.424 80.666L286.401 84.0938C286.085 84.7969 285.698 85.5264 285.241 86.2822C284.784 87.0205 284.204 87.7148 283.501 88.3652C282.798 88.998 281.945 89.5166 280.943 89.9209C279.959 90.3252 278.772 90.5273 277.384 90.5273C275.591 90.5273 273.965 90.167 272.506 89.4463C271.047 88.708 269.878 87.6973 268.999 86.4141C268.138 85.1309 267.707 83.6543 267.707 81.9844C267.707 80.4902 267.979 79.1631 268.524 78.0029C269.069 76.8428 269.887 75.8584 270.977 75.0498C272.084 74.2412 273.473 73.6348 275.143 73.2305C276.812 72.8086 278.764 72.5977 280.996 72.5977H285.109ZM309.684 84.1201C310.562 84.1201 311.327 83.9531 311.978 83.6191C312.628 83.2852 313.129 82.8193 313.48 82.2217C313.85 81.6064 314.034 80.8682 314.034 80.0068H321.786C321.786 82.0811 321.25 83.9092 320.178 85.4912C319.123 87.0732 317.699 88.3125 315.906 89.209C314.113 90.0879 312.092 90.5273 309.842 90.5273C307.627 90.5273 305.693 90.167 304.041 89.4463C302.389 88.708 301.009 87.6797 299.901 86.3613C298.794 85.043 297.959 83.5137 297.396 81.7734C296.852 80.0156 296.579 78.1172 296.579 76.0781V75.3926C296.579 73.3711 296.852 71.4814 297.396 69.7236C297.959 67.9658 298.794 66.4277 299.901 65.1094C301.009 63.791 302.38 62.7715 304.015 62.0508C305.667 61.3125 307.601 60.9434 309.815 60.9434C312.153 60.9434 314.219 61.3916 316.012 62.2881C317.822 63.1846 319.237 64.4766 320.257 66.1641C321.276 67.834 321.786 69.8467 321.786 72.2021H314.034C314.034 71.2881 313.867 70.4707 313.533 69.75C313.217 69.0117 312.725 68.4316 312.057 68.0098C311.406 67.5703 310.598 67.3506 309.631 67.3506C308.629 67.3506 307.803 67.5703 307.152 68.0098C306.52 68.4316 306.036 69.0205 305.702 69.7764C305.368 70.5322 305.14 71.3936 305.017 72.3604C304.894 73.3096 304.832 74.3203 304.832 75.3926V76.0781C304.832 77.168 304.894 78.2051 305.017 79.1895C305.14 80.1562 305.368 81.0088 305.702 81.7471C306.054 82.4854 306.546 83.0654 307.179 83.4873C307.812 83.9092 308.646 84.1201 309.684 84.1201ZM340.375 61.4707V67.2451H323.447V61.4707H340.375ZM327.323 54.4043H335.576V81.0615C335.576 81.8525 335.673 82.459 335.866 82.8809C336.06 83.3027 336.376 83.6016 336.815 83.7773C337.255 83.9355 337.817 84.0146 338.503 84.0146C338.995 84.0146 339.417 83.9971 339.769 83.9619C340.12 83.9268 340.445 83.8828 340.744 83.8301V89.7891C340.041 90.0176 339.294 90.1934 338.503 90.3164C337.712 90.457 336.851 90.5273 335.919 90.5273C334.144 90.5273 332.605 90.2373 331.305 89.6572C330.021 89.0771 329.037 88.1631 328.352 86.915C327.666 85.6494 327.323 84.0059 327.323 81.9844V54.4043ZM383.96 67.0605V73.7051H364.079V67.0605H383.96ZM366.795 51.6094V90H358.199V51.6094H366.795ZM389.893 51.6094V90H381.323V51.6094H389.893ZM410.96 83.1973V70.9629C410.96 70.1016 410.828 69.3633 410.564 68.748C410.301 68.1328 409.888 67.6494 409.325 67.2979C408.763 66.9463 408.033 66.7705 407.137 66.7705C406.381 66.7705 405.722 66.9023 405.159 67.166C404.614 67.4297 404.192 67.8076 403.894 68.2998C403.612 68.792 403.472 69.3984 403.472 70.1191H395.245C395.245 68.8359 395.535 67.6406 396.115 66.5332C396.695 65.4258 397.521 64.4502 398.594 63.6064C399.684 62.7627 400.984 62.1123 402.496 61.6553C404.008 61.1807 405.704 60.9434 407.585 60.9434C409.817 60.9434 411.804 61.3213 413.544 62.0771C415.302 62.8154 416.69 63.9316 417.71 65.4258C418.729 66.9023 419.239 68.7656 419.239 71.0156V82.96C419.239 84.6826 419.336 86.0361 419.529 87.0205C419.74 87.9873 420.039 88.8311 420.426 89.5518V90H412.12C411.733 89.1738 411.443 88.1543 411.25 86.9414C411.057 85.7109 410.96 84.4629 410.96 83.1973ZM411.988 72.5977L412.041 77.1328H407.954C407.04 77.1328 406.249 77.2471 405.581 77.4756C404.931 77.7041 404.403 78.0205 403.999 78.4248C403.595 78.8115 403.296 79.2686 403.103 79.7959C402.927 80.3057 402.839 80.8682 402.839 81.4834C402.839 82.0635 402.979 82.5908 403.261 83.0654C403.542 83.5225 403.929 83.8828 404.421 84.1465C404.913 84.4102 405.484 84.542 406.135 84.542C407.207 84.542 408.121 84.3311 408.877 83.9092C409.65 83.4873 410.248 82.9775 410.67 82.3799C411.092 81.7646 411.303 81.1934 411.303 80.666L413.28 84.0938C412.964 84.7969 412.577 85.5264 412.12 86.2822C411.663 87.0205 411.083 87.7148 410.38 88.3652C409.677 88.998 408.824 89.5166 407.822 89.9209C406.838 90.3252 405.651 90.5273 404.263 90.5273C402.47 90.5273 400.844 90.167 399.385 89.4463C397.926 88.708 396.757 87.6973 395.878 86.4141C395.017 85.1309 394.586 83.6543 394.586 81.9844C394.586 80.4902 394.858 79.1631 395.403 78.0029C395.948 76.8428 396.766 75.8584 397.855 75.0498C398.963 74.2412 400.352 73.6348 402.021 73.2305C403.691 72.8086 405.643 72.5977 407.875 72.5977H411.988ZM432.897 66.9551V100.969H424.671V61.4707H432.344L432.897 66.9551ZM450.695 75.4189V75.9727C450.695 78.0469 450.458 79.9717 449.983 81.7471C449.509 83.5049 448.797 85.043 447.848 86.3613C446.916 87.6797 445.765 88.708 444.394 89.4463C443.022 90.167 441.432 90.5273 439.621 90.5273C437.898 90.5273 436.404 90.167 435.139 89.4463C433.891 88.708 432.836 87.6885 431.975 86.3877C431.131 85.0693 430.445 83.5664 429.918 81.8789C429.408 80.1738 429.013 78.3545 428.731 76.4209V75.3398C429.013 73.2832 429.417 71.376 429.944 69.6182C430.472 67.8604 431.157 66.3398 432.001 65.0566C432.845 63.7559 433.891 62.7451 435.139 62.0244C436.387 61.3037 437.872 60.9434 439.595 60.9434C441.388 60.9434 442.979 61.2861 444.367 61.9717C445.756 62.6572 446.916 63.6416 447.848 64.9248C448.797 66.1904 449.509 67.7109 449.983 69.4863C450.458 71.2617 450.695 73.2393 450.695 75.4189ZM442.442 75.9727V75.4189C442.442 74.2588 442.354 73.1953 442.179 72.2285C442.003 71.2441 441.722 70.3916 441.335 69.6709C440.948 68.9326 440.438 68.3613 439.806 67.957C439.173 67.5527 438.399 67.3506 437.485 67.3506C436.501 67.3506 435.666 67.5088 434.98 67.8252C434.295 68.1416 433.741 68.6074 433.319 69.2227C432.897 69.8203 432.59 70.5586 432.396 71.4375C432.221 72.3164 432.124 73.3184 432.106 74.4434V77.3438C432.124 78.6621 432.309 79.8398 432.66 80.877C433.029 81.8965 433.601 82.6963 434.374 83.2764C435.165 83.8389 436.22 84.1201 437.538 84.1201C438.47 84.1201 439.243 83.918 439.858 83.5137C440.491 83.0918 440.992 82.5029 441.361 81.7471C441.748 80.9912 442.021 80.1211 442.179 79.1367C442.354 78.1523 442.442 77.0977 442.442 75.9727ZM463.325 66.9551V100.969H455.099V61.4707H462.771L463.325 66.9551ZM481.123 75.4189V75.9727C481.123 78.0469 480.886 79.9717 480.411 81.7471C479.937 83.5049 479.225 85.043 478.275 86.3613C477.344 87.6797 476.192 88.708 474.821 89.4463C473.45 90.167 471.859 90.5273 470.049 90.5273C468.326 90.5273 466.832 90.167 465.566 89.4463C464.318 88.708 463.264 87.6885 462.402 86.3877C461.559 85.0693 460.873 83.5664 460.346 81.8789C459.836 80.1738 459.44 78.3545 459.159 76.4209V75.3398C459.44 73.2832 459.845 71.376 460.372 69.6182C460.899 67.8604 461.585 66.3398 462.429 65.0566C463.272 63.7559 464.318 62.7451 465.566 62.0244C466.814 61.3037 468.3 60.9434 470.022 60.9434C471.815 60.9434 473.406 61.2861 474.795 61.9717C476.184 62.6572 477.344 63.6416 478.275 64.9248C479.225 66.1904 479.937 67.7109 480.411 69.4863C480.886 71.2617 481.123 73.2393 481.123 75.4189ZM472.87 75.9727V75.4189C472.87 74.2588 472.782 73.1953 472.606 72.2285C472.431 71.2441 472.149 70.3916 471.763 69.6709C471.376 68.9326 470.866 68.3613 470.233 67.957C469.601 67.5527 468.827 67.3506 467.913 67.3506C466.929 67.3506 466.094 67.5088 465.408 67.8252C464.723 68.1416 464.169 68.6074 463.747 69.2227C463.325 69.8203 463.018 70.5586 462.824 71.4375C462.648 72.3164 462.552 73.3184 462.534 74.4434V77.3438C462.552 78.6621 462.736 79.8398 463.088 80.877C463.457 81.8965 464.028 82.6963 464.802 83.2764C465.593 83.8389 466.647 84.1201 467.966 84.1201C468.897 84.1201 469.671 83.918 470.286 83.5137C470.919 83.0918 471.42 82.5029 471.789 81.7471C472.176 80.9912 472.448 80.1211 472.606 79.1367C472.782 78.1523 472.87 77.0977 472.87 75.9727ZM493.779 86.7041L501.241 61.4707H510.101L498.631 94.2715C498.385 94.9922 498.051 95.7656 497.629 96.5918C497.225 97.418 496.671 98.209 495.968 98.9648C495.282 99.7207 494.403 100.336 493.331 100.811C492.259 101.285 490.94 101.522 489.376 101.522C488.585 101.522 487.97 101.479 487.53 101.391C487.108 101.32 486.546 101.197 485.843 101.021L485.816 95.0361C486.045 95.0361 486.247 95.0361 486.423 95.0361C486.616 95.0537 486.81 95.0625 487.003 95.0625C487.987 95.0625 488.778 94.957 489.376 94.7461C489.991 94.5352 490.466 94.2188 490.8 93.7969C491.151 93.3926 491.433 92.874 491.644 92.2412L493.779 86.7041ZM491.274 61.4707L497.181 81.7734L498.183 90.501L492.619 90.791L482.415 61.4707H491.274ZM557.562 69.7236V85.2012C556.929 85.9219 555.962 86.6953 554.661 87.5215C553.378 88.3477 551.734 89.0596 549.73 89.6572C547.727 90.2373 545.336 90.5273 542.559 90.5273C540.045 90.5273 537.76 90.123 535.703 89.3145C533.646 88.4883 531.88 87.2842 530.403 85.7021C528.927 84.1025 527.784 82.1514 526.976 79.8486C526.185 77.5459 525.789 74.9092 525.789 71.9385V69.6709C525.789 66.7002 526.185 64.0635 526.976 61.7607C527.767 59.458 528.883 57.5156 530.324 55.9336C531.766 54.334 533.479 53.1211 535.466 52.2949C537.452 51.4688 539.649 51.0557 542.058 51.0557C545.485 51.0557 548.289 51.6094 550.469 52.7168C552.648 53.8066 554.301 55.3184 555.426 57.252C556.568 59.1855 557.271 61.4092 557.535 63.9229H549.256C549.08 62.6396 548.729 61.5322 548.201 60.6006C547.691 59.6689 546.962 58.957 546.013 58.4648C545.063 57.9551 543.833 57.7002 542.321 57.7002C541.108 57.7002 540.01 57.9551 539.025 58.4648C538.059 58.957 537.241 59.7041 536.573 60.7061C535.905 61.708 535.396 62.9561 535.044 64.4502C534.692 65.9268 534.517 67.6494 534.517 69.6182V71.9385C534.517 73.9072 534.692 75.6387 535.044 77.1328C535.413 78.627 535.949 79.875 536.652 80.877C537.355 81.8613 538.243 82.6084 539.315 83.1182C540.405 83.6279 541.671 83.8828 543.112 83.8828C544.237 83.8828 545.187 83.7949 545.96 83.6191C546.733 83.4258 547.366 83.1885 547.858 82.9072C548.351 82.6084 548.72 82.3359 548.966 82.0898V75.709H542.137V69.7236H557.562ZM571.694 49.5V90H563.441V49.5H571.694ZM576.44 76.0254V75.4717C576.44 73.3799 576.739 71.4551 577.337 69.6973C577.935 67.9219 578.813 66.3838 579.974 65.083C581.134 63.7822 582.558 62.7715 584.245 62.0508C585.933 61.3125 587.866 60.9434 590.046 60.9434C592.261 60.9434 594.212 61.3125 595.899 62.0508C597.604 62.7715 599.037 63.7822 600.197 65.083C601.357 66.3838 602.236 67.9219 602.834 69.6973C603.432 71.4551 603.73 73.3799 603.73 75.4717V76.0254C603.73 78.0996 603.432 80.0244 602.834 81.7998C602.236 83.5576 601.357 85.0957 600.197 86.4141C599.037 87.7148 597.613 88.7256 595.926 89.4463C594.238 90.167 592.296 90.5273 590.099 90.5273C587.919 90.5273 585.977 90.167 584.271 89.4463C582.566 88.7256 581.134 87.7148 579.974 86.4141C578.813 85.0957 577.935 83.5576 577.337 81.7998C576.739 80.0244 576.44 78.0996 576.44 76.0254ZM584.693 75.4717V76.0254C584.693 77.1504 584.781 78.2051 584.957 79.1895C585.15 80.1738 585.458 81.0352 585.88 81.7734C586.302 82.5117 586.855 83.0918 587.541 83.5137C588.244 83.918 589.097 84.1201 590.099 84.1201C591.101 84.1201 591.944 83.918 592.63 83.5137C593.315 83.0918 593.869 82.5117 594.291 81.7734C594.713 81.0352 595.012 80.1738 595.188 79.1895C595.381 78.2051 595.478 77.1504 595.478 76.0254V75.4717C595.478 74.3643 595.381 73.3271 595.188 72.3604C595.012 71.376 594.713 70.5059 594.291 69.75C593.869 68.9941 593.307 68.4053 592.604 67.9834C591.918 67.5615 591.065 67.3506 590.046 67.3506C589.062 67.3506 588.227 67.5615 587.541 67.9834C586.855 68.4053 586.302 68.9941 585.88 69.75C585.458 70.5059 585.15 71.376 584.957 72.3604C584.781 73.3271 584.693 74.3643 584.693 75.4717ZM608.081 49.5H616.308V83.2236L615.464 90H608.081V49.5ZM634.105 75.4189V75.9727C634.105 78.1348 633.877 80.1035 633.42 81.8789C632.98 83.6543 632.304 85.1924 631.39 86.4932C630.476 87.7764 629.324 88.7695 627.936 89.4727C626.547 90.1758 624.912 90.5273 623.031 90.5273C621.291 90.5273 619.797 90.167 618.549 89.4463C617.301 88.708 616.255 87.6885 615.411 86.3877C614.567 85.0869 613.882 83.5664 613.354 81.8262C612.845 80.0859 612.449 78.2139 612.168 76.21V75.2607C612.449 73.2568 612.845 71.3848 613.354 69.6445C613.882 67.9043 614.567 66.3838 615.411 65.083C616.255 63.7822 617.292 62.7715 618.522 62.0508C619.771 61.3125 621.256 60.9434 622.979 60.9434C624.877 60.9434 626.521 61.3037 627.909 62.0244C629.315 62.7451 630.476 63.7559 631.39 65.0566C632.304 66.3398 632.98 67.8691 633.42 69.6445C633.877 71.4023 634.105 73.3271 634.105 75.4189ZM625.879 75.9727V75.4189C625.879 74.3291 625.8 73.3008 625.642 72.334C625.501 71.3672 625.246 70.5146 624.877 69.7764C624.525 69.0205 624.024 68.4316 623.374 68.0098C622.741 67.5703 621.924 67.3506 620.922 67.3506C619.938 67.3506 619.103 67.5176 618.417 67.8516C617.731 68.1855 617.178 68.6602 616.756 69.2754C616.334 69.873 616.026 70.6025 615.833 71.4639C615.64 72.3252 615.534 73.2832 615.517 74.3379V77.1328C615.534 78.5391 615.719 79.7695 616.07 80.8242C616.422 81.8789 616.993 82.6963 617.784 83.2764C618.575 83.8389 619.639 84.1201 620.975 84.1201C621.994 84.1201 622.82 83.9268 623.453 83.54C624.104 83.1357 624.596 82.5732 624.93 81.8525C625.281 81.1318 625.527 80.2705 625.668 79.2686C625.809 78.2666 625.879 77.168 625.879 75.9727ZM653.591 83.1973V70.9629C653.591 70.1016 653.459 69.3633 653.195 68.748C652.932 68.1328 652.519 67.6494 651.956 67.2979C651.394 66.9463 650.664 66.7705 649.768 66.7705C649.012 66.7705 648.353 66.9023 647.79 67.166C647.245 67.4297 646.823 67.8076 646.524 68.2998C646.243 68.792 646.103 69.3984 646.103 70.1191H637.876C637.876 68.8359 638.166 67.6406 638.746 66.5332C639.326 65.4258 640.152 64.4502 641.225 63.6064C642.314 62.7627 643.615 62.1123 645.127 61.6553C646.639 61.1807 648.335 60.9434 650.216 60.9434C652.448 60.9434 654.435 61.3213 656.175 62.0771C657.933 62.8154 659.321 63.9316 660.341 65.4258C661.36 66.9023 661.87 68.7656 661.87 71.0156V82.96C661.87 84.6826 661.967 86.0361 662.16 87.0205C662.371 87.9873 662.67 88.8311 663.057 89.5518V90H654.751C654.364 89.1738 654.074 88.1543 653.881 86.9414C653.688 85.7109 653.591 84.4629 653.591 83.1973ZM654.619 72.5977L654.672 77.1328H650.585C649.671 77.1328 648.88 77.2471 648.212 77.4756C647.562 77.7041 647.034 78.0205 646.63 78.4248C646.226 78.8115 645.927 79.2686 645.733 79.7959C645.558 80.3057 645.47 80.8682 645.47 81.4834C645.47 82.0635 645.61 82.5908 645.892 83.0654C646.173 83.5225 646.56 83.8828 647.052 84.1465C647.544 84.4102 648.115 84.542 648.766 84.542C649.838 84.542 650.752 84.3311 651.508 83.9092C652.281 83.4873 652.879 82.9775 653.301 82.3799C653.723 81.7646 653.934 81.1934 653.934 80.666L655.911 84.0938C655.595 84.7969 655.208 85.5264 654.751 86.2822C654.294 87.0205 653.714 87.7148 653.011 88.3652C652.308 88.998 651.455 89.5166 650.453 89.9209C649.469 90.3252 648.282 90.5273 646.894 90.5273C645.101 90.5273 643.475 90.167 642.016 89.4463C640.557 88.708 639.388 87.6973 638.509 86.4141C637.647 85.1309 637.217 83.6543 637.217 81.9844C637.217 80.4902 637.489 79.1631 638.034 78.0029C638.579 76.8428 639.396 75.8584 640.486 75.0498C641.594 74.2412 642.982 73.6348 644.652 73.2305C646.322 72.8086 648.273 72.5977 650.506 72.5977H654.619ZM675.95 49.5V90H667.697V49.5H675.95ZM715.659 79.875C715.659 79.2246 715.562 78.6445 715.369 78.1348C715.176 77.6074 714.824 77.124 714.314 76.6846C713.805 76.2451 713.084 75.8057 712.152 75.3662C711.221 74.9092 709.999 74.4434 708.487 73.9688C706.765 73.4062 705.121 72.7734 703.557 72.0703C702.01 71.3496 700.63 70.5146 699.417 69.5654C698.204 68.6162 697.246 67.5088 696.543 66.2432C695.857 64.9775 695.515 63.501 695.515 61.8135C695.515 60.1787 695.875 58.7021 696.596 57.3838C697.316 56.0654 698.327 54.9404 699.628 54.0088C700.929 53.0596 702.458 52.3389 704.216 51.8467C705.974 51.3369 707.907 51.082 710.017 51.082C712.829 51.082 715.299 51.583 717.426 52.585C719.57 53.5693 721.24 54.958 722.436 56.751C723.631 58.5264 724.229 60.5918 724.229 62.9473H715.686C715.686 61.9102 715.466 60.9961 715.026 60.2051C714.604 59.3965 713.954 58.7637 713.075 58.3066C712.214 57.8496 711.133 57.6211 709.832 57.6211C708.566 57.6211 707.503 57.8145 706.642 58.2012C705.798 58.5703 705.156 59.0801 704.717 59.7305C704.295 60.3809 704.084 61.0928 704.084 61.8662C704.084 62.4814 704.242 63.0439 704.559 63.5537C704.893 64.0459 705.367 64.5117 705.982 64.9512C706.615 65.373 707.389 65.7773 708.303 66.1641C709.217 66.5508 710.263 66.9199 711.44 67.2715C713.497 67.9219 715.316 68.6426 716.898 69.4336C718.498 70.2246 719.843 71.1211 720.933 72.123C722.022 73.125 722.84 74.2588 723.385 75.5244C723.947 76.79 724.229 78.2227 724.229 79.8223C724.229 81.5273 723.895 83.0391 723.227 84.3574C722.576 85.6758 721.627 86.8008 720.379 87.7324C719.148 88.6465 717.672 89.3408 715.949 89.8154C714.227 90.29 712.302 90.5273 710.175 90.5273C708.241 90.5273 706.334 90.2812 704.453 89.7891C702.572 89.2793 700.867 88.5059 699.338 87.4688C697.826 86.4316 696.613 85.1133 695.699 83.5137C694.803 81.8965 694.354 79.9805 694.354 77.7656H702.95C702.95 78.9258 703.117 79.9102 703.451 80.7188C703.785 81.5098 704.26 82.1514 704.875 82.6436C705.508 83.1357 706.272 83.4873 707.169 83.6982C708.065 83.9092 709.067 84.0146 710.175 84.0146C711.458 84.0146 712.495 83.8389 713.286 83.4873C714.095 83.1182 714.692 82.6172 715.079 81.9844C715.466 81.3516 715.659 80.6484 715.659 79.875ZM743.371 61.4707V67.2451H726.443V61.4707H743.371ZM730.319 54.4043H738.572V81.0615C738.572 81.8525 738.669 82.459 738.862 82.8809C739.056 83.3027 739.372 83.6016 739.812 83.7773C740.251 83.9355 740.813 84.0146 741.499 84.0146C741.991 84.0146 742.413 83.9971 742.765 83.9619C743.116 83.9268 743.441 83.8828 743.74 83.8301V89.7891C743.037 90.0176 742.29 90.1934 741.499 90.3164C740.708 90.457 739.847 90.5273 738.915 90.5273C737.14 90.5273 735.602 90.2373 734.301 89.6572C733.018 89.0771 732.033 88.1631 731.348 86.915C730.662 85.6494 730.319 84.0059 730.319 81.9844V54.4043ZM762.435 83.1973V70.9629C762.435 70.1016 762.303 69.3633 762.039 68.748C761.775 68.1328 761.362 67.6494 760.8 67.2979C760.237 66.9463 759.508 66.7705 758.611 66.7705C757.855 66.7705 757.196 66.9023 756.634 67.166C756.089 67.4297 755.667 67.8076 755.368 68.2998C755.087 68.792 754.946 69.3984 754.946 70.1191H746.72C746.72 68.8359 747.01 67.6406 747.59 66.5332C748.17 65.4258 748.996 64.4502 750.068 63.6064C751.158 62.7627 752.459 62.1123 753.971 61.6553C755.482 61.1807 757.179 60.9434 759.06 60.9434C761.292 60.9434 763.278 61.3213 765.019 62.0771C766.776 62.8154 768.165 63.9316 769.185 65.4258C770.204 66.9023 770.714 68.7656 770.714 71.0156V82.96C770.714 84.6826 770.811 86.0361 771.004 87.0205C771.215 87.9873 771.514 88.8311 771.9 89.5518V90H763.595C763.208 89.1738 762.918 88.1543 762.725 86.9414C762.531 85.7109 762.435 84.4629 762.435 83.1973ZM763.463 72.5977L763.516 77.1328H759.429C758.515 77.1328 757.724 77.2471 757.056 77.4756C756.405 77.7041 755.878 78.0205 755.474 78.4248C755.069 78.8115 754.771 79.2686 754.577 79.7959C754.401 80.3057 754.313 80.8682 754.313 81.4834C754.313 82.0635 754.454 82.5908 754.735 83.0654C755.017 83.5225 755.403 83.8828 755.896 84.1465C756.388 84.4102 756.959 84.542 757.609 84.542C758.682 84.542 759.596 84.3311 760.352 83.9092C761.125 83.4873 761.723 82.9775 762.145 82.3799C762.566 81.7646 762.777 81.1934 762.777 80.666L764.755 84.0938C764.438 84.7969 764.052 85.5264 763.595 86.2822C763.138 87.0205 762.558 87.7148 761.854 88.3652C761.151 88.998 760.299 89.5166 759.297 89.9209C758.312 90.3252 757.126 90.5273 755.737 90.5273C753.944 90.5273 752.318 90.167 750.859 89.4463C749.4 88.708 748.231 87.6973 747.353 86.4141C746.491 85.1309 746.061 83.6543 746.061 81.9844C746.061 80.4902 746.333 79.1631 746.878 78.0029C747.423 76.8428 748.24 75.8584 749.33 75.0498C750.438 74.2412 751.826 73.6348 753.496 73.2305C755.166 72.8086 757.117 72.5977 759.35 72.5977H763.463ZM790.621 61.4707V67.2451H773.693V61.4707H790.621ZM777.569 54.4043H785.822V81.0615C785.822 81.8525 785.919 82.459 786.112 82.8809C786.306 83.3027 786.622 83.6016 787.062 83.7773C787.501 83.9355 788.063 84.0146 788.749 84.0146C789.241 84.0146 789.663 83.9971 790.015 83.9619C790.366 83.9268 790.691 83.8828 790.99 83.8301V89.7891C790.287 90.0176 789.54 90.1934 788.749 90.3164C787.958 90.457 787.097 90.5273 786.165 90.5273C784.39 90.5273 782.852 90.2373 781.551 89.6572C780.268 89.0771 779.283 88.1631 778.598 86.915C777.912 85.6494 777.569 84.0059 777.569 81.9844V54.4043ZM808.023 90.5273C805.756 90.5273 803.726 90.167 801.933 89.4463C800.14 88.7256 798.619 87.7324 797.371 86.4668C796.141 85.1836 795.2 83.707 794.55 82.0371C793.899 80.3672 793.574 78.583 793.574 76.6846V75.6826C793.574 73.5557 793.873 71.5957 794.471 69.8027C795.068 68.0098 795.938 66.4541 797.081 65.1357C798.241 63.7998 799.665 62.7715 801.353 62.0508C803.04 61.3125 804.965 60.9434 807.127 60.9434C809.148 60.9434 810.95 61.2773 812.532 61.9453C814.114 62.5957 815.45 63.5361 816.54 64.7666C817.63 65.9795 818.456 67.4473 819.019 69.1699C819.599 70.875 819.889 72.791 819.889 74.918V78.293H796.896V72.9932H811.82V72.3604C811.82 71.3584 811.636 70.4795 811.267 69.7236C810.915 68.9678 810.388 68.3877 809.685 67.9834C808.999 67.5615 808.129 67.3506 807.074 67.3506C806.072 67.3506 805.237 67.5615 804.569 67.9834C803.901 68.4053 803.365 69.0029 802.961 69.7764C802.574 70.5322 802.293 71.4199 802.117 72.4395C801.941 73.4414 801.854 74.5225 801.854 75.6826V76.6846C801.854 77.792 802.003 78.8027 802.302 79.7168C802.601 80.6309 803.04 81.4131 803.62 82.0635C804.2 82.7139 804.903 83.2236 805.729 83.5928C806.556 83.9619 807.496 84.1465 808.551 84.1465C809.852 84.1465 811.091 83.9004 812.269 83.4082C813.446 82.8984 814.466 82.1074 815.327 81.0352L819.177 85.4385C818.597 86.2822 817.779 87.0996 816.725 87.8906C815.688 88.6641 814.439 89.2969 812.98 89.7891C811.521 90.2812 809.869 90.5273 808.023 90.5273Z" fill="#4CB074"/>
</svg>
